{"glyphs":{"0":{"ha":907,"x_min":33,"x_max":875,"o":"m 454 161 q 633 475 633 161 q 590 706 633 621 q 454 790 546 790 q 318 706 363 790 q 274 475 274 622 q 318 244 274 328 q 454 161 363 161 m 453 -22 q 149 114 265 -22 q 33 475 33 250 q 149 837 33 701 q 454 972 265 972 q 760 837 646 972 q 875 475 875 701 q 759 113 875 249 q 453 -22 643 -22 z "},"1":{"ha":564,"x_min":36,"x_max":475,"o":"m 240 0 l 240 608 l 36 608 l 36 767 q 204 818 136 769 q 289 960 272 867 l 475 960 l 475 0 l 240 0 z "},"2":{"ha":807,"x_min":31,"x_max":769,"o":"m 31 0 q 76 188 32 111 q 199 331 119 264 q 336 436 240 367 q 471 540 432 506 q 533 658 533 596 q 501 749 533 715 q 410 782 469 782 q 307 739 342 782 q 264 599 265 692 l 44 599 q 110 840 44 751 q 415 971 200 971 q 674 885 581 971 q 768 667 768 799 q 726 514 768 576 q 610 393 685 451 q 490 305 585 374 q 356 194 394 236 l 356 193 l 769 193 l 769 0 l 31 0 z "},"3":{"ha":832,"x_min":19,"x_max":801,"o":"m 425 -22 q 125 69 228 -22 q 19 329 19 163 l 240 329 q 415 157 250 157 q 525 192 486 157 q 564 289 564 228 q 401 414 564 414 l 344 414 l 344 576 l 396 576 q 503 606 464 576 q 543 688 543 635 q 510 767 543 738 q 418 796 476 796 q 308 756 346 796 q 267 650 271 715 l 49 650 q 149 883 51 794 q 421 971 247 971 q 677 899 581 971 q 774 703 774 828 q 629 513 774 569 l 629 510 q 801 276 801 457 q 694 54 801 131 q 425 -22 586 -22 z "},"4":{"ha":861,"x_min":29,"x_max":838,"o":"m 472 0 l 472 211 l 29 211 l 29 426 l 469 961 l 700 961 l 700 389 l 838 389 l 838 211 l 700 211 l 700 0 l 472 0 m 206 389 l 472 389 l 472 715 l 469 715 l 206 392 l 206 389 z "},"5":{"ha":838,"x_min":18,"x_max":806,"o":"m 421 -22 q 144 57 253 -22 q 18 285 35 136 l 247 285 q 304 195 258 226 q 415 164 350 164 q 528 209 486 164 q 569 326 569 254 q 526 441 569 399 q 414 483 483 483 q 278 425 324 483 l 58 425 l 156 951 l 746 951 l 746 764 l 324 764 l 290 594 l 293 594 q 478 651 356 651 q 712 562 618 651 q 806 325 806 472 q 699 73 806 168 q 421 -22 593 -22 z "},"6":{"ha":858,"x_min":32,"x_max":831,"o":"m 453 -22 q 143 113 250 -22 q 35 468 36 247 q 150 849 32 715 q 451 971 257 971 q 689 903 597 971 q 803 717 781 835 l 579 717 q 454 804 553 804 q 320 742 368 804 q 267 564 272 679 l 269 564 q 488 654 356 654 q 730 560 629 654 q 831 317 831 465 q 724 72 831 165 q 453 -22 618 -22 m 326 199 q 349 176 326 199 q 444 153 372 153 q 563 199 517 153 q 608 315 608 244 q 562 434 608 386 q 444 482 515 482 q 324 435 369 482 q 279 315 279 389 q 326 199 279 244 z "},"7":{"ha":757,"x_min":24,"x_max":728,"o":"m 156 0 q 192 242 160 124 q 274 455 224 360 q 375 622 324 550 q 482 750 426 693 l 482 753 l 24 753 l 24 951 l 728 951 l 728 771 q 499 432 592 633 q 400 0 407 231 l 156 0 z "},"8":{"ha":846,"x_min":26,"x_max":821,"o":"m 425 -22 q 136 58 246 -22 q 26 272 26 138 q 70 415 26 353 q 192 510 114 476 l 192 514 q 65 706 65 575 q 163 898 65 825 q 424 971 260 971 q 685 901 589 971 q 781 710 781 831 q 656 519 781 586 l 656 515 q 778 422 735 485 q 821 278 821 360 q 712 59 821 140 q 425 -22 603 -22 m 424 151 q 542 189 497 151 q 588 288 588 226 q 544 390 588 351 q 425 429 500 429 q 305 390 351 429 q 258 288 258 351 q 303 188 258 225 q 424 151 349 151 m 319 610 q 338 594 319 610 q 422 578 357 578 q 526 610 488 578 q 564 694 564 643 q 526 778 564 746 q 422 810 488 810 q 319 778 357 810 q 282 694 282 746 q 319 610 282 643 z "},"9":{"ha":857,"x_min":29,"x_max":824,"o":"m 419 -22 q 174 48 268 -22 q 58 236 79 118 l 281 236 q 414 146 307 146 q 538 200 496 146 q 592 389 588 260 l 589 389 q 376 296 503 296 q 129 389 229 296 q 29 632 29 482 q 137 877 29 783 q 413 971 244 971 q 699 864 594 971 q 824 482 824 743 q 725 113 824 242 q 419 -22 621 -22 m 418 468 q 540 514 492 468 q 588 632 588 560 q 540 751 588 704 q 418 797 492 797 q 298 751 344 797 q 251 633 251 704 q 297 515 251 561 q 418 468 342 468 z "}," ":{"ha":215,"x_min":0,"x_max":0,"o":""},"!":{"ha":367,"x_min":65,"x_max":301,"o":"m 125 325 l 67 758 l 67 993 l 300 993 l 300 758 l 242 325 l 125 325 m 65 0 l 65 233 l 301 233 l 301 0 l 65 0 z "},"\"":{"ha":590,"x_min":57,"x_max":533,"o":"m 57 619 l 57 993 l 253 993 l 253 619 l 57 619 m 338 619 l 338 993 l 533 993 l 533 619 l 338 619 z "},"#":{"ha":833,"x_min":33,"x_max":806,"o":"m 124 0 l 163 240 l 33 240 l 64 415 l 192 415 l 214 554 l 85 554 l 115 729 l 243 729 l 281 953 l 425 953 l 388 729 l 531 729 l 568 953 l 713 953 l 675 729 l 806 729 l 775 554 l 646 554 l 624 415 l 751 415 l 722 240 l 594 240 l 556 0 l 411 0 l 450 240 l 307 240 l 268 0 l 124 0 m 336 415 l 479 415 l 501 554 l 358 554 l 336 415 z "},"$":{"ha":865,"x_min":22,"x_max":824,"o":"m 390 -143 l 390 -18 q 121 76 217 -7 q 22 307 25 160 l 253 307 q 390 165 267 183 l 390 390 q 281 421 319 408 q 190 458 242 433 q 113 510 139 482 q 67 584 86 538 q 49 690 49 631 q 143 892 49 819 q 390 971 238 964 l 390 1056 l 475 1056 l 475 969 q 710 884 624 958 q 803 674 796 810 l 585 674 q 475 790 571 771 l 475 588 q 738 481 651 547 q 824 282 824 415 q 726 67 824 146 q 475 -19 629 -12 l 475 -143 l 390 -143 m 390 610 l 390 793 q 306 764 336 788 q 276 704 276 740 q 302 647 276 667 q 390 610 328 628 m 475 165 q 559 197 526 172 q 592 264 592 221 q 565 326 592 304 q 475 365 538 347 l 475 165 z "},"%":{"ha":1206,"x_min":28,"x_max":1179,"o":"m 199 693 q 282 536 199 536 q 365 693 365 536 q 282 854 365 854 q 199 693 199 854 m 465 492 q 429 453 465 492 q 282 415 393 415 q 99 492 171 415 q 28 693 28 568 q 99 896 28 819 q 282 972 171 972 q 466 896 396 972 q 536 693 536 819 q 465 492 536 568 m 282 0 l 794 953 l 925 953 l 411 0 l 282 0 m 842 256 q 925 97 842 97 q 1008 256 1008 97 q 988 372 1008 328 q 925 415 967 415 q 842 256 842 415 m 924 -24 q 741 53 813 -24 q 669 256 669 131 q 741 457 669 381 q 924 533 813 533 q 1108 458 1038 533 q 1179 256 1179 382 q 1108 53 1179 129 q 924 -24 1036 -24 z "},"&":{"ha":968,"x_min":31,"x_max":965,"o":"m 383 -17 q 123 65 215 -17 q 31 275 31 146 q 89 449 31 381 q 250 565 147 517 q 174 757 174 657 q 250 931 174 863 q 453 999 326 999 q 655 933 576 999 q 733 760 733 868 q 685 619 733 674 q 550 522 636 564 l 669 372 q 707 497 697 436 l 903 497 q 794 214 888 347 l 965 0 l 689 0 l 640 63 q 383 -17 518 -17 m 393 165 q 528 208 465 165 l 360 426 q 265 281 265 369 q 301 197 265 229 q 393 165 338 165 m 453 639 q 532 758 532 685 q 511 813 532 790 q 458 835 490 835 q 404 813 425 835 q 383 758 383 792 q 453 639 383 701 z "},"'":{"ha":310,"x_min":57,"x_max":253,"o":"m 57 619 l 57 993 l 253 993 l 253 619 l 57 619 z "},"(":{"ha":474,"x_min":79,"x_max":450,"o":"m 260 -192 q 79 410 79 83 q 129 764 79 597 q 258 1047 179 931 l 450 1047 q 303 410 303 763 q 450 -192 303 108 l 260 -192 z "},")":{"ha":474,"x_min":24,"x_max":394,"o":"m 24 -192 q 171 442 171 110 q 24 1047 171 764 l 215 1047 q 394 442 394 778 q 344 93 394 257 q 214 -192 294 -71 l 24 -192 z "},"*":{"ha":613,"x_min":43,"x_max":571,"o":"m 206 490 l 103 565 l 206 701 l 43 756 l 88 871 l 242 817 l 242 993 l 372 993 l 372 817 l 526 871 l 571 756 l 408 701 l 511 565 l 411 490 l 308 635 l 206 490 z "},"+":{"ha":786,"x_min":56,"x_max":731,"o":"m 296 110 l 296 367 l 56 367 l 56 549 l 296 549 l 296 804 l 490 804 l 490 549 l 731 549 l 731 367 l 490 367 l 490 110 l 296 110 z "},",":{"ha":326,"x_min":44,"x_max":282,"o":"m 47 -249 l 47 -153 q 126 -99 97 -139 q 156 0 156 -58 l 44 0 l 44 233 l 282 233 l 282 18 q 217 -172 282 -103 q 47 -249 151 -242 z "},"-":{"ha":465,"x_min":44,"x_max":422,"o":"m 44 251 l 44 446 l 422 446 l 422 251 l 44 251 z "},".":{"ha":326,"x_min":44,"x_max":282,"o":"m 44 0 l 44 233 l 282 233 l 282 0 l 44 0 z "},"/":{"ha":607,"x_min":17,"x_max":582,"o":"m 17 0 l 388 993 l 582 993 l 211 0 l 17 0 z "},":":{"ha":335,"x_min":49,"x_max":286,"o":"m 49 0 l 49 233 l 286 233 l 286 0 l 49 0 m 49 431 l 49 664 l 286 664 l 286 431 l 49 431 z "},";":{"ha":335,"x_min":49,"x_max":286,"o":"m 51 -249 l 51 -153 q 131 -99 101 -139 q 160 0 160 -58 l 49 0 l 49 233 l 286 233 l 286 18 q 221 -172 286 -103 q 51 -249 156 -242 m 49 431 l 49 664 l 286 664 l 286 431 l 49 431 z "},"<":{"ha":697,"x_min":60,"x_max":632,"o":"m 632 86 l 60 326 l 60 532 l 632 772 l 632 574 l 378 475 l 246 428 l 246 425 q 378 385 326 403 l 632 293 l 632 86 z "},"=":{"ha":782,"x_min":71,"x_max":721,"o":"m 71 194 l 71 371 l 721 371 l 721 194 l 71 194 m 71 489 l 71 665 l 721 665 l 721 489 l 71 489 z "},">":{"ha":697,"x_min":65,"x_max":638,"o":"m 65 86 l 65 286 l 319 385 l 451 431 l 451 433 q 319 475 371 457 l 65 567 l 65 772 l 638 532 l 638 326 l 65 86 z "},"?":{"ha":768,"x_min":19,"x_max":739,"o":"m 265 325 q 285 468 265 425 q 361 557 306 511 q 421 601 378 572 q 483 656 464 631 q 501 719 501 681 q 468 795 501 767 q 383 824 435 824 q 281 785 319 824 q 243 681 243 747 l 19 681 q 122 921 22 831 q 393 1011 222 1011 q 644 933 549 1011 q 739 728 739 854 q 717 619 739 667 q 671 550 694 572 q 608 503 647 528 q 576 483 596 494 q 548 465 557 471 q 526 450 539 458 q 506 435 514 442 q 492 419 499 428 q 465 325 465 386 l 265 325 m 243 0 l 243 233 l 481 233 l 481 0 l 243 0 z "},"@":{"ha":1263,"x_min":49,"x_max":1221,"o":"m 621 -151 q 210 -1 371 -151 q 49 393 49 149 q 100 649 49 533 q 237 838 151 764 q 431 951 322 911 q 657 992 539 992 q 938 933 811 992 q 1142 753 1064 874 q 1221 471 1221 633 q 1143 204 1221 300 q 939 108 1065 108 q 735 221 779 108 l 732 221 q 547 113 668 113 q 381 186 442 113 q 319 385 319 260 q 393 626 319 533 q 590 719 467 719 q 744 619 703 719 l 747 619 l 757 704 l 947 704 l 903 328 q 957 228 890 228 q 1047 286 1008 228 q 1086 468 1086 344 q 969 769 1086 667 q 656 872 853 872 q 323 743 457 872 q 189 394 189 614 q 303 85 189 204 q 622 -33 417 -33 q 869 18 746 -33 l 914 -92 q 621 -151 786 -151 m 607 263 q 696 313 663 263 q 729 444 729 364 q 706 536 729 500 q 639 572 682 572 q 553 520 585 572 q 521 390 521 468 q 542 298 521 333 q 607 263 564 263 z "},"A":{"ha":968,"x_min":-1,"x_max":967,"o":"m -1 0 l 356 993 l 608 993 l 967 0 l 708 0 l 650 179 l 303 179 l 246 0 l -1 0 m 360 356 l 593 356 l 518 596 l 479 736 l 476 736 q 436 596 453 647 l 360 356 z "},"B":{"ha":932,"x_min":68,"x_max":904,"o":"m 68 0 l 68 993 l 547 993 q 779 925 696 993 q 865 735 865 854 q 726 540 865 593 l 726 536 q 856 446 808 511 q 904 293 904 381 q 803 71 904 149 q 558 0 713 0 l 68 0 m 311 197 l 531 197 q 626 229 590 197 q 661 314 661 261 q 624 402 661 371 q 528 433 586 433 l 311 433 l 311 197 m 311 600 l 511 600 q 598 626 565 600 q 631 700 631 653 q 599 772 631 746 q 513 799 567 799 l 311 799 l 311 600 z "},"C":{"ha":975,"x_min":28,"x_max":956,"o":"m 518 -22 q 165 123 301 -22 q 28 493 28 268 q 163 865 28 718 q 517 1013 297 1013 q 800 925 686 1013 q 949 651 929 828 l 703 651 q 643 764 693 719 q 515 808 593 808 q 338 722 399 808 q 278 493 278 635 q 343 267 278 354 q 517 179 408 179 q 649 225 597 179 q 710 344 701 271 l 956 344 q 836 90 944 194 q 518 -22 719 -22 z "},"D":{"ha":979,"x_min":68,"x_max":951,"o":"m 314 207 l 458 207 q 640 280 578 207 q 703 490 703 353 q 639 708 703 628 q 461 788 575 788 l 314 788 l 314 207 m 68 0 l 68 993 l 492 993 q 825 856 699 993 q 951 490 951 718 q 779 90 951 222 q 476 0 658 0 l 68 0 z "},"E":{"ha":872,"x_min":68,"x_max":829,"o":"m 68 0 l 68 993 l 821 993 l 821 790 l 314 790 l 314 613 l 749 613 l 749 421 l 314 421 l 314 208 l 829 208 l 829 0 l 68 0 z "},"F":{"ha":836,"x_min":68,"x_max":807,"o":"m 68 0 l 68 993 l 807 993 l 807 786 l 314 786 l 314 585 l 726 585 l 726 386 l 314 386 l 314 0 l 68 0 z "},"G":{"ha":1024,"x_min":29,"x_max":972,"o":"m 501 -22 q 163 117 290 -22 q 29 493 29 263 q 176 881 29 733 q 517 1013 306 1013 q 818 920 704 1013 q 957 668 932 828 l 718 668 q 653 770 704 731 q 525 810 603 810 q 342 722 406 810 q 279 493 279 635 q 347 265 279 354 q 529 176 415 176 q 678 228 621 176 q 744 350 736 279 l 744 353 l 558 353 l 558 533 l 972 533 l 972 0 l 800 0 l 786 119 l 783 119 q 501 -22 692 -22 z "},"H":{"ha":976,"x_min":68,"x_max":908,"o":"m 68 0 l 68 993 l 314 993 l 314 617 l 663 617 l 663 993 l 908 993 l 908 0 l 663 0 l 663 414 l 314 414 l 314 0 l 68 0 z "},"I":{"ha":383,"x_min":69,"x_max":315,"o":"m 69 0 l 69 993 l 315 993 l 315 0 l 69 0 z "},"J":{"ha":757,"x_min":18,"x_max":699,"o":"m 365 -18 q 106 67 194 -18 q 18 299 18 153 l 18 386 l 242 386 l 242 304 q 350 185 242 185 q 453 301 453 185 l 453 993 l 699 993 l 699 296 q 628 81 699 160 q 365 -18 538 -18 z "},"K":{"ha":968,"x_min":68,"x_max":969,"o":"m 68 0 l 68 993 l 314 993 l 314 633 l 656 993 l 947 993 l 567 594 l 969 0 l 683 0 l 397 429 l 314 342 l 314 0 l 68 0 z "},"L":{"ha":785,"x_min":68,"x_max":760,"o":"m 68 0 l 68 993 l 314 993 l 314 208 l 760 208 l 760 0 l 68 0 z "},"M":{"ha":1158,"x_min":68,"x_max":1090,"o":"m 68 0 l 68 993 l 399 993 l 519 558 l 576 332 l 579 332 q 635 558 618 496 l 757 993 l 1090 993 l 1090 0 l 865 0 l 865 500 l 869 699 l 867 699 q 821 514 832 550 l 678 0 l 475 0 l 333 513 l 288 699 l 285 699 q 289 499 289 539 l 289 0 l 68 0 z "},"N":{"ha":986,"x_min":68,"x_max":918,"o":"m 68 0 l 68 993 l 315 993 l 610 494 l 678 368 l 681 368 q 678 522 678 488 l 678 993 l 918 993 l 918 0 l 671 0 l 379 492 l 308 625 l 306 625 q 308 463 308 497 l 308 0 l 68 0 z "},"O":{"ha":1038,"x_min":28,"x_max":1010,"o":"m 519 176 q 698 265 636 176 q 760 494 760 353 q 698 725 760 636 q 519 814 636 814 q 341 725 404 814 q 278 494 278 636 q 341 265 278 354 q 519 176 404 176 m 875 122 q 808 49 875 122 q 518 -24 740 -24 q 162 122 296 -24 q 28 494 28 268 q 162 867 28 721 q 518 1013 296 1013 q 875 867 740 1013 q 1010 494 1010 721 q 875 122 1010 268 z "},"P":{"ha":906,"x_min":68,"x_max":886,"o":"m 68 0 l 68 993 l 515 993 q 786 901 690 993 q 886 657 886 808 q 794 422 886 513 q 550 332 701 332 l 318 332 l 318 0 l 68 0 m 318 526 l 500 526 q 602 563 565 526 q 639 658 639 599 q 602 752 639 718 q 500 786 565 786 l 318 786 l 318 526 z "},"Q":{"ha":1035,"x_min":28,"x_max":1007,"o":"m 518 176 q 607 193 567 176 l 517 281 l 631 399 l 722 311 q 757 494 757 386 q 696 725 757 636 q 518 814 635 814 q 340 725 403 814 q 278 494 278 636 q 340 265 278 353 q 518 176 403 176 m 892 -81 l 767 39 q 517 -24 657 -24 q 161 122 294 -24 q 28 494 28 268 q 161 867 28 721 q 517 1013 294 1013 q 873 867 739 1013 q 1007 494 1007 721 q 893 146 1007 286 l 1006 40 l 892 -81 z "},"R":{"ha":932,"x_min":68,"x_max":904,"o":"m 68 0 l 68 993 l 543 993 q 793 917 696 993 q 890 707 890 842 q 718 467 890 526 l 718 463 q 863 281 843 421 q 874 160 871 232 q 883 53 878 89 q 904 13 889 18 l 904 0 l 665 0 q 648 40 654 7 q 638 135 642 74 q 628 231 633 196 q 463 372 608 372 l 314 372 l 314 0 l 68 0 m 314 554 l 499 554 q 608 586 571 554 q 646 675 646 618 q 610 765 646 731 q 504 799 574 799 l 314 799 l 314 554 z "},"S":{"ha":903,"x_min":21,"x_max":871,"o":"m 464 -24 q 144 63 263 -24 q 21 313 25 150 l 268 313 q 463 171 283 171 q 576 197 529 171 q 622 275 622 222 q 593 335 622 311 q 534 369 564 360 q 421 400 504 379 q 415 402 417 401 q 411 403 414 403 q 406 404 408 404 q 301 431 342 419 q 208 467 260 443 q 125 521 156 492 q 73 598 94 550 q 51 706 51 646 q 160 935 51 858 q 446 1011 269 1011 q 723 933 615 1011 q 838 706 831 856 l 597 706 q 549 794 590 763 q 438 825 507 825 q 334 799 374 825 q 294 732 294 774 q 342 663 294 685 q 519 613 389 642 q 654 574 601 593 q 762 521 707 556 q 844 431 817 486 q 871 300 871 376 q 756 63 871 149 q 464 -24 642 -24 z "},"T":{"ha":874,"x_min":24,"x_max":850,"o":"m 313 0 l 313 785 l 24 785 l 24 993 l 850 993 l 850 785 l 558 785 l 558 0 l 313 0 z "},"U":{"ha":953,"x_min":61,"x_max":892,"o":"m 478 -18 q 167 78 272 -18 q 61 350 61 174 l 61 993 l 307 993 l 307 342 q 478 179 307 179 q 603 224 560 179 q 646 346 646 269 l 646 993 l 892 993 l 892 350 q 787 78 892 175 q 478 -18 682 -18 z "},"V":{"ha":904,"x_min":-3,"x_max":906,"o":"m 325 0 l -3 993 l 253 993 l 408 472 l 454 297 l 457 297 q 503 472 482 399 l 657 993 l 906 993 l 579 0 l 325 0 z "},"W":{"ha":1306,"x_min":0,"x_max":1306,"o":"m 272 0 l 0 993 l 249 993 l 349 576 l 394 331 l 397 331 q 446 567 424 467 l 539 993 l 767 993 l 860 569 l 907 331 l 910 331 q 960 579 938 481 l 1058 993 l 1306 993 l 1033 0 l 793 0 l 689 476 l 654 661 l 651 661 q 618 476 635 556 l 514 0 l 272 0 z "},"X":{"ha":960,"x_min":4,"x_max":956,"o":"m 4 0 l 333 521 l 32 993 l 313 993 l 481 704 l 483 704 l 654 993 l 921 993 l 626 524 l 956 0 l 665 0 l 479 336 l 476 336 l 283 0 l 4 0 z "},"Y":{"ha":921,"x_min":1,"x_max":919,"o":"m 338 0 l 338 367 l 1 993 l 269 993 l 397 736 l 463 585 l 465 585 q 533 736 500 668 l 660 993 l 919 993 l 583 367 l 583 0 l 338 0 z "},"Z":{"ha":900,"x_min":36,"x_max":863,"o":"m 36 0 l 36 196 l 465 710 l 532 783 l 532 788 q 438 785 460 785 l 71 785 l 71 993 l 844 993 l 844 800 l 428 300 l 347 211 l 347 207 q 457 210 426 210 l 863 210 l 863 0 l 36 0 z "},"[":{"ha":553,"x_min":81,"x_max":507,"o":"m 81 -192 l 81 1047 l 507 1047 l 507 874 l 294 874 l 294 -18 l 507 -18 l 507 -192 l 81 -192 z "},"\\":{"ha":607,"x_min":17,"x_max":582,"o":"m 388 0 l 17 993 l 211 993 l 582 0 l 388 0 z "},"]":{"ha":553,"x_min":47,"x_max":474,"o":"m 47 -192 l 47 -18 l 260 -18 l 260 874 l 47 874 l 47 1047 l 474 1047 l 474 -192 l 47 -192 z "},"^":{"ha":647,"x_min":8,"x_max":639,"o":"m 8 590 l 240 993 l 407 993 l 639 590 l 438 590 l 324 799 l 322 799 l 204 590 l 8 590 z "},"_":{"ha":597,"x_min":-4,"x_max":601,"o":"m -4 -235 l -4 -94 l 601 -94 l 601 -235 l -4 -235 z "},"`":{"ha":694,"x_min":117,"x_max":457,"o":"m 285 794 l 117 1000 l 378 1000 l 457 794 l 285 794 z "},"a":{"ha":751,"x_min":21,"x_max":721,"o":"m 264 -18 q 88 39 154 -18 q 21 199 21 96 q 93 356 21 307 q 293 422 165 406 q 435 451 397 435 q 474 501 474 467 q 376 578 474 578 q 261 486 272 578 l 53 486 q 140 661 57 592 q 375 731 222 731 q 606 672 528 731 q 696 469 696 607 l 696 111 q 721 10 696 26 l 721 0 l 501 0 q 478 79 488 19 l 475 79 q 264 -18 407 -18 m 336 126 q 440 162 400 126 q 479 254 479 197 l 479 339 q 363 301 446 322 q 267 265 294 286 q 239 206 239 244 q 336 126 239 126 z "},"b":{"ha":814,"x_min":54,"x_max":792,"o":"m 489 -22 q 274 90 342 -22 l 271 90 l 271 0 l 54 0 l 54 993 l 281 993 l 281 631 l 285 631 q 488 732 358 732 q 708 625 624 732 q 792 356 792 518 q 710 78 792 179 q 489 -22 628 -22 m 425 157 q 526 210 490 157 q 563 357 563 263 q 526 505 563 450 q 422 560 490 560 q 312 503 350 560 q 274 356 274 447 q 315 212 274 267 q 425 157 356 157 z "},"c":{"ha":756,"x_min":22,"x_max":738,"o":"m 400 -22 q 126 85 231 -22 q 22 354 22 192 q 125 624 22 517 q 394 731 228 731 q 626 656 536 731 q 732 458 717 581 l 514 458 q 397 564 490 564 q 288 508 325 564 q 251 354 251 453 q 289 202 251 257 q 397 147 326 147 q 521 269 506 147 l 738 269 q 641 60 733 143 q 400 -22 549 -22 z "},"d":{"ha":817,"x_min":22,"x_max":763,"o":"m 333 -22 q 108 79 194 -22 q 22 356 22 181 q 109 627 22 522 q 333 732 196 732 q 532 631 461 732 l 536 631 l 536 993 l 763 993 l 763 0 l 546 0 l 546 96 l 543 96 q 333 -22 474 -22 m 392 157 q 501 212 461 157 q 542 356 542 267 q 504 505 542 449 q 394 561 467 561 q 290 506 328 561 q 251 358 251 450 q 289 211 251 265 q 392 157 326 157 z "},"e":{"ha":778,"x_min":22,"x_max":758,"o":"m 401 -21 q 126 85 229 -21 q 22 357 22 192 q 124 625 22 518 q 388 732 226 732 q 631 643 533 732 q 756 297 758 526 l 244 297 q 296 183 256 224 q 404 142 336 142 q 522 213 492 142 l 743 213 q 624 44 718 110 q 401 -21 531 -21 m 246 432 l 526 432 q 484 533 521 496 q 392 571 447 571 q 246 432 271 571 z "},"f":{"ha":485,"x_min":15,"x_max":467,"o":"m 107 0 l 107 567 l 15 567 l 15 711 l 107 711 l 107 763 q 165 928 107 869 q 467 989 250 1011 l 467 829 q 364 817 394 832 q 333 746 333 801 l 333 711 l 467 711 l 467 567 l 333 567 l 333 0 l 107 0 z "},"g":{"ha":794,"x_min":22,"x_max":740,"o":"m 385 -246 q 145 -187 236 -246 q 38 -17 54 -128 l 257 -17 q 382 -86 281 -86 q 518 50 518 -86 l 518 121 l 513 121 q 331 39 440 39 q 113 129 203 39 q 22 376 22 219 q 106 633 22 533 q 321 732 189 732 q 521 635 453 732 l 524 635 l 524 711 l 740 711 l 740 69 q 646 -167 740 -82 q 385 -246 557 -246 m 383 207 q 491 256 454 207 q 528 385 528 306 q 490 510 528 460 q 383 561 451 561 q 281 513 319 561 q 243 383 243 464 q 281 255 243 303 q 383 207 319 207 z "},"h":{"ha":792,"x_min":54,"x_max":743,"o":"m 54 0 l 54 993 l 281 993 l 281 624 l 285 624 q 496 732 367 732 q 677 658 611 732 q 743 463 743 583 l 743 0 l 517 0 l 517 417 q 488 509 517 475 q 406 543 460 543 q 315 501 350 543 q 281 393 281 460 l 281 0 l 54 0 z "},"i":{"ha":335,"x_min":54,"x_max":281,"o":"m 54 0 l 54 711 l 281 711 l 281 0 l 54 0 m 54 810 l 54 993 l 281 993 l 281 810 l 54 810 z "},"j":{"ha":335,"x_min":-65,"x_max":281,"o":"m 63 -239 q -65 -228 -10 -239 l -65 -71 q -12 -69 -28 -71 q 23 -61 4 -68 q 48 -38 42 -54 q 54 6 54 -22 l 54 711 l 281 711 l 281 -6 q 226 -183 281 -126 q 63 -239 171 -239 m 54 810 l 54 993 l 281 993 l 281 810 l 54 810 z "},"k":{"ha":778,"x_min":54,"x_max":779,"o":"m 54 0 l 54 993 l 278 993 l 278 471 l 489 711 l 750 711 l 500 444 l 779 0 l 517 0 l 346 290 l 278 218 l 278 0 l 54 0 z "},"l":{"ha":340,"x_min":56,"x_max":285,"o":"m 56 0 l 56 993 l 285 993 l 285 0 l 56 0 z "},"m":{"ha":1207,"x_min":54,"x_max":1158,"o":"m 54 0 l 54 711 l 271 711 l 271 610 l 275 610 q 490 732 349 732 q 690 607 631 732 l 693 607 q 917 732 774 732 q 1097 659 1035 732 q 1158 463 1158 586 l 1158 0 l 932 0 l 932 422 q 832 543 932 543 q 749 503 779 543 q 719 399 719 464 l 719 0 l 493 0 l 493 422 q 393 543 493 543 q 310 503 340 543 q 281 399 281 464 l 281 0 l 54 0 z "},"n":{"ha":792,"x_min":54,"x_max":743,"o":"m 54 0 l 54 711 l 272 711 l 272 614 l 276 614 q 496 732 358 732 q 677 658 611 732 q 743 463 743 583 l 743 0 l 517 0 l 517 417 q 488 509 517 475 q 406 543 460 543 q 315 501 350 543 q 281 393 281 460 l 281 0 l 54 0 z "},"o":{"ha":804,"x_min":22,"x_max":782,"o":"m 290 197 q 310 168 290 197 q 401 139 329 139 q 513 197 474 139 q 553 354 553 256 q 513 512 553 453 q 401 571 474 571 q 290 513 329 571 q 251 354 251 454 q 290 197 251 256 m 677 85 q 625 31 677 85 q 403 -22 572 -22 q 128 85 233 -22 q 22 354 22 192 q 128 624 22 517 q 403 731 233 731 q 677 624 572 731 q 782 354 782 517 q 677 85 782 192 z "},"p":{"ha":817,"x_min":54,"x_max":794,"o":"m 54 -235 l 54 711 l 271 711 l 271 625 l 275 625 q 490 732 357 732 q 712 626 629 732 q 794 356 794 519 q 710 81 794 183 q 485 -22 625 -22 q 283 74 354 -22 l 281 74 l 281 -235 l 54 -235 m 426 153 q 528 205 492 153 q 565 347 565 257 q 529 496 565 442 q 422 550 493 550 q 313 494 351 550 q 274 347 274 438 q 314 206 274 260 q 426 153 354 153 z "},"q":{"ha":817,"x_min":28,"x_max":763,"o":"m 538 -235 l 538 75 l 533 75 q 336 -22 467 -22 q 114 81 200 -22 q 28 356 28 185 q 111 626 28 521 q 340 732 194 732 q 543 621 472 732 l 547 621 l 547 711 l 763 711 l 763 -235 l 538 -235 m 397 157 q 505 210 465 157 q 544 350 544 263 q 506 497 544 440 q 397 554 468 554 q 292 499 326 554 q 257 350 257 444 q 294 208 257 258 q 397 157 331 157 z "},"r":{"ha":532,"x_min":54,"x_max":514,"o":"m 54 0 l 54 711 l 271 711 l 271 600 l 275 600 q 469 722 347 722 q 514 717 501 722 l 514 522 l 508 522 q 342 485 403 538 q 281 319 281 433 l 281 0 l 54 0 z "},"s":{"ha":700,"x_min":11,"x_max":681,"o":"m 357 -22 q 109 45 201 -22 q 11 231 17 113 l 225 231 q 356 125 238 125 q 437 144 407 125 q 467 196 467 163 q 464 215 467 207 q 454 231 461 224 q 441 243 447 238 q 422 253 435 249 q 401 261 410 258 q 374 267 392 264 q 347 273 357 271 q 317 278 338 275 q 286 283 296 282 q 211 298 242 290 q 144 322 181 306 q 84 360 107 339 q 46 419 61 382 q 31 504 31 456 q 118 672 31 613 q 338 732 206 732 q 568 672 486 732 q 658 504 650 611 l 450 504 q 336 588 439 588 q 265 571 292 588 q 238 522 238 554 q 240 507 238 514 q 249 494 243 500 q 262 485 256 489 q 279 476 268 481 q 299 469 290 472 q 324 464 308 467 q 351 459 340 461 q 379 453 361 457 q 408 449 397 450 q 486 433 456 440 q 558 409 517 426 q 622 369 599 392 q 663 306 646 346 q 681 214 681 267 q 591 39 681 100 q 357 -22 501 -22 z "},"t":{"ha":488,"x_min":15,"x_max":460,"o":"m 336 -8 q 169 35 228 -8 q 110 188 110 79 l 110 569 l 15 569 l 15 711 l 110 711 l 110 936 l 331 936 l 331 711 l 460 711 l 460 569 l 331 569 l 331 236 q 351 182 331 197 q 410 167 371 167 q 439 167 421 167 q 460 168 457 168 l 460 3 q 336 -8 421 -8 z "},"u":{"ha":786,"x_min":49,"x_max":732,"o":"m 299 -21 q 113 51 178 -21 q 49 244 49 122 l 49 711 l 274 711 l 274 292 q 381 171 274 171 q 472 210 439 171 q 506 314 506 250 l 506 711 l 732 711 l 732 0 l 515 0 l 515 88 l 511 88 q 299 -21 431 -21 z "},"v":{"ha":728,"x_min":-4,"x_max":732,"o":"m 242 0 l -4 711 l 229 711 l 326 390 l 365 247 l 368 247 q 407 390 386 319 l 506 711 l 732 711 l 486 0 l 242 0 z "},"w":{"ha":1088,"x_min":-3,"x_max":1089,"o":"m 215 0 l -3 711 l 228 711 l 306 417 l 338 279 l 340 279 q 372 421 357 361 l 447 711 l 639 711 l 717 421 l 750 278 l 753 278 q 786 417 771 360 l 865 711 l 1089 711 l 871 0 l 658 0 l 575 322 l 544 450 l 542 450 q 510 322 525 378 l 425 0 l 215 0 z "},"x":{"ha":778,"x_min":10,"x_max":768,"o":"m 10 0 l 257 374 l 33 711 l 292 711 l 397 528 l 400 528 l 500 711 l 738 711 l 526 376 l 768 0 l 506 0 l 389 213 l 386 213 l 257 0 l 10 0 z "},"y":{"ha":735,"x_min":-4,"x_max":739,"o":"m 78 -235 l 78 -58 l 156 -58 q 249 17 249 -58 q 206 164 249 53 l -4 711 l 235 711 l 331 408 l 375 244 l 378 244 q 419 408 397 339 l 513 711 l 739 711 l 493 -10 q 391 -185 450 -135 q 225 -235 332 -235 l 78 -235 z "},"z":{"ha":701,"x_min":33,"x_max":671,"o":"m 33 0 l 33 168 l 315 472 l 376 535 l 376 539 q 289 538 311 538 l 67 538 l 67 711 l 650 711 l 650 544 l 381 251 l 308 178 l 308 174 q 414 175 382 175 l 671 175 l 671 0 l 33 0 z "},"{":{"ha":553,"x_min":35,"x_max":507,"o":"m 472 -192 q 227 -134 303 -192 q 151 78 151 -76 l 151 242 q 125 319 151 294 q 35 346 99 344 l 35 513 q 125 540 99 515 q 151 617 151 565 l 151 781 q 226 990 151 933 q 472 1047 301 1047 l 507 1047 l 507 874 l 482 874 q 392 856 418 874 q 365 781 365 838 l 365 582 q 344 484 365 517 q 275 432 322 451 l 275 428 q 344 377 322 410 q 365 279 365 344 l 365 76 q 392 1 365 21 q 482 -18 418 -18 l 507 -18 l 507 -192 l 472 -192 z "},"|":{"ha":297,"x_min":81,"x_max":218,"o":"m 81 -192 l 81 1047 l 218 1047 l 218 -192 l 81 -192 z "},"}":{"ha":553,"x_min":47,"x_max":518,"o":"m 47 -192 l 47 -18 l 72 -18 q 163 0 136 -18 q 189 75 189 18 l 189 278 q 210 376 189 343 q 279 426 231 408 l 279 431 q 210 483 231 450 q 189 581 189 515 l 189 779 q 162 854 189 835 q 72 874 135 874 l 47 874 l 47 1047 l 82 1047 q 327 990 251 1047 q 403 779 403 932 l 403 617 q 429 540 403 565 q 518 513 456 515 l 518 346 q 429 318 456 343 q 403 242 403 293 l 403 76 q 327 -134 403 -76 q 82 -192 251 -192 l 47 -192 z "},"~":{"ha":615,"x_min":33,"x_max":592,"o":"m 33 332 q 82 514 33 453 q 207 575 131 575 q 318 546 254 575 q 400 517 376 517 q 450 575 446 517 l 592 575 q 550 401 592 463 q 428 339 508 339 q 314 365 378 339 q 226 394 251 394 q 175 332 181 394 l 33 332 z "}," ":{"ha":215,"x_min":0,"x_max":0,"o":""},"¡":{"ha":367,"x_min":65,"x_max":301,"o":"m 67 -176 l 67 60 l 125 493 l 242 493 l 300 60 l 300 -176 l 67 -176 m 65 583 l 65 817 l 301 817 l 301 583 l 65 583 z "},"¢":{"ha":756,"x_min":22,"x_max":732,"o":"m 349 -149 l 349 -19 q 111 99 200 -4 q 22 354 22 203 q 111 610 22 506 q 349 728 200 714 l 349 825 l 433 825 l 433 729 q 634 644 557 717 q 726 458 711 571 l 515 458 q 433 558 497 538 l 433 150 q 522 269 510 172 l 732 269 q 646 72 726 153 q 433 -21 565 -10 l 433 -149 l 349 -149 m 349 151 l 349 558 q 244 354 244 525 q 349 151 244 185 z "},"£":{"ha":821,"x_min":32,"x_max":803,"o":"m 583 -21 q 426 13 510 -21 q 292 47 342 47 q 144 -14 228 47 l 32 157 q 164 346 164 243 q 157 401 164 371 l 39 401 l 39 531 l 94 531 q 56 675 56 601 q 152 888 56 806 q 424 971 249 971 q 683 893 588 971 q 796 624 792 806 l 571 624 q 428 788 569 788 q 334 755 367 788 q 301 668 301 722 q 346 531 301 619 l 533 531 l 533 401 l 388 401 q 389 379 389 394 q 285 208 389 282 l 288 204 q 388 225 340 225 q 493 208 440 225 q 579 190 546 190 q 707 246 646 190 l 803 64 q 583 -21 706 -21 z "},"¤":{"ha":711,"x_min":19,"x_max":692,"o":"m 136 136 l 19 250 l 108 339 q 74 485 74 404 q 108 629 74 564 l 19 721 l 136 835 l 226 740 q 356 768 285 768 q 483 740 425 768 l 575 835 l 692 721 l 600 629 q 636 485 636 565 q 601 340 636 406 l 692 250 l 575 136 l 483 229 q 356 203 424 203 q 228 229 282 203 l 136 136 m 356 331 q 444 372 413 331 q 475 485 475 414 q 444 598 475 556 q 356 640 413 640 q 265 598 297 640 q 232 485 232 556 q 265 372 232 414 q 356 331 297 331 z "},"¥":{"ha":897,"x_min":1,"x_max":890,"o":"m 333 0 l 333 178 l 99 178 l 99 267 l 333 267 l 333 346 l 99 346 l 99 436 l 297 436 l 1 953 l 261 953 l 388 710 l 447 576 l 450 576 q 511 710 481 649 l 636 953 l 890 953 l 593 436 l 793 436 l 793 346 l 560 346 l 560 267 l 793 267 l 793 178 l 560 178 l 560 0 l 333 0 z "},"¦":{"ha":297,"x_min":81,"x_max":218,"o":"m 81 -192 l 81 340 l 218 340 l 218 -192 l 81 -192 m 81 533 l 81 1047 l 218 1047 l 218 533 l 81 533 z "},"§":{"ha":868,"x_min":40,"x_max":833,"o":"m 454 -251 q 204 -174 296 -251 q 108 38 113 -97 l 315 38 q 351 -49 317 -18 q 444 -79 385 -79 q 519 -56 492 -79 q 547 1 547 -33 q 543 26 547 15 q 528 47 539 38 q 506 65 517 57 q 471 82 494 72 q 430 98 447 92 q 377 117 413 104 q 315 140 342 131 q 106 255 172 196 q 40 413 40 314 q 83 535 40 485 q 204 608 126 586 q 136 760 136 665 q 221 927 136 863 q 439 992 306 992 q 666 922 581 992 q 757 726 751 853 l 561 726 q 449 826 551 826 q 378 808 401 826 q 354 758 354 789 q 356 742 354 750 q 364 727 358 735 q 375 714 369 719 q 393 701 381 708 q 415 690 406 694 q 443 677 424 685 q 475 664 463 669 q 513 649 488 658 q 557 632 539 639 q 663 585 624 604 q 747 535 701 567 q 813 462 792 503 q 833 369 833 421 q 679 176 833 222 q 768 1 768 113 q 682 -185 768 -118 q 454 -251 596 -251 m 549 264 q 621 335 621 282 q 611 367 621 353 q 571 397 601 381 q 522 422 540 414 q 449 451 504 429 q 311 510 351 490 q 246 440 246 493 q 278 390 246 410 q 424 319 311 369 l 549 264 z "},"¨":{"ha":694,"x_min":85,"x_max":610,"o":"m 85 801 l 85 979 l 297 979 l 297 801 l 85 801 m 397 801 l 397 979 l 610 979 l 610 801 l 397 801 z "},"©":{"ha":1135,"x_min":56,"x_max":1079,"o":"m 572 188 q 356 275 439 188 q 274 499 274 363 q 357 723 274 635 q 574 811 440 811 q 749 757 674 811 q 840 586 829 696 l 674 586 q 640 644 667 621 q 572 667 614 667 q 481 620 513 667 q 449 499 449 574 q 483 378 449 425 q 575 331 518 331 q 647 356 619 331 q 679 419 675 381 l 847 419 q 771 257 839 322 q 572 188 700 188 m 568 49 q 872 176 750 49 q 994 493 994 303 q 872 812 994 685 q 568 939 750 939 q 263 812 385 939 q 140 493 140 685 q 263 176 140 303 q 568 49 385 49 m 568 -24 q 203 124 351 -24 q 56 493 56 272 q 204 863 56 714 q 568 1011 353 1011 q 931 863 783 1011 q 1079 493 1079 715 q 931 124 1079 272 q 568 -24 783 -24 z "},"ª":{"ha":708,"x_min":35,"x_max":663,"o":"m 253 314 q 96 364 157 314 q 35 504 35 414 q 98 642 35 600 q 278 700 161 685 q 406 726 374 713 q 438 769 438 739 q 354 835 438 835 q 253 756 261 835 l 63 756 q 141 910 67 849 q 351 971 215 971 q 558 919 490 971 q 640 742 640 863 l 640 426 q 663 338 640 353 l 663 328 l 463 328 q 442 397 447 353 l 439 397 q 253 314 381 314 m 315 442 q 407 472 371 442 q 443 551 443 501 l 443 626 q 339 593 415 611 q 256 563 279 581 q 232 511 232 544 q 315 442 232 442 z "},"«":{"ha":611,"x_min":61,"x_max":540,"o":"m 275 58 l 61 242 l 61 458 l 275 640 l 275 443 l 163 349 l 163 346 l 275 253 l 275 58 m 540 58 l 331 242 l 331 458 l 540 640 l 540 443 l 431 349 l 431 346 l 540 253 l 540 58 z "},"¬":{"ha":728,"x_min":56,"x_max":651,"o":"m 458 186 l 458 415 l 56 415 l 56 597 l 651 597 l 651 186 l 458 186 z "},"­":{"ha":465,"x_min":44,"x_max":422,"o":"m 44 251 l 44 446 l 422 446 l 422 251 l 44 251 z "},"®":{"ha":738,"x_min":36,"x_max":701,"o":"m 222 500 l 222 856 l 397 856 q 493 828 454 856 q 532 750 532 800 q 472 665 532 686 l 472 663 q 524 601 513 650 q 528 561 526 585 q 532 524 529 538 q 540 508 535 511 l 540 500 l 438 500 q 431 515 433 503 q 426 549 428 526 q 422 582 424 571 q 371 625 417 625 l 328 625 l 328 500 l 222 500 m 328 699 l 381 699 q 428 736 428 699 q 381 774 428 774 l 328 774 l 328 699 m 177 473 q 216 433 177 473 q 369 393 254 393 q 561 473 485 393 q 638 675 638 553 q 561 876 638 796 q 369 956 485 956 q 177 876 254 956 q 100 675 100 796 q 177 473 100 553 m 606 435 q 558 387 606 435 q 369 339 510 339 q 133 435 229 339 q 36 675 36 531 q 133 915 36 819 q 369 1011 229 1011 q 606 915 510 1011 q 701 675 701 819 q 606 435 701 531 z "},"¯":{"ha":694,"x_min":153,"x_max":550,"o":"m 153 815 l 153 956 l 550 956 l 550 815 l 153 815 z "},"°":{"ha":521,"x_min":44,"x_max":478,"o":"m 192 692 q 205 678 192 692 q 261 664 218 664 q 330 692 304 664 q 356 763 356 721 q 329 834 356 804 q 261 864 303 864 q 192 834 218 864 q 167 763 167 804 q 192 692 167 721 m 414 615 q 382 585 414 615 q 261 556 350 556 q 108 615 172 556 q 44 763 44 675 q 108 911 44 850 q 261 972 172 972 q 413 911 349 972 q 478 763 478 850 q 414 615 478 675 z "},"±":{"ha":786,"x_min":56,"x_max":731,"o":"m 299 233 l 299 429 l 56 429 l 56 610 l 299 610 l 299 804 l 488 804 l 488 610 l 731 610 l 731 429 l 488 429 l 488 233 l 299 233 m 56 0 l 56 172 l 731 172 l 731 0 l 56 0 z "},"²":{"ha":553,"x_min":38,"x_max":504,"o":"m 38 400 q 140 603 39 524 q 230 666 174 631 q 303 714 286 701 q 340 779 340 744 q 278 838 340 838 q 220 813 242 838 q 199 742 199 788 l 46 742 q 110 905 46 847 q 283 963 175 963 q 444 911 386 963 q 503 785 503 860 q 429 636 503 692 q 342 580 401 614 q 265 528 282 546 l 265 526 l 504 526 l 504 400 l 38 400 z "},"³":{"ha":558,"x_min":32,"x_max":517,"o":"m 283 388 q 98 442 163 388 q 32 588 33 496 l 189 588 q 275 504 193 504 q 349 569 349 504 q 263 632 349 632 l 229 632 l 229 738 l 257 738 q 338 794 338 738 q 275 849 338 849 q 201 779 207 849 l 49 779 q 113 911 51 860 q 281 963 175 963 q 439 920 378 963 q 500 804 500 878 q 419 697 500 733 l 419 696 q 517 561 517 660 q 451 431 517 475 q 283 388 386 388 z "},"´":{"ha":694,"x_min":238,"x_max":578,"o":"m 238 794 l 317 1000 l 578 1000 l 410 794 l 238 794 z "},"µ":{"ha":792,"x_min":54,"x_max":738,"o":"m 54 -235 l 54 711 l 279 711 l 279 290 q 386 169 279 169 q 478 208 444 169 q 511 313 511 247 l 511 711 l 738 711 l 738 0 l 521 0 l 521 88 l 517 88 q 349 -18 453 -18 q 279 3 308 -18 l 276 3 l 276 -235 l 54 -235 z "},"¶":{"ha":838,"x_min":38,"x_max":763,"o":"m 386 0 l 386 465 l 300 465 q 109 538 181 465 q 38 725 38 610 q 117 924 38 849 q 328 993 193 993 l 763 993 l 763 0 l 619 0 l 619 860 l 531 860 l 531 0 l 386 0 z "},"·":{"ha":326,"x_min":44,"x_max":282,"o":"m 44 325 l 44 558 l 282 558 l 282 325 l 44 325 z "},"¸":{"ha":694,"x_min":160,"x_max":489,"o":"m 315 -268 q 160 -228 226 -268 l 188 -179 q 283 -200 232 -200 q 358 -160 358 -200 q 306 -122 358 -122 q 257 -132 283 -122 l 233 -99 l 332 0 l 419 0 l 342 -65 l 342 -68 q 447 -85 404 -61 q 489 -161 489 -110 q 440 -239 489 -210 q 315 -268 392 -268 z "},"¹":{"ha":388,"x_min":35,"x_max":329,"o":"m 161 400 l 161 725 l 35 725 l 35 838 q 196 957 174 844 l 329 957 l 329 400 l 161 400 z "},"º":{"ha":724,"x_min":25,"x_max":699,"o":"m 266 503 q 282 478 266 503 q 361 453 299 453 q 457 503 424 453 q 490 640 490 554 q 457 776 490 725 q 361 828 424 828 q 267 776 300 828 q 233 640 233 725 q 266 503 233 554 m 363 310 q 118 403 211 310 q 25 640 25 497 q 118 877 25 783 q 363 971 211 971 q 606 877 513 971 q 699 640 699 783 q 606 403 699 497 q 363 310 513 310 z "},"»":{"ha":611,"x_min":71,"x_max":550,"o":"m 71 58 l 71 256 l 181 350 l 181 353 l 71 446 l 71 640 l 281 457 l 281 240 l 71 58 m 336 58 l 336 256 l 449 350 l 449 353 l 336 446 l 336 640 l 550 457 l 550 240 l 336 58 z "},"¼":{"ha":1133,"x_min":32,"x_max":1097,"o":"m 854 558 l 1017 558 l 1017 231 l 1097 231 l 1097 115 l 1017 115 l 1017 0 l 854 0 l 854 115 l 589 115 l 589 247 l 854 558 m 854 400 l 853 400 l 710 232 l 710 231 l 854 231 l 854 400 m 158 442 l 158 767 l 32 767 l 32 879 q 193 999 171 886 l 326 999 l 326 442 l 158 442 m 106 0 l 861 993 l 1003 993 l 246 0 l 106 0 z "},"½":{"ha":1182,"x_min":32,"x_max":1132,"o":"m 665 0 q 768 203 667 124 q 855 264 799 229 q 925 308 911 299 q 971 379 971 342 q 907 438 971 438 q 848 413 869 438 q 826 342 826 388 l 674 342 q 738 505 674 447 q 911 563 803 563 q 1072 512 1014 563 q 1131 388 1131 461 q 1056 238 1131 299 q 968 180 1028 214 q 890 128 908 146 l 890 126 l 1132 126 l 1132 0 l 665 0 m 158 442 l 158 767 l 32 767 l 32 879 q 193 999 171 886 l 326 999 l 326 442 l 158 442 m 97 0 l 853 993 l 994 993 l 238 0 l 97 0 z "},"¾":{"ha":1226,"x_min":33,"x_max":1192,"o":"m 283 429 q 98 483 161 429 q 33 629 35 538 l 190 629 q 276 546 194 546 q 332 563 313 546 q 351 610 351 581 q 264 674 351 674 l 232 674 l 232 779 l 260 779 q 340 836 340 779 q 324 876 340 861 q 276 890 307 890 q 203 821 208 890 l 50 821 q 115 953 53 901 q 283 1004 176 1004 q 440 962 381 1004 q 500 846 500 919 q 419 739 500 775 l 419 738 q 517 603 517 701 q 451 473 517 517 q 283 429 386 429 m 949 558 l 1111 558 l 1111 231 l 1192 231 l 1192 115 l 1111 115 l 1111 0 l 949 0 l 949 115 l 683 115 l 683 247 l 949 558 m 949 400 l 947 400 l 804 232 l 804 231 l 949 231 l 949 400 m 213 0 l 968 993 l 1110 993 l 353 0 l 213 0 z "},"¿":{"ha":760,"x_min":24,"x_max":743,"o":"m 371 -194 q 119 -116 215 -194 q 24 90 24 -37 q 46 197 24 150 q 92 267 68 244 q 156 315 117 289 q 271 397 254 378 q 297 493 297 431 l 499 493 q 478 351 499 394 q 403 260 458 308 q 343 216 388 246 q 281 161 299 186 q 263 97 263 136 q 296 22 263 50 q 381 -7 329 -7 q 481 32 443 -7 q 521 138 519 71 l 743 138 q 641 -103 740 -12 q 371 -194 542 -194 m 283 583 l 283 817 l 519 817 l 519 583 l 283 583 z "},"À":{"ha":968,"x_min":-1,"x_max":967,"o":"m -1 0 l 356 993 l 608 993 l 967 0 l 708 0 l 650 179 l 303 179 l 246 0 l -1 0 m 360 356 l 593 356 l 518 596 l 479 736 l 476 736 q 436 596 453 647 l 360 356 m 410 1042 l 263 1222 l 522 1222 l 582 1042 l 410 1042 z "},"Á":{"ha":968,"x_min":-1,"x_max":967,"o":"m -1 0 l 356 993 l 608 993 l 967 0 l 708 0 l 650 179 l 303 179 l 246 0 l -1 0 m 360 356 l 593 356 l 518 596 l 479 736 l 476 736 q 436 596 453 647 l 360 356 m 390 1042 l 450 1222 l 710 1222 l 563 1042 l 390 1042 z "},"Â":{"ha":968,"x_min":-1,"x_max":967,"o":"m -1 0 l 356 993 l 608 993 l 967 0 l 708 0 l 650 179 l 303 179 l 246 0 l -1 0 m 360 356 l 593 356 l 518 596 l 479 736 l 476 736 q 436 596 453 647 l 360 356 m 225 1042 l 374 1215 l 590 1215 l 739 1042 l 549 1042 l 486 1117 l 483 1117 l 419 1042 l 225 1042 z "},"Ã":{"ha":968,"x_min":-1,"x_max":967,"o":"m -1 0 l 356 993 l 608 993 l 967 0 l 708 0 l 650 179 l 303 179 l 246 0 l -1 0 m 360 356 l 593 356 l 518 596 l 479 736 l 476 736 q 436 596 453 647 l 360 356 m 396 1042 q 396 1124 385 1094 q 432 1158 407 1154 l 439 1163 q 492 1211 449 1192 q 567 1231 536 1231 q 572 1153 579 1185 q 535 1115 564 1121 q 524 1110 529 1110 q 472 1062 515 1082 q 396 1042 428 1042 m 465 1122 q 465 1125 471 1122 l 463 1126 q 465 1122 463 1125 m 500 1151 q 503 1147 494 1151 q 500 1151 500 1150 z "},"Ä":{"ha":968,"x_min":-1,"x_max":967,"o":"m -1 0 l 356 993 l 608 993 l 967 0 l 708 0 l 650 179 l 303 179 l 246 0 l -1 0 m 360 356 l 593 356 l 518 596 l 479 736 l 476 736 q 436 596 453 647 l 360 356 m 226 1046 l 226 1224 l 439 1224 l 439 1046 l 226 1046 m 525 1046 l 525 1224 l 738 1224 l 738 1046 l 525 1046 z "},"Å":{"ha":968,"x_min":-1,"x_max":967,"o":"m -1 0 l 356 993 l 608 993 l 967 0 l 708 0 l 650 179 l 303 179 l 246 0 l -1 0 m 360 356 l 593 356 l 518 596 l 479 736 l 476 736 q 436 596 453 647 l 360 356 m 441 1120 q 449 1111 441 1120 q 482 1103 457 1103 q 524 1120 507 1103 q 540 1163 540 1138 q 524 1205 540 1188 q 482 1222 507 1222 q 441 1205 457 1222 q 425 1163 425 1188 q 441 1120 425 1138 m 582 1065 q 561 1046 582 1065 q 482 1026 540 1026 q 382 1066 424 1026 q 340 1163 340 1106 q 382 1259 340 1219 q 482 1299 424 1299 q 582 1259 540 1299 q 624 1163 624 1219 q 582 1065 624 1104 z "},"Æ":{"ha":1382,"x_min":-1,"x_max":1342,"o":"m -1 0 l 335 993 l 1326 993 l 1326 789 l 847 789 l 847 610 l 1254 610 l 1254 419 l 847 419 l 847 215 l 1342 215 l 1342 0 l 599 0 l 599 175 l 299 175 l 242 0 l -1 0 m 354 346 l 599 346 l 599 789 l 497 789 l 354 346 z "},"Ç":{"ha":975,"x_min":28,"x_max":956,"o":"m 472 -268 q 317 -228 383 -268 l 344 -179 q 440 -200 389 -200 q 515 -160 515 -200 q 463 -122 515 -122 q 414 -132 440 -122 l 390 -99 l 468 -19 q 149 140 271 -3 q 28 493 28 282 q 163 865 28 718 q 517 1013 297 1013 q 800 925 686 1013 q 949 651 929 828 l 703 651 q 643 764 693 719 q 515 808 593 808 q 338 722 399 808 q 278 493 278 635 q 343 267 278 354 q 517 179 408 179 q 649 225 597 179 q 710 344 701 271 l 956 344 q 836 90 944 194 q 550 -21 729 -12 l 499 -65 l 499 -68 q 603 -85 561 -61 q 646 -161 646 -110 q 597 -239 646 -210 q 472 -268 549 -268 z "},"È":{"ha":872,"x_min":68,"x_max":829,"o":"m 385 1042 l 238 1222 l 497 1222 l 557 1042 l 385 1042 m 68 0 l 68 993 l 821 993 l 821 790 l 314 790 l 314 613 l 749 613 l 749 421 l 314 421 l 314 208 l 829 208 l 829 0 l 68 0 z "},"É":{"ha":872,"x_min":68,"x_max":829,"o":"m 365 1042 l 425 1222 l 685 1222 l 538 1042 l 365 1042 m 68 0 l 68 993 l 821 993 l 821 790 l 314 790 l 314 613 l 749 613 l 749 421 l 314 421 l 314 208 l 829 208 l 829 0 l 68 0 z "},"Ê":{"ha":872,"x_min":68,"x_max":829,"o":"m 68 0 l 68 993 l 821 993 l 821 790 l 314 790 l 314 613 l 749 613 l 749 421 l 314 421 l 314 208 l 829 208 l 829 0 l 68 0 m 200 1042 l 349 1215 l 565 1215 l 714 1042 l 524 1042 l 461 1117 l 458 1117 l 394 1042 l 200 1042 z "},"Ë":{"ha":872,"x_min":68,"x_max":829,"o":"m 201 1046 l 201 1224 l 414 1224 l 414 1046 l 201 1046 m 500 1046 l 500 1224 l 713 1224 l 713 1046 l 500 1046 m 68 0 l 68 993 l 821 993 l 821 790 l 314 790 l 314 613 l 749 613 l 749 421 l 314 421 l 314 208 l 829 208 l 829 0 l 68 0 z "},"Ì":{"ha":383,"x_min":-28,"x_max":315,"o":"m 69 0 l 69 993 l 315 993 l 315 0 l 69 0 m 119 1042 l -28 1222 l 232 1222 l 292 1042 l 119 1042 z "},"Í":{"ha":383,"x_min":69,"x_max":419,"o":"m 69 0 l 69 993 l 315 993 l 315 0 l 69 0 m 100 1042 l 160 1222 l 419 1222 l 272 1042 l 100 1042 z "},"Î":{"ha":383,"x_min":-65,"x_max":449,"o":"m 69 0 l 69 993 l 315 993 l 315 0 l 69 0 m -65 1042 l 83 1215 l 300 1215 l 449 1042 l 258 1042 l 196 1117 l 193 1117 l 129 1042 l -65 1042 z "},"Ï":{"ha":383,"x_min":-64,"x_max":447,"o":"m 69 0 l 69 993 l 315 993 l 315 0 l 69 0 m -64 1046 l -64 1224 l 149 1224 l 149 1046 l -64 1046 m 235 1046 l 235 1224 l 447 1224 l 447 1046 l 235 1046 z "},"Ð":{"ha":992,"x_min":4,"x_max":964,"o":"m 326 207 l 471 207 q 653 280 590 207 q 715 490 715 353 q 651 708 715 628 q 474 788 588 788 l 326 788 l 326 601 l 543 601 l 543 411 l 326 411 l 326 207 m 81 0 l 81 411 l 4 411 l 4 601 l 81 601 l 81 993 l 504 993 q 838 856 711 993 q 964 490 964 718 q 818 113 964 243 q 489 0 694 0 l 81 0 z "},"Ñ":{"ha":986,"x_min":68,"x_max":918,"o":"m 68 0 l 68 993 l 315 993 l 610 494 l 678 368 l 681 368 q 678 522 678 488 l 678 993 l 918 993 l 918 0 l 671 0 l 379 492 l 308 625 l 306 625 q 308 463 308 497 l 308 0 l 68 0 m 417 1042 q 417 1124 406 1094 q 453 1158 428 1154 l 460 1163 q 513 1211 469 1192 q 588 1231 557 1231 q 592 1153 600 1185 q 556 1115 585 1121 q 544 1110 550 1110 q 492 1062 536 1082 q 417 1042 449 1042 m 486 1122 q 486 1125 492 1122 l 483 1126 q 486 1122 483 1125 m 521 1151 q 524 1147 515 1151 q 521 1151 521 1150 z "},"Ò":{"ha":1038,"x_min":28,"x_max":1010,"o":"m 446 1042 l 299 1222 l 558 1222 l 618 1042 l 446 1042 m 519 176 q 698 265 636 176 q 760 494 760 353 q 698 725 760 636 q 519 814 636 814 q 341 725 404 814 q 278 494 278 636 q 341 265 278 354 q 519 176 404 176 m 875 122 q 808 49 875 122 q 518 -24 740 -24 q 162 122 296 -24 q 28 494 28 268 q 162 867 28 721 q 518 1013 296 1013 q 875 867 740 1013 q 1010 494 1010 721 q 875 122 1010 268 z "},"Ó":{"ha":1038,"x_min":28,"x_max":1010,"o":"m 426 1042 l 486 1222 l 746 1222 l 599 1042 l 426 1042 m 519 176 q 698 265 636 176 q 760 494 760 353 q 698 725 760 636 q 519 814 636 814 q 341 725 404 814 q 278 494 278 636 q 341 265 278 354 q 519 176 404 176 m 875 122 q 808 49 875 122 q 518 -24 740 -24 q 162 122 296 -24 q 28 494 28 268 q 162 867 28 721 q 518 1013 296 1013 q 875 867 740 1013 q 1010 494 1010 721 q 875 122 1010 268 z "},"Ô":{"ha":1038,"x_min":28,"x_max":1010,"o":"m 519 176 q 698 265 636 176 q 760 494 760 353 q 698 725 760 636 q 519 814 636 814 q 341 725 404 814 q 278 494 278 636 q 341 265 278 354 q 519 176 404 176 m 875 122 q 808 49 875 122 q 518 -24 740 -24 q 162 122 296 -24 q 28 494 28 268 q 162 867 28 721 q 518 1013 296 1013 q 875 867 740 1013 q 1010 494 1010 721 q 875 122 1010 268 m 261 1042 l 410 1215 l 626 1215 l 775 1042 l 585 1042 l 522 1117 l 519 1117 l 456 1042 l 261 1042 z "},"Õ":{"ha":1038,"x_min":28,"x_max":1010,"o":"m 875 122 q 808 49 875 122 q 518 -24 740 -24 q 162 122 296 -24 q 28 494 28 268 q 162 867 28 721 q 518 1013 296 1013 q 875 867 740 1013 q 1010 494 1010 721 q 875 122 1010 268 m 519 176 q 698 265 636 176 q 760 494 760 353 q 698 725 760 636 q 519 814 636 814 q 341 725 404 814 q 278 494 278 636 q 341 265 278 354 q 519 176 404 176 m 432 1042 q 432 1124 421 1094 q 468 1158 443 1154 l 475 1163 q 528 1211 485 1192 q 603 1231 572 1231 q 608 1153 615 1185 q 571 1115 600 1121 q 560 1110 565 1110 q 508 1062 551 1082 q 432 1042 464 1042 m 501 1122 q 501 1125 507 1122 l 499 1126 q 501 1122 499 1125 m 536 1151 q 539 1147 531 1151 q 536 1151 536 1150 z "},"Ö":{"ha":1038,"x_min":28,"x_max":1010,"o":"m 263 1046 l 263 1224 l 475 1224 l 475 1046 l 263 1046 m 561 1046 l 561 1224 l 774 1224 l 774 1046 l 561 1046 m 519 176 q 698 265 636 176 q 760 494 760 353 q 698 725 760 636 q 519 814 636 814 q 341 725 404 814 q 278 494 278 636 q 341 265 278 354 q 519 176 404 176 m 875 122 q 808 49 875 122 q 518 -24 740 -24 q 162 122 296 -24 q 28 494 28 268 q 162 867 28 721 q 518 1013 296 1013 q 875 867 740 1013 q 1010 494 1010 721 q 875 122 1010 268 z "},"×":{"ha":786,"x_min":54,"x_max":724,"o":"m 183 114 l 54 238 l 265 453 l 56 668 l 185 790 l 389 581 l 596 790 l 724 668 l 514 453 l 724 239 l 596 115 l 390 326 l 183 114 z "},"Ø":{"ha":1038,"x_min":28,"x_max":1010,"o":"m 107 -49 l 31 21 l 142 146 q 28 494 28 286 q 162 867 28 721 q 518 1013 296 1013 q 824 913 697 1013 l 929 1031 l 1007 963 l 897 840 q 1010 494 1010 700 q 875 122 1010 268 q 518 -24 740 -24 q 215 74 343 -24 l 107 -49 m 306 329 l 678 749 q 519 814 615 814 q 341 725 404 814 q 278 494 278 636 q 306 329 278 399 m 519 176 q 698 265 636 176 q 760 494 760 353 q 733 656 760 586 l 363 239 q 519 176 422 176 z "},"Ù":{"ha":953,"x_min":61,"x_max":892,"o":"m 403 1042 l 256 1222 l 515 1222 l 575 1042 l 403 1042 m 478 -18 q 167 78 272 -18 q 61 350 61 174 l 61 993 l 307 993 l 307 342 q 478 179 307 179 q 603 224 560 179 q 646 346 646 269 l 646 993 l 892 993 l 892 350 q 787 78 892 175 q 478 -18 682 -18 z "},"Ú":{"ha":953,"x_min":61,"x_max":892,"o":"m 383 1042 l 443 1222 l 703 1222 l 556 1042 l 383 1042 m 478 -18 q 167 78 272 -18 q 61 350 61 174 l 61 993 l 307 993 l 307 342 q 478 179 307 179 q 603 224 560 179 q 646 346 646 269 l 646 993 l 892 993 l 892 350 q 787 78 892 175 q 478 -18 682 -18 z "},"Û":{"ha":953,"x_min":61,"x_max":892,"o":"m 478 -18 q 167 78 272 -18 q 61 350 61 174 l 61 993 l 307 993 l 307 342 q 478 179 307 179 q 603 224 560 179 q 646 346 646 269 l 646 993 l 892 993 l 892 350 q 787 78 892 175 q 478 -18 682 -18 m 218 1042 l 367 1215 l 583 1215 l 732 1042 l 542 1042 l 479 1117 l 476 1117 l 413 1042 l 218 1042 z "},"Ü":{"ha":953,"x_min":61,"x_max":892,"o":"m 219 1046 l 219 1224 l 432 1224 l 432 1046 l 219 1046 m 518 1046 l 518 1224 l 731 1224 l 731 1046 l 518 1046 m 478 -18 q 167 78 272 -18 q 61 350 61 174 l 61 993 l 307 993 l 307 342 q 478 179 307 179 q 603 224 560 179 q 646 346 646 269 l 646 993 l 892 993 l 892 350 q 787 78 892 175 q 478 -18 682 -18 z "},"Ý":{"ha":921,"x_min":1,"x_max":919,"o":"m 338 0 l 338 367 l 1 993 l 269 993 l 397 736 l 463 585 l 465 585 q 533 736 500 668 l 660 993 l 919 993 l 583 367 l 583 0 l 338 0 m 371 1042 l 431 1222 l 690 1222 l 543 1042 l 371 1042 z "},"Þ":{"ha":903,"x_min":68,"x_max":886,"o":"m 68 0 l 68 993 l 318 993 l 318 856 l 515 856 q 786 763 693 854 q 886 518 886 669 q 794 284 886 375 q 550 193 701 193 l 318 193 l 318 0 l 68 0 m 318 388 l 500 388 q 602 424 565 388 q 639 519 639 460 q 602 613 639 579 q 500 647 565 647 l 318 647 l 318 388 z "},"ß":{"ha":800,"x_min":54,"x_max":778,"o":"m 460 -12 q 354 1 397 -12 l 354 165 q 503 196 451 154 q 554 331 554 238 q 394 493 554 493 l 357 493 l 357 622 l 386 622 q 515 735 515 626 q 486 813 515 783 q 406 842 457 842 q 315 807 349 842 q 281 708 281 772 l 281 0 l 54 0 l 54 714 q 147 933 54 853 q 401 1013 240 1013 q 638 942 550 1013 q 726 751 726 871 q 604 572 726 622 l 604 568 q 733 474 688 542 q 778 311 778 407 q 690 72 778 156 q 460 -12 603 -12 z "},"à":{"ha":751,"x_min":21,"x_max":721,"o":"m 264 -18 q 88 39 154 -18 q 21 199 21 96 q 93 356 21 307 q 293 422 165 406 q 435 451 397 435 q 474 501 474 467 q 376 578 474 578 q 261 486 272 578 l 53 486 q 140 661 57 592 q 375 731 222 731 q 606 672 528 731 q 696 469 696 607 l 696 111 q 721 10 696 26 l 721 0 l 501 0 q 478 79 488 19 l 475 79 q 264 -18 407 -18 m 336 126 q 440 162 400 126 q 479 254 479 197 l 479 339 q 363 301 446 322 q 267 265 294 286 q 239 206 239 244 q 336 126 239 126 m 310 794 l 142 1000 l 403 1000 l 482 794 l 310 794 z "},"á":{"ha":751,"x_min":21,"x_max":721,"o":"m 264 -18 q 88 39 154 -18 q 21 199 21 96 q 93 356 21 307 q 293 422 165 406 q 435 451 397 435 q 474 501 474 467 q 376 578 474 578 q 261 486 272 578 l 53 486 q 140 661 57 592 q 375 731 222 731 q 606 672 528 731 q 696 469 696 607 l 696 111 q 721 10 696 26 l 721 0 l 501 0 q 478 79 488 19 l 475 79 q 264 -18 407 -18 m 336 126 q 440 162 400 126 q 479 254 479 197 l 479 339 q 363 301 446 322 q 267 265 294 286 q 239 206 239 244 q 336 126 239 126 m 290 794 l 369 1000 l 631 1000 l 463 794 l 290 794 z "},"â":{"ha":751,"x_min":21,"x_max":721,"o":"m 264 -18 q 88 39 154 -18 q 21 199 21 96 q 93 356 21 307 q 293 422 165 406 q 435 451 397 435 q 474 501 474 467 q 376 578 474 578 q 261 486 272 578 l 53 486 q 140 661 57 592 q 375 731 222 731 q 606 672 528 731 q 696 469 696 607 l 696 111 q 721 10 696 26 l 721 0 l 501 0 q 478 79 488 19 l 475 79 q 264 -18 407 -18 m 336 126 q 440 162 400 126 q 479 254 479 197 l 479 339 q 363 301 446 322 q 267 265 294 286 q 239 206 239 244 q 336 126 239 126 m 125 797 l 274 988 l 490 988 l 639 797 l 449 797 l 386 889 l 383 889 l 319 797 l 125 797 z "},"ã":{"ha":751,"x_min":21,"x_max":721,"o":"m 264 -18 q 88 39 154 -18 q 21 199 21 96 q 93 356 21 307 q 293 422 165 406 q 435 451 397 435 q 474 501 474 467 q 376 578 474 578 q 261 486 272 578 l 53 486 q 140 661 57 592 q 375 731 222 731 q 606 672 528 731 q 696 469 696 607 l 696 111 q 721 10 696 26 l 721 0 l 501 0 q 478 79 488 19 l 475 79 q 264 -18 407 -18 m 336 126 q 440 162 400 126 q 479 254 479 197 l 479 339 q 363 301 446 322 q 267 265 294 286 q 239 206 239 244 q 336 126 239 126 m 151 793 q 192 932 151 883 q 294 981 232 981 q 386 954 339 981 q 454 929 436 929 q 496 978 489 929 l 613 978 q 576 844 613 894 q 474 794 540 794 q 382 817 435 794 q 310 843 325 843 q 268 793 275 843 l 151 793 z "},"ä":{"ha":751,"x_min":21,"x_max":721,"o":"m 264 -18 q 88 39 154 -18 q 21 199 21 96 q 93 356 21 307 q 293 422 165 406 q 435 451 397 435 q 474 501 474 467 q 376 578 474 578 q 261 486 272 578 l 53 486 q 140 661 57 592 q 375 731 222 731 q 606 672 528 731 q 696 469 696 607 l 696 111 q 721 10 696 26 l 721 0 l 501 0 q 478 79 488 19 l 475 79 q 264 -18 407 -18 m 336 126 q 440 162 400 126 q 479 254 479 197 l 479 339 q 363 301 446 322 q 267 265 294 286 q 239 206 239 244 q 336 126 239 126 m 119 801 l 119 979 l 332 979 l 332 801 l 119 801 m 432 801 l 432 979 l 644 979 l 644 801 l 432 801 z "},"å":{"ha":751,"x_min":21,"x_max":721,"o":"m 264 -18 q 88 39 154 -18 q 21 199 21 96 q 93 356 21 307 q 293 422 165 406 q 435 451 397 435 q 474 501 474 467 q 376 578 474 578 q 261 486 272 578 l 53 486 q 140 661 57 592 q 375 731 222 731 q 606 672 528 731 q 696 469 696 607 l 696 111 q 721 10 696 26 l 721 0 l 501 0 q 478 79 488 19 l 475 79 q 264 -18 407 -18 m 336 126 q 440 162 400 126 q 479 254 479 197 l 479 339 q 363 301 446 322 q 267 265 294 286 q 239 206 239 244 q 336 126 239 126 m 341 869 q 349 861 341 869 q 382 853 357 853 q 424 869 407 853 q 440 911 440 886 q 424 953 440 936 q 382 971 407 971 q 341 953 357 971 q 325 911 325 936 q 341 869 325 886 m 482 815 q 461 795 482 815 q 382 775 440 775 q 282 815 324 775 q 240 911 240 854 q 282 1008 240 968 q 382 1049 324 1049 q 482 1008 440 1049 q 524 911 524 968 q 482 815 524 854 z "},"æ":{"ha":1229,"x_min":21,"x_max":1208,"o":"m 292 -19 q 94 38 168 -19 q 21 199 21 94 q 92 356 21 307 q 294 422 164 404 q 442 451 404 436 q 479 501 479 467 q 379 578 479 578 q 261 486 269 578 l 53 486 q 140 661 57 592 q 378 731 224 731 q 615 656 546 731 q 838 732 704 732 q 1069 654 976 732 q 1206 297 1208 539 l 694 297 q 856 142 719 142 q 974 213 940 142 l 1193 213 q 1081 50 1171 117 q 851 -21 989 -21 q 578 93 678 -21 q 458 7 522 33 q 292 -19 393 -19 m 336 126 q 443 162 401 126 q 485 254 485 197 l 485 339 q 364 301 453 322 q 265 266 293 286 q 236 206 236 246 q 336 126 236 126 m 842 571 q 696 432 721 571 l 976 432 q 933 533 969 496 q 842 571 897 571 z "},"ç":{"ha":756,"x_min":22,"x_max":738,"o":"m 357 -268 q 201 -228 268 -268 l 229 -179 q 325 -200 274 -200 q 400 -160 400 -200 q 347 -122 400 -122 q 299 -132 325 -122 l 275 -99 l 354 -19 q 113 99 204 -6 q 22 354 22 203 q 125 624 22 517 q 394 731 228 731 q 626 656 536 731 q 732 458 717 581 l 514 458 q 397 564 490 564 q 288 508 325 564 q 251 354 251 453 q 289 202 251 257 q 397 147 326 147 q 521 269 506 147 l 738 269 q 651 71 733 151 q 436 -21 569 -10 l 383 -65 l 383 -68 q 488 -85 446 -61 q 531 -161 531 -110 q 482 -239 531 -210 q 357 -268 433 -268 z "},"è":{"ha":778,"x_min":22,"x_max":758,"o":"m 401 -21 q 126 85 229 -21 q 22 357 22 192 q 124 625 22 518 q 388 732 226 732 q 631 643 533 732 q 756 297 758 526 l 244 297 q 296 183 256 224 q 404 142 336 142 q 522 213 492 142 l 743 213 q 624 44 718 110 q 401 -21 531 -21 m 246 432 l 526 432 q 484 533 521 496 q 392 571 447 571 q 246 432 271 571 m 317 794 l 149 1000 l 410 1000 l 489 794 l 317 794 z "},"é":{"ha":778,"x_min":22,"x_max":758,"o":"m 297 794 l 376 1000 l 638 1000 l 469 794 l 297 794 m 401 -21 q 126 85 229 -21 q 22 357 22 192 q 124 625 22 518 q 388 732 226 732 q 631 643 533 732 q 756 297 758 526 l 244 297 q 296 183 256 224 q 404 142 336 142 q 522 213 492 142 l 743 213 q 624 44 718 110 q 401 -21 531 -21 m 246 432 l 526 432 q 484 533 521 496 q 392 571 447 571 q 246 432 271 571 z "},"ê":{"ha":778,"x_min":22,"x_max":758,"o":"m 132 797 l 281 988 l 497 988 l 646 797 l 456 797 l 393 889 l 390 889 l 326 797 l 132 797 m 401 -21 q 126 85 229 -21 q 22 357 22 192 q 124 625 22 518 q 388 732 226 732 q 631 643 533 732 q 756 297 758 526 l 244 297 q 296 183 256 224 q 404 142 336 142 q 522 213 492 142 l 743 213 q 624 44 718 110 q 401 -21 531 -21 m 246 432 l 526 432 q 484 533 521 496 q 392 571 447 571 q 246 432 271 571 z "},"ë":{"ha":778,"x_min":22,"x_max":758,"o":"m 126 801 l 126 979 l 339 979 l 339 801 l 126 801 m 439 801 l 439 979 l 651 979 l 651 801 l 439 801 m 401 -21 q 126 85 229 -21 q 22 357 22 192 q 124 625 22 518 q 388 732 226 732 q 631 643 533 732 q 756 297 758 526 l 244 297 q 296 183 256 224 q 404 142 336 142 q 522 213 492 142 l 743 213 q 624 44 718 110 q 401 -21 531 -21 m 246 432 l 526 432 q 484 533 521 496 q 392 571 447 571 q 246 432 271 571 z "},"ì":{"ha":335,"x_min":-72,"x_max":281,"o":"m 54 0 l 54 711 l 281 711 l 281 0 l 54 0 m 96 794 l -72 1000 l 189 1000 l 268 794 l 96 794 z "},"í":{"ha":335,"x_min":54,"x_max":417,"o":"m 76 794 l 156 1000 l 417 1000 l 249 794 l 76 794 m 54 0 l 54 711 l 281 711 l 281 0 l 54 0 z "},"î":{"ha":335,"x_min":-58,"x_max":392,"o":"m 54 0 l 54 711 l 281 711 l 281 0 l 54 0 m -58 797 l 54 988 l 282 988 l 392 797 l 213 797 l 171 883 l 168 883 l 125 797 l -58 797 z "},"ï":{"ha":335,"x_min":-40,"x_max":375,"o":"m -40 801 l -40 979 l 132 979 l 132 801 l -40 801 m 204 801 l 204 979 l 375 979 l 375 801 l 204 801 m 54 711 l 281 711 l 281 0 l 54 0 l 54 711 z "},"ð":{"ha":804,"x_min":22,"x_max":778,"o":"m 199 743 l 167 817 l 318 867 q 153 993 254 921 l 436 993 q 519 933 482 963 l 656 978 l 689 904 l 586 871 q 778 385 778 672 q 742 184 778 272 q 620 37 707 96 q 403 -22 533 -22 q 127 84 232 -22 q 22 354 22 190 q 112 616 22 515 q 350 717 201 717 q 496 658 435 717 l 499 658 q 385 804 456 732 l 199 743 m 290 197 q 310 168 290 197 q 401 139 329 139 q 513 197 474 139 q 553 353 553 254 q 513 508 553 451 q 401 565 474 565 q 290 508 329 565 q 251 353 251 451 q 290 197 251 254 z "},"ñ":{"ha":792,"x_min":54,"x_max":743,"o":"m 54 0 l 54 711 l 272 711 l 272 614 l 276 614 q 496 732 358 732 q 677 658 611 732 q 743 463 743 583 l 743 0 l 517 0 l 517 417 q 488 509 517 475 q 406 543 460 543 q 315 501 350 543 q 281 393 281 460 l 281 0 l 54 0 m 172 793 q 213 932 172 883 q 315 981 253 981 q 407 954 360 981 q 475 929 457 929 q 517 978 510 929 l 633 978 q 597 844 633 894 q 494 794 561 794 q 403 817 456 794 q 331 843 346 843 q 289 793 296 843 l 172 793 z "},"ò":{"ha":804,"x_min":22,"x_max":782,"o":"m 290 197 q 310 168 290 197 q 401 139 329 139 q 513 197 474 139 q 553 354 553 256 q 513 512 553 453 q 401 571 474 571 q 290 513 329 571 q 251 354 251 454 q 290 197 251 256 m 677 85 q 625 31 677 85 q 403 -22 572 -22 q 128 85 233 -22 q 22 354 22 192 q 128 624 22 517 q 403 731 233 731 q 677 624 572 731 q 782 354 782 517 q 677 85 782 192 m 331 794 l 163 1000 l 424 1000 l 503 794 l 331 794 z "},"ó":{"ha":804,"x_min":22,"x_max":782,"o":"m 311 794 l 390 1000 l 651 1000 l 483 794 l 311 794 m 290 197 q 310 168 290 197 q 401 139 329 139 q 513 197 474 139 q 553 354 553 256 q 513 512 553 453 q 401 571 474 571 q 290 513 329 571 q 251 354 251 454 q 290 197 251 256 m 677 85 q 625 31 677 85 q 403 -22 572 -22 q 128 85 233 -22 q 22 354 22 192 q 128 624 22 517 q 403 731 233 731 q 677 624 572 731 q 782 354 782 517 q 677 85 782 192 z "},"ô":{"ha":804,"x_min":22,"x_max":782,"o":"m 146 797 l 294 988 l 511 988 l 660 797 l 469 797 l 407 889 l 404 889 l 340 797 l 146 797 m 290 197 q 310 168 290 197 q 401 139 329 139 q 513 197 474 139 q 553 354 553 256 q 513 512 553 453 q 401 571 474 571 q 290 513 329 571 q 251 354 251 454 q 290 197 251 256 m 677 85 q 625 31 677 85 q 403 -22 572 -22 q 128 85 233 -22 q 22 354 22 192 q 128 624 22 517 q 403 731 233 731 q 677 624 572 731 q 782 354 782 517 q 677 85 782 192 z "},"õ":{"ha":804,"x_min":22,"x_max":782,"o":"m 290 197 q 310 168 290 197 q 401 139 329 139 q 513 197 474 139 q 553 354 553 256 q 513 512 553 453 q 401 571 474 571 q 290 513 329 571 q 251 354 251 454 q 290 197 251 256 m 677 85 q 625 31 677 85 q 403 -22 572 -22 q 128 85 233 -22 q 22 354 22 192 q 128 624 22 517 q 403 731 233 731 q 677 624 572 731 q 782 354 782 517 q 677 85 782 192 m 172 793 q 213 932 172 883 q 315 981 253 981 q 407 954 360 981 q 475 929 457 929 q 517 978 510 929 l 633 978 q 597 844 633 894 q 494 794 561 794 q 403 817 456 794 q 331 843 346 843 q 289 793 296 843 l 172 793 z "},"ö":{"ha":804,"x_min":22,"x_max":782,"o":"m 140 801 l 140 979 l 353 979 l 353 801 l 140 801 m 453 801 l 453 979 l 665 979 l 665 801 l 453 801 m 290 197 q 310 168 290 197 q 401 139 329 139 q 513 197 474 139 q 553 354 553 256 q 513 512 553 453 q 401 571 474 571 q 290 513 329 571 q 251 354 251 454 q 290 197 251 256 m 677 85 q 625 31 677 85 q 403 -22 572 -22 q 128 85 233 -22 q 22 354 22 192 q 128 624 22 517 q 403 731 233 731 q 677 624 572 731 q 782 354 782 517 q 677 85 782 192 z "},"÷":{"ha":786,"x_min":56,"x_max":731,"o":"m 274 82 l 274 289 l 511 289 l 511 82 l 274 82 m 274 626 l 274 833 l 511 833 l 511 626 l 274 626 m 731 367 l 56 367 l 56 549 l 731 549 l 731 367 z "},"ø":{"ha":804,"x_min":22,"x_max":782,"o":"m 99 -50 l 38 10 l 117 97 q 22 354 22 200 q 128 624 22 517 q 403 731 233 731 q 626 665 528 731 l 707 754 l 768 696 l 690 610 q 782 354 782 506 q 677 85 782 192 q 403 -22 572 -22 q 181 42 278 -22 l 99 -50 m 401 139 q 513 197 474 139 q 553 354 553 256 q 542 443 553 401 l 304 179 q 401 139 340 139 m 264 263 l 503 526 q 401 571 463 571 q 290 513 329 571 q 251 354 251 454 q 264 263 251 301 z "},"ù":{"ha":786,"x_min":49,"x_max":732,"o":"m 299 -21 q 113 51 178 -21 q 49 244 49 122 l 49 711 l 274 711 l 274 292 q 381 171 274 171 q 472 210 439 171 q 506 314 506 250 l 506 711 l 732 711 l 732 0 l 515 0 l 515 88 l 511 88 q 299 -21 431 -21 m 319 794 l 151 1000 l 413 1000 l 492 794 l 319 794 z "},"ú":{"ha":786,"x_min":49,"x_max":732,"o":"m 300 794 l 379 1000 l 640 1000 l 472 794 l 300 794 m 299 -21 q 113 51 178 -21 q 49 244 49 122 l 49 711 l 274 711 l 274 292 q 381 171 274 171 q 472 210 439 171 q 506 314 506 250 l 506 711 l 732 711 l 732 0 l 515 0 l 515 88 l 511 88 q 299 -21 431 -21 z "},"û":{"ha":786,"x_min":49,"x_max":732,"o":"m 135 797 l 283 988 l 500 988 l 649 797 l 458 797 l 396 889 l 393 889 l 329 797 l 135 797 m 299 -21 q 113 51 178 -21 q 49 244 49 122 l 49 711 l 274 711 l 274 292 q 381 171 274 171 q 472 210 439 171 q 506 314 506 250 l 506 711 l 732 711 l 732 0 l 515 0 l 515 88 l 511 88 q 299 -21 431 -21 z "},"ü":{"ha":786,"x_min":49,"x_max":732,"o":"m 129 801 l 129 979 l 342 979 l 342 801 l 129 801 m 442 801 l 442 979 l 654 979 l 654 801 l 442 801 m 299 -21 q 113 51 178 -21 q 49 244 49 122 l 49 711 l 274 711 l 274 292 q 381 171 274 171 q 472 210 439 171 q 506 314 506 250 l 506 711 l 732 711 l 732 0 l 515 0 l 515 88 l 511 88 q 299 -21 431 -21 z "},"ý":{"ha":735,"x_min":-4,"x_max":739,"o":"m 78 -235 l 78 -58 l 156 -58 q 249 17 249 -58 q 206 164 249 53 l -4 711 l 235 711 l 331 408 l 375 244 l 378 244 q 419 408 397 339 l 513 711 l 739 711 l 493 -10 q 391 -185 450 -135 q 225 -235 332 -235 l 78 -235 m 279 794 l 358 1000 l 619 1000 l 451 794 l 279 794 z "},"þ":{"ha":817,"x_min":54,"x_max":794,"o":"m 54 -235 l 54 994 l 281 994 l 281 631 l 285 631 q 490 732 358 732 q 712 626 629 732 q 794 356 794 519 q 710 81 794 183 q 485 -22 625 -22 q 283 74 353 -22 l 281 74 l 281 -235 l 54 -235 m 426 153 q 528 205 492 153 q 565 350 565 257 q 529 500 565 444 q 422 556 493 556 q 313 498 351 556 q 274 350 274 440 q 314 207 274 261 q 426 153 354 153 z "},"ÿ":{"ha":735,"x_min":-4,"x_max":739,"o":"m 78 -235 l 78 -58 l 156 -58 q 249 17 249 -58 q 206 164 249 53 l -4 711 l 235 711 l 331 408 l 375 244 l 378 244 q 419 408 397 339 l 513 711 l 739 711 l 493 -10 q 391 -185 450 -135 q 225 -235 332 -235 l 78 -235 m 108 801 l 108 979 l 321 979 l 321 801 l 108 801 m 421 801 l 421 979 l 633 979 l 633 801 l 421 801 z "},"Ā":{"ha":968,"x_min":-1,"x_max":967,"o":"m -1 0 l 356 993 l 608 993 l 967 0 l 708 0 l 650 179 l 303 179 l 246 0 l -1 0 m 360 356 l 593 356 l 518 596 l 479 736 l 476 736 q 436 596 453 647 l 360 356 m 283 1058 l 283 1199 l 681 1199 l 681 1058 l 283 1058 z "},"ā":{"ha":751,"x_min":21,"x_max":721,"o":"m 264 -18 q 88 39 154 -18 q 21 199 21 96 q 93 356 21 307 q 293 422 165 406 q 435 451 397 435 q 474 501 474 467 q 376 578 474 578 q 261 486 272 578 l 53 486 q 140 661 57 592 q 375 731 222 731 q 606 672 528 731 q 696 469 696 607 l 696 111 q 721 10 696 26 l 721 0 l 501 0 q 478 79 488 19 l 475 79 q 264 -18 407 -18 m 336 126 q 440 162 400 126 q 479 254 479 197 l 479 339 q 363 301 446 322 q 267 265 294 286 q 239 206 239 244 q 336 126 239 126 m 183 815 l 183 956 l 581 956 l 581 815 l 183 815 z "},"Ă":{"ha":968,"x_min":-1,"x_max":967,"o":"m -1 0 l 356 993 l 608 993 l 967 0 l 708 0 l 650 179 l 303 179 l 246 0 l -1 0 m 360 356 l 593 356 l 518 596 l 479 736 l 476 736 q 436 596 453 647 l 360 356 m 642 1090 q 611 1061 642 1090 q 485 1033 581 1033 q 325 1089 389 1033 q 258 1235 261 1144 l 386 1235 q 415 1188 389 1206 q 483 1169 440 1169 q 550 1188 524 1169 q 579 1235 576 1207 l 707 1235 q 642 1090 703 1146 z "},"ă":{"ha":751,"x_min":21,"x_max":721,"o":"m 264 -18 q 88 39 154 -18 q 21 199 21 96 q 93 356 21 307 q 293 422 165 406 q 435 451 397 435 q 474 501 474 467 q 376 578 474 578 q 261 486 272 578 l 53 486 q 140 661 57 592 q 375 731 222 731 q 606 672 528 731 q 696 469 696 607 l 696 111 q 721 10 696 26 l 721 0 l 501 0 q 478 79 488 19 l 475 79 q 264 -18 407 -18 m 336 126 q 440 162 400 126 q 479 254 479 197 l 479 339 q 363 301 446 322 q 267 265 294 286 q 239 206 239 244 q 336 126 239 126 m 542 842 q 511 814 542 842 q 385 786 481 786 q 225 842 289 786 q 158 988 161 897 l 286 988 q 315 940 289 958 q 383 922 340 922 q 450 941 424 922 q 479 988 476 960 l 607 988 q 542 842 603 899 z "},"Ą":{"ha":968,"x_min":-1,"x_max":965,"o":"m 874 -246 q 707 -126 707 -246 q 790 0 707 -49 l 708 0 l 650 179 l 303 179 l 246 0 l -1 0 l 356 993 l 608 993 l 964 8 q 889 -87 889 -40 q 928 -122 889 -122 q 964 -115 947 -122 l 965 -115 l 965 -233 q 874 -246 933 -246 m 360 356 l 593 356 l 518 596 l 479 736 l 476 736 q 436 596 453 647 l 360 356 z "},"ą":{"ha":751,"x_min":21,"x_max":726,"o":"m 642 -246 q 469 -129 469 -246 q 567 0 469 -46 l 501 0 q 478 79 488 19 l 475 79 q 264 -18 407 -18 q 88 39 154 -18 q 21 199 21 96 q 93 356 21 307 q 293 422 165 406 q 435 451 397 435 q 474 501 474 467 q 376 578 474 578 q 261 486 272 578 l 53 486 q 140 661 57 592 q 375 731 222 731 q 606 672 528 731 q 696 469 696 607 l 696 111 q 721 10 696 26 l 721 0 q 650 -87 650 -37 q 689 -122 650 -122 q 725 -115 708 -122 l 726 -115 l 726 -233 q 642 -246 694 -246 m 336 126 q 440 162 400 126 q 479 254 479 197 l 479 339 q 363 301 446 322 q 267 265 294 286 q 239 206 239 244 q 336 126 239 126 z "},"Ć":{"ha":975,"x_min":28,"x_max":956,"o":"m 518 -22 q 165 123 301 -22 q 28 493 28 268 q 163 865 28 718 q 517 1013 297 1013 q 800 925 686 1013 q 949 651 929 828 l 703 651 q 643 764 693 719 q 515 808 593 808 q 338 722 399 808 q 278 493 278 635 q 343 267 278 354 q 517 179 408 179 q 649 225 597 179 q 710 344 701 271 l 956 344 q 836 90 944 194 q 518 -22 719 -22 m 415 1042 l 475 1222 l 735 1222 l 588 1042 l 415 1042 z "},"ć":{"ha":756,"x_min":22,"x_max":738,"o":"m 299 794 l 378 1000 l 639 1000 l 471 794 l 299 794 m 400 -22 q 126 85 231 -22 q 22 354 22 192 q 125 624 22 517 q 394 731 228 731 q 626 656 536 731 q 732 458 717 581 l 514 458 q 397 564 490 564 q 288 508 325 564 q 251 354 251 453 q 289 202 251 257 q 397 147 326 147 q 521 269 506 147 l 738 269 q 641 60 733 143 q 400 -22 549 -22 z "},"Ĉ":{"ha":975,"x_min":28,"x_max":956,"o":"m 518 -22 q 165 123 301 -22 q 28 493 28 268 q 163 865 28 718 q 517 1013 297 1013 q 800 925 686 1013 q 949 651 929 828 l 703 651 q 643 764 693 719 q 515 808 593 808 q 338 722 399 808 q 278 493 278 635 q 343 267 278 354 q 517 179 408 179 q 649 225 597 179 q 710 344 701 271 l 956 344 q 836 90 944 194 q 518 -22 719 -22 m 250 1042 l 399 1215 l 615 1215 l 764 1042 l 574 1042 l 511 1117 l 508 1117 l 444 1042 l 250 1042 z "},"ĉ":{"ha":756,"x_min":22,"x_max":738,"o":"m 133 797 l 282 988 l 499 988 l 647 797 l 457 797 l 394 889 l 392 889 l 328 797 l 133 797 m 400 -22 q 126 85 231 -22 q 22 354 22 192 q 125 624 22 517 q 394 731 228 731 q 626 656 536 731 q 732 458 717 581 l 514 458 q 397 564 490 564 q 288 508 325 564 q 251 354 251 453 q 289 202 251 257 q 397 147 326 147 q 521 269 506 147 l 738 269 q 641 60 733 143 q 400 -22 549 -22 z "},"Ċ":{"ha":975,"x_min":28,"x_max":956,"o":"m 394 1046 l 394 1226 l 619 1226 l 619 1046 l 394 1046 m 518 -22 q 165 123 301 -22 q 28 493 28 268 q 163 865 28 718 q 517 1013 297 1013 q 800 925 686 1013 q 949 651 929 828 l 703 651 q 643 764 693 719 q 515 808 593 808 q 338 722 399 808 q 278 493 278 635 q 343 267 278 354 q 517 179 408 179 q 649 225 597 179 q 710 344 701 271 l 956 344 q 836 90 944 194 q 518 -22 719 -22 z "},"ċ":{"ha":756,"x_min":22,"x_max":738,"o":"m 400 -22 q 126 85 231 -22 q 22 354 22 192 q 125 624 22 517 q 394 731 228 731 q 626 656 536 731 q 732 458 717 581 l 514 458 q 397 564 490 564 q 288 508 325 564 q 251 354 251 453 q 289 202 251 257 q 397 147 326 147 q 521 269 506 147 l 738 269 q 641 60 733 143 q 400 -22 549 -22 m 278 810 l 278 993 l 503 993 l 503 810 l 278 810 z "},"Č":{"ha":975,"x_min":28,"x_max":956,"o":"m 518 -22 q 165 123 301 -22 q 28 493 28 268 q 163 865 28 718 q 517 1013 297 1013 q 800 925 686 1013 q 949 651 929 828 l 703 651 q 643 764 693 719 q 515 808 593 808 q 338 722 399 808 q 278 493 278 635 q 343 267 278 354 q 517 179 408 179 q 649 225 597 179 q 710 344 701 271 l 956 344 q 836 90 944 194 q 518 -22 719 -22 m 397 1042 l 250 1215 l 440 1215 l 503 1140 l 506 1140 l 568 1215 l 763 1215 l 615 1042 l 397 1042 z "},"č":{"ha":756,"x_min":22,"x_max":738,"o":"m 282 793 l 135 985 l 325 985 l 388 893 l 390 893 l 453 985 l 647 985 l 500 793 l 282 793 m 400 -22 q 126 85 231 -22 q 22 354 22 192 q 125 624 22 517 q 394 731 228 731 q 626 656 536 731 q 732 458 717 581 l 514 458 q 397 564 490 564 q 288 508 325 564 q 251 354 251 453 q 289 202 251 257 q 397 147 326 147 q 521 269 506 147 l 738 269 q 641 60 733 143 q 400 -22 549 -22 z "},"Ď":{"ha":979,"x_min":68,"x_max":951,"o":"m 340 1042 l 193 1215 l 383 1215 l 446 1140 l 449 1140 l 511 1215 l 706 1215 l 558 1042 l 340 1042 m 314 207 l 458 207 q 640 280 578 207 q 703 490 703 353 q 639 708 703 628 q 461 788 575 788 l 314 788 l 314 207 m 68 0 l 68 993 l 492 993 q 825 856 699 993 q 951 490 951 718 q 779 90 951 222 q 476 0 658 0 l 68 0 z "},"ď":{"ha":817,"x_min":22,"x_max":985,"o":"m 810 728 l 810 793 q 890 853 890 804 l 811 853 l 811 993 l 985 993 l 985 883 q 810 728 985 738 m 333 -22 q 108 79 194 -22 q 22 356 22 181 q 109 627 22 522 q 333 732 196 732 q 532 631 461 732 l 536 631 l 536 993 l 763 993 l 763 0 l 546 0 l 546 96 l 543 96 q 333 -22 474 -22 m 392 157 q 501 212 461 157 q 542 356 542 267 q 504 505 542 449 q 394 561 467 561 q 290 506 328 561 q 251 358 251 450 q 289 211 251 265 q 392 157 326 157 z "},"Đ":{"ha":992,"x_min":4,"x_max":964,"o":"m 326 207 l 471 207 q 653 280 590 207 q 715 490 715 353 q 651 708 715 628 q 474 788 588 788 l 326 788 l 326 601 l 543 601 l 543 411 l 326 411 l 326 207 m 81 0 l 81 411 l 4 411 l 4 601 l 81 601 l 81 993 l 504 993 q 838 856 711 993 q 964 490 964 718 q 789 89 964 219 q 489 0 669 0 l 81 0 z "},"đ":{"ha":817,"x_min":22,"x_max":833,"o":"m 369 786 l 369 900 l 536 900 l 536 993 l 763 993 l 763 900 l 833 900 l 833 786 l 763 786 l 763 0 l 546 0 l 546 96 l 543 96 q 333 -22 474 -22 q 108 79 194 -22 q 22 356 22 181 q 109 627 22 522 q 333 732 196 732 q 532 631 461 732 l 536 631 l 536 786 l 369 786 m 392 157 q 501 212 461 157 q 542 356 542 267 q 504 505 542 449 q 394 561 467 561 q 290 506 328 561 q 251 358 251 450 q 289 211 251 265 q 392 157 326 157 z "},"Ē":{"ha":872,"x_min":68,"x_max":829,"o":"m 258 1058 l 258 1199 l 656 1199 l 656 1058 l 258 1058 m 68 0 l 68 993 l 821 993 l 821 790 l 314 790 l 314 613 l 749 613 l 749 421 l 314 421 l 314 208 l 829 208 l 829 0 l 68 0 z "},"ē":{"ha":778,"x_min":22,"x_max":758,"o":"m 401 -21 q 126 85 229 -21 q 22 357 22 192 q 124 625 22 518 q 388 732 226 732 q 631 643 533 732 q 756 297 758 526 l 244 297 q 296 183 256 224 q 404 142 336 142 q 522 213 492 142 l 743 213 q 624 44 718 110 q 401 -21 531 -21 m 246 432 l 526 432 q 484 533 521 496 q 392 571 447 571 q 246 432 271 571 m 190 815 l 190 956 l 588 956 l 588 815 l 190 815 z "},"Ĕ":{"ha":872,"x_min":68,"x_max":829,"o":"m 617 1090 q 586 1061 617 1090 q 460 1033 556 1033 q 300 1089 364 1033 q 233 1235 236 1144 l 361 1235 q 390 1188 364 1206 q 458 1169 415 1169 q 525 1188 499 1169 q 554 1235 551 1207 l 682 1235 q 617 1090 678 1146 m 68 0 l 68 993 l 821 993 l 821 790 l 314 790 l 314 613 l 749 613 l 749 421 l 314 421 l 314 208 l 829 208 l 829 0 l 68 0 z "},"ĕ":{"ha":778,"x_min":22,"x_max":758,"o":"m 401 -21 q 126 85 229 -21 q 22 357 22 192 q 124 625 22 518 q 388 732 226 732 q 631 643 533 732 q 756 297 758 526 l 244 297 q 296 183 256 224 q 404 142 336 142 q 522 213 492 142 l 743 213 q 624 44 718 110 q 401 -21 531 -21 m 246 432 l 526 432 q 484 533 521 496 q 392 571 447 571 q 246 432 271 571 m 547 842 q 517 814 547 842 q 390 786 486 786 q 231 842 294 786 q 164 988 167 897 l 292 988 q 320 940 294 958 q 389 922 346 922 q 456 941 429 922 q 485 988 482 960 l 613 988 q 547 842 608 899 z "},"Ė":{"ha":872,"x_min":68,"x_max":829,"o":"m 344 1046 l 344 1226 l 569 1226 l 569 1046 l 344 1046 m 68 0 l 68 993 l 821 993 l 821 790 l 314 790 l 314 613 l 749 613 l 749 421 l 314 421 l 314 208 l 829 208 l 829 0 l 68 0 z "},"ė":{"ha":778,"x_min":22,"x_max":758,"o":"m 401 -21 q 126 85 229 -21 q 22 357 22 192 q 124 625 22 518 q 388 732 226 732 q 631 643 533 732 q 756 297 758 526 l 244 297 q 296 183 256 224 q 404 142 336 142 q 522 213 492 142 l 743 213 q 624 44 718 110 q 401 -21 531 -21 m 246 432 l 526 432 q 484 533 521 496 q 392 571 447 571 q 246 432 271 571 m 276 810 l 276 993 l 501 993 l 501 810 l 276 810 z "},"Ę":{"ha":872,"x_min":68,"x_max":829,"o":"m 68 0 l 68 993 l 821 993 l 821 790 l 314 790 l 314 613 l 749 613 l 749 421 l 314 421 l 314 208 l 829 208 l 829 0 l 772 0 q 715 -87 715 -49 q 754 -122 715 -122 q 790 -115 774 -122 l 792 -115 l 792 -233 q 701 -246 760 -246 q 533 -126 533 -246 q 617 0 533 -49 l 68 0 z "},"ę":{"ha":778,"x_min":22,"x_max":758,"o":"m 510 -246 q 338 -129 338 -246 q 399 -21 338 -64 q 124 86 226 -19 q 22 357 22 192 q 124 625 22 518 q 388 732 226 732 q 631 643 533 732 q 756 297 758 526 l 244 297 q 296 183 256 224 q 404 142 336 142 q 522 213 492 142 l 743 213 q 646 57 722 124 q 612 28 635 47 q 576 -2 589 10 q 548 -30 564 -14 q 525 -60 532 -46 q 518 -87 518 -74 q 557 -122 518 -122 q 593 -115 576 -122 l 594 -115 l 594 -233 q 510 -246 563 -246 m 246 432 l 526 432 q 484 533 521 496 q 392 571 447 571 q 246 432 271 571 z "},"Ě":{"ha":872,"x_min":68,"x_max":829,"o":"m 349 1042 l 201 1215 l 392 1215 l 454 1140 l 457 1140 l 519 1215 l 714 1215 l 567 1042 l 349 1042 m 68 0 l 68 993 l 821 993 l 821 790 l 314 790 l 314 613 l 749 613 l 749 421 l 314 421 l 314 208 l 829 208 l 829 0 l 68 0 z "},"ě":{"ha":778,"x_min":22,"x_max":758,"o":"m 279 793 l 132 985 l 322 985 l 385 893 l 388 893 l 450 985 l 644 985 l 497 793 l 279 793 m 401 -21 q 126 85 229 -21 q 22 357 22 192 q 124 625 22 518 q 388 732 226 732 q 631 643 533 732 q 756 297 758 526 l 244 297 q 296 183 256 224 q 404 142 336 142 q 522 213 492 142 l 743 213 q 624 44 718 110 q 401 -21 531 -21 m 246 432 l 526 432 q 484 533 521 496 q 392 571 447 571 q 246 432 271 571 z "},"Ĝ":{"ha":1024,"x_min":29,"x_max":972,"o":"m 501 -22 q 163 117 290 -22 q 29 493 29 263 q 176 881 29 733 q 517 1013 306 1013 q 818 920 704 1013 q 957 668 932 828 l 718 668 q 653 770 704 731 q 525 810 603 810 q 342 722 406 810 q 279 493 279 635 q 347 265 279 354 q 529 176 415 176 q 678 228 621 176 q 744 350 736 279 l 744 353 l 558 353 l 558 533 l 972 533 l 972 0 l 800 0 l 786 119 l 783 119 q 501 -22 692 -22 m 251 1042 l 400 1215 l 617 1215 l 765 1042 l 575 1042 l 513 1117 l 510 1117 l 446 1042 l 251 1042 z "},"ĝ":{"ha":794,"x_min":22,"x_max":740,"o":"m 136 797 l 285 988 l 501 988 l 650 797 l 460 797 l 397 889 l 394 889 l 331 797 l 136 797 m 385 -246 q 145 -187 236 -246 q 38 -17 54 -128 l 257 -17 q 382 -86 281 -86 q 518 50 518 -86 l 518 121 l 513 121 q 331 39 440 39 q 113 129 203 39 q 22 376 22 219 q 106 633 22 533 q 321 732 189 732 q 521 635 453 732 l 524 635 l 524 711 l 740 711 l 740 69 q 646 -167 740 -82 q 385 -246 557 -246 m 383 207 q 491 256 454 207 q 528 385 528 306 q 490 510 528 460 q 383 561 451 561 q 281 513 319 561 q 243 383 243 464 q 281 255 243 303 q 383 207 319 207 z "},"Ğ":{"ha":1024,"x_min":29,"x_max":972,"o":"m 668 1090 q 638 1061 668 1090 q 511 1033 607 1033 q 351 1089 415 1033 q 285 1235 288 1144 l 413 1235 q 441 1188 415 1206 q 510 1169 467 1169 q 576 1188 550 1169 q 606 1235 603 1207 l 733 1235 q 668 1090 729 1146 m 501 -22 q 163 117 290 -22 q 29 493 29 263 q 176 881 29 733 q 517 1013 306 1013 q 818 920 704 1013 q 957 668 932 828 l 718 668 q 653 770 704 731 q 525 810 603 810 q 342 722 406 810 q 279 493 279 635 q 347 265 279 354 q 529 176 415 176 q 678 228 621 176 q 744 350 736 279 l 744 353 l 558 353 l 558 533 l 972 533 l 972 0 l 800 0 l 786 119 l 783 119 q 501 -22 692 -22 z "},"ğ":{"ha":794,"x_min":22,"x_max":740,"o":"m 385 -246 q 145 -187 236 -246 q 38 -17 54 -128 l 257 -17 q 382 -86 281 -86 q 518 50 518 -86 l 518 121 l 513 121 q 331 39 440 39 q 113 129 203 39 q 22 376 22 219 q 106 633 22 533 q 321 732 189 732 q 521 635 453 732 l 524 635 l 524 711 l 740 711 l 740 69 q 646 -167 740 -82 q 385 -246 557 -246 m 383 207 q 491 256 454 207 q 528 385 528 306 q 490 510 528 460 q 383 561 451 561 q 281 513 319 561 q 243 383 243 464 q 281 255 243 303 q 383 207 319 207 m 551 842 q 521 814 551 842 q 394 786 490 786 q 235 842 299 786 q 168 988 171 897 l 296 988 q 324 940 299 958 q 393 922 350 922 q 460 941 433 922 q 489 988 486 960 l 617 988 q 551 842 613 899 z "},"Ġ":{"ha":1024,"x_min":29,"x_max":972,"o":"m 396 1046 l 396 1226 l 621 1226 l 621 1046 l 396 1046 m 501 -22 q 163 117 290 -22 q 29 493 29 263 q 176 881 29 733 q 517 1013 306 1013 q 818 920 704 1013 q 957 668 932 828 l 718 668 q 653 770 704 731 q 525 810 603 810 q 342 722 406 810 q 279 493 279 635 q 347 265 279 354 q 529 176 415 176 q 678 228 621 176 q 744 350 736 279 l 744 353 l 558 353 l 558 533 l 972 533 l 972 0 l 800 0 l 786 119 l 783 119 q 501 -22 692 -22 z "},"ġ":{"ha":794,"x_min":22,"x_max":740,"o":"m 385 -246 q 145 -187 236 -246 q 38 -17 54 -128 l 257 -17 q 382 -86 281 -86 q 518 50 518 -86 l 518 121 l 513 121 q 331 39 440 39 q 113 129 203 39 q 22 376 22 219 q 106 633 22 533 q 321 732 189 732 q 521 635 453 732 l 524 635 l 524 711 l 740 711 l 740 69 q 646 -167 740 -82 q 385 -246 557 -246 m 383 207 q 491 256 454 207 q 528 385 528 306 q 490 510 528 460 q 383 561 451 561 q 281 513 319 561 q 243 383 243 464 q 281 255 243 303 q 383 207 319 207 m 281 810 l 281 993 l 506 993 l 506 810 l 281 810 z "},"Ģ":{"ha":1024,"x_min":29,"x_max":972,"o":"m 411 -365 l 411 -299 q 503 -215 503 -278 l 415 -215 l 415 -65 l 606 -65 l 606 -186 q 551 -315 606 -271 q 411 -365 497 -358 m 501 -22 q 163 117 290 -22 q 29 493 29 263 q 176 881 29 733 q 517 1013 306 1013 q 818 920 704 1013 q 957 668 932 828 l 718 668 q 653 770 704 731 q 525 810 603 810 q 342 722 406 810 q 279 493 279 635 q 347 265 279 354 q 529 176 415 176 q 678 228 621 176 q 744 350 736 279 l 744 353 l 558 353 l 558 533 l 972 533 l 972 0 l 800 0 l 786 119 l 783 119 q 501 -22 692 -22 z "},"ģ":{"ha":794,"x_min":22,"x_max":740,"o":"m 294 815 l 294 936 q 349 1065 294 1021 q 490 1115 404 1108 l 490 1049 q 397 965 397 1028 l 486 965 l 486 815 l 294 815 m 385 -246 q 145 -187 236 -246 q 38 -17 54 -128 l 257 -17 q 382 -86 281 -86 q 518 50 518 -86 l 518 121 l 513 121 q 331 39 440 39 q 113 129 203 39 q 22 376 22 219 q 106 633 22 533 q 321 732 189 732 q 521 635 453 732 l 524 635 l 524 711 l 740 711 l 740 69 q 646 -167 740 -82 q 385 -246 557 -246 m 383 207 q 491 256 454 207 q 528 385 528 306 q 490 510 528 460 q 383 561 451 561 q 281 513 319 561 q 243 383 243 464 q 281 255 243 303 q 383 207 319 207 z "},"Ĥ":{"ha":976,"x_min":68,"x_max":908,"o":"m 68 0 l 68 993 l 314 993 l 314 617 l 663 617 l 663 993 l 908 993 l 908 0 l 663 0 l 663 414 l 314 414 l 314 0 l 68 0 m 231 1042 l 379 1215 l 596 1215 l 744 1042 l 554 1042 l 492 1117 l 489 1117 l 425 1042 l 231 1042 z "},"ĥ":{"ha":792,"x_min":54,"x_max":743,"o":"m 54 0 l 54 993 l 281 993 l 281 624 l 285 624 q 496 732 367 732 q 677 658 611 732 q 743 463 743 583 l 743 0 l 517 0 l 517 417 q 488 509 517 475 q 406 543 460 543 q 315 501 350 543 q 281 393 281 460 l 281 0 l 54 0 m 142 1042 l 290 1215 l 507 1215 l 656 1042 l 465 1042 l 403 1117 l 400 1117 l 336 1042 l 142 1042 z "},"Ħ":{"ha":976,"x_min":-7,"x_max":983,"o":"m -7 721 l -7 840 l 68 840 l 68 993 l 314 993 l 314 840 l 663 840 l 663 993 l 908 993 l 908 840 l 983 840 l 983 721 l 908 721 l 908 0 l 663 0 l 663 414 l 314 414 l 314 0 l 68 0 l 68 721 l -7 721 m 314 617 l 663 617 l 663 721 l 314 721 l 314 617 z "},"ħ":{"ha":792,"x_min":-17,"x_max":743,"o":"m -17 786 l -17 900 l 54 900 l 54 993 l 281 993 l 281 900 l 449 900 l 449 786 l 281 786 l 281 624 l 285 624 q 496 732 367 732 q 677 658 611 732 q 743 463 743 583 l 743 0 l 517 0 l 517 417 q 488 509 517 475 q 406 543 460 543 q 315 501 350 543 q 281 393 281 460 l 281 0 l 54 0 l 54 786 l -17 786 z "},"Ĩ":{"ha":383,"x_min":69,"x_max":315,"o":"m 69 0 l 69 993 l 315 993 l 315 0 l 69 0 m 106 1042 q 106 1124 94 1094 q 142 1158 117 1154 l 149 1163 q 202 1211 158 1192 q 276 1231 246 1231 q 281 1153 289 1185 q 244 1115 274 1121 q 233 1110 239 1110 q 181 1062 225 1082 q 106 1042 138 1042 m 175 1122 q 175 1125 181 1122 l 172 1126 q 175 1122 172 1125 m 210 1151 q 213 1147 204 1151 q 210 1151 210 1150 z "},"ĩ":{"ha":335,"x_min":-42,"x_max":375,"o":"m 54 0 l 54 711 l 281 711 l 281 0 l 54 0 m -42 793 q -6 932 -42 883 q 88 981 31 981 q 172 956 125 981 q 228 933 213 933 q 263 978 258 933 l 375 978 q 343 844 375 894 q 251 794 311 794 q 167 817 208 794 q 107 840 119 840 q 72 793 76 840 l -42 793 z "},"Ī":{"ha":383,"x_min":-7,"x_max":390,"o":"m 69 0 l 69 993 l 315 993 l 315 0 l 69 0 m -7 1058 l -7 1199 l 390 1199 l 390 1058 l -7 1058 z "},"ī":{"ha":335,"x_min":-14,"x_max":349,"o":"m 54 0 l 54 711 l 281 711 l 281 0 l 54 0 m -14 815 l -14 956 l 349 956 l 349 815 l -14 815 z "},"Ĭ":{"ha":383,"x_min":-32,"x_max":417,"o":"m 69 0 l 69 993 l 315 993 l 315 0 l 69 0 m 351 1090 q 321 1061 351 1090 q 194 1033 290 1033 q 35 1089 99 1033 q -32 1235 -29 1144 l 96 1235 q 124 1188 99 1206 q 193 1169 150 1169 q 260 1188 233 1169 q 289 1235 286 1207 l 417 1235 q 351 1090 413 1146 z "},"ĭ":{"ha":335,"x_min":-39,"x_max":372,"o":"m 54 0 l 54 711 l 281 711 l 281 0 l 54 0 m 315 842 q 287 814 315 842 q 169 786 260 786 q 21 841 79 786 q -39 988 -37 896 l 86 988 q 168 922 93 922 q 224 941 203 922 q 247 988 244 960 l 372 988 q 315 842 369 897 z "},"Į":{"ha":383,"x_min":61,"x_max":319,"o":"m 232 -246 q 61 -126 61 -246 q 144 0 61 -50 l 69 0 l 69 993 l 315 993 l 315 7 q 243 -87 243 -42 q 282 -122 243 -122 q 318 -115 301 -122 l 319 -115 l 319 -233 q 232 -246 288 -246 z "},"į":{"ha":335,"x_min":31,"x_max":286,"o":"m 197 -246 q 31 -129 31 -246 q 126 0 31 -46 l 54 0 l 54 711 l 281 711 l 281 6 q 211 -87 211 -40 q 249 -122 211 -122 q 285 -115 268 -122 l 286 -115 l 286 -233 q 197 -246 254 -246 m 54 810 l 54 993 l 281 993 l 281 810 l 54 810 z "},"İ":{"ha":383,"x_min":69,"x_max":315,"o":"m 69 0 l 69 993 l 315 993 l 315 0 l 69 0 m 79 1046 l 79 1226 l 304 1226 l 304 1046 l 79 1046 z "},"ı":{"ha":335,"x_min":54,"x_max":281,"o":"m 54 0 l 54 711 l 281 711 l 281 0 l 54 0 z "},"Ĳ":{"ha":1131,"x_min":69,"x_max":1072,"o":"m 69 0 l 69 993 l 315 993 l 315 0 l 69 0 m 739 -18 q 480 67 568 -18 q 392 299 392 153 l 392 386 l 615 386 l 615 304 q 724 185 615 185 q 826 301 826 185 l 826 993 l 1072 993 l 1072 296 q 1001 81 1072 160 q 739 -18 911 -18 z "},"ĳ":{"ha":668,"x_min":54,"x_max":614,"o":"m 54 0 l 54 711 l 281 711 l 281 0 l 54 0 m 54 810 l 54 993 l 281 993 l 281 810 l 54 810 m 396 -239 q 268 -228 324 -239 l 268 -71 q 322 -69 306 -71 q 356 -61 338 -68 q 381 -38 375 -54 q 388 6 388 -22 l 388 711 l 614 711 l 614 -6 q 560 -183 614 -126 q 396 -239 504 -239 m 388 810 l 388 993 l 614 993 l 614 810 l 388 810 z "},"Ĵ":{"ha":757,"x_min":18,"x_max":831,"o":"m 365 -18 q 106 67 194 -18 q 18 299 18 153 l 18 386 l 242 386 l 242 304 q 350 185 242 185 q 453 301 453 185 l 453 993 l 699 993 l 699 296 q 628 81 699 160 q 365 -18 538 -18 m 317 1042 l 465 1215 l 682 1215 l 831 1042 l 640 1042 l 578 1117 l 575 1117 l 511 1042 l 317 1042 z "},"ĵ":{"ha":335,"x_min":-65,"x_max":392,"o":"m -58 797 l 54 988 l 282 988 l 392 797 l 213 797 l 171 883 l 168 883 l 125 797 l -58 797 m 63 -239 q -65 -228 -10 -239 l -65 -71 q -12 -69 -28 -71 q 23 -61 4 -68 q 48 -38 42 -54 q 54 6 54 -22 l 54 711 l 281 711 l 281 -6 q 226 -183 281 -126 q 63 -239 171 -239 z "},"Ķ":{"ha":968,"x_min":68,"x_max":969,"o":"m 378 -365 l 378 -299 q 469 -215 469 -278 l 382 -215 l 382 -65 l 572 -65 l 572 -186 q 518 -315 572 -271 q 378 -365 464 -358 m 68 0 l 68 993 l 314 993 l 314 633 l 656 993 l 947 993 l 567 594 l 969 0 l 683 0 l 397 429 l 314 342 l 314 0 l 68 0 z "},"ķ":{"ha":778,"x_min":54,"x_max":779,"o":"m 300 -365 l 300 -299 q 392 -215 392 -278 l 304 -215 l 304 -65 l 494 -65 l 494 -186 q 440 -315 494 -271 q 300 -365 386 -358 m 54 0 l 54 993 l 278 993 l 278 471 l 489 711 l 750 711 l 500 444 l 779 0 l 517 0 l 346 290 l 278 218 l 278 0 l 54 0 z "},"Ĺ":{"ha":785,"x_min":68,"x_max":760,"o":"m 101 1042 l 161 1222 l 421 1222 l 274 1042 l 101 1042 m 68 0 l 68 993 l 314 993 l 314 208 l 760 208 l 760 0 l 68 0 z "},"ĺ":{"ha":340,"x_min":56,"x_max":399,"o":"m 79 1042 l 139 1222 l 399 1222 l 251 1042 l 79 1042 m 56 0 l 56 993 l 285 993 l 285 0 l 56 0 z "},"Ļ":{"ha":785,"x_min":68,"x_max":760,"o":"m 317 -365 l 317 -299 q 408 -215 408 -278 l 321 -215 l 321 -65 l 511 -65 l 511 -186 q 457 -315 511 -271 q 317 -365 403 -358 m 68 0 l 68 993 l 314 993 l 314 208 l 760 208 l 760 0 l 68 0 z "},"ļ":{"ha":340,"x_min":56,"x_max":285,"o":"m 74 -365 l 74 -299 q 165 -215 165 -278 l 78 -215 l 78 -65 l 268 -65 l 268 -186 q 214 -315 268 -271 q 74 -365 160 -358 m 56 0 l 56 993 l 285 993 l 285 0 l 56 0 z "},"Ľ":{"ha":785,"x_min":68,"x_max":760,"o":"m 460 714 l 460 782 q 544 844 544 793 l 463 844 l 463 993 l 644 993 l 644 878 q 594 758 644 797 q 460 714 544 718 m 68 0 l 68 993 l 314 993 l 314 208 l 760 208 l 760 0 l 68 0 z "},"ľ":{"ha":340,"x_min":56,"x_max":508,"o":"m 333 728 l 333 793 q 414 853 414 804 l 335 853 l 335 993 l 508 993 l 508 883 q 333 728 508 738 m 56 0 l 56 993 l 285 993 l 285 0 l 56 0 z "},"Ŀ":{"ha":785,"x_min":68,"x_max":760,"o":"m 68 0 l 68 993 l 314 993 l 314 208 l 760 208 l 760 0 l 68 0 m 494 425 l 494 658 l 732 658 l 732 425 l 494 425 z "},"ŀ":{"ha":574,"x_min":56,"x_max":568,"o":"m 56 0 l 56 993 l 285 993 l 285 0 l 56 0 m 346 343 l 346 572 l 568 572 l 568 343 l 346 343 z "},"Ł":{"ha":794,"x_min":-6,"x_max":771,"o":"m 79 0 l 79 301 l -6 258 l -6 421 l 79 464 l 79 993 l 325 993 l 325 593 l 590 732 l 590 569 l 325 431 l 325 208 l 771 208 l 771 0 l 79 0 z "},"ł":{"ha":383,"x_min":3,"x_max":389,"o":"m 76 0 l 76 319 l 3 265 l 3 428 l 76 482 l 76 993 l 306 993 l 306 651 l 389 713 l 389 550 l 306 489 l 306 0 l 76 0 z "},"Ń":{"ha":986,"x_min":68,"x_max":918,"o":"m 411 1042 l 471 1222 l 731 1222 l 583 1042 l 411 1042 m 68 0 l 68 993 l 315 993 l 610 494 l 678 368 l 681 368 q 678 522 678 488 l 678 993 l 918 993 l 918 0 l 671 0 l 379 492 l 308 625 l 306 625 q 308 463 308 497 l 308 0 l 68 0 z "},"ń":{"ha":792,"x_min":54,"x_max":743,"o":"m 311 794 l 390 1000 l 651 1000 l 483 794 l 311 794 m 54 0 l 54 711 l 272 711 l 272 614 l 276 614 q 496 732 358 732 q 677 658 611 732 q 743 463 743 583 l 743 0 l 517 0 l 517 417 q 488 509 517 475 q 406 543 460 543 q 315 501 350 543 q 281 393 281 460 l 281 0 l 54 0 z "},"Ņ":{"ha":986,"x_min":68,"x_max":918,"o":"m 392 -364 l 392 -297 q 483 -214 483 -276 l 396 -214 l 396 -64 l 586 -64 l 586 -185 q 532 -313 586 -269 q 392 -364 478 -357 m 68 0 l 68 993 l 315 993 l 610 494 l 678 368 l 681 368 q 678 522 678 488 l 678 993 l 918 993 l 918 0 l 671 0 l 379 492 l 308 625 l 306 625 q 308 463 308 497 l 308 0 l 68 0 z "},"ņ":{"ha":792,"x_min":54,"x_max":743,"o":"m 301 -365 l 301 -299 q 393 -215 393 -278 l 306 -215 l 306 -65 l 496 -65 l 496 -186 q 442 -315 496 -271 q 301 -365 388 -358 m 54 0 l 54 711 l 272 711 l 272 614 l 276 614 q 496 732 358 732 q 677 658 611 732 q 743 463 743 583 l 743 0 l 517 0 l 517 417 q 488 509 517 475 q 406 543 460 543 q 315 501 350 543 q 281 393 281 460 l 281 0 l 54 0 z "},"Ň":{"ha":986,"x_min":68,"x_max":918,"o":"m 393 1042 l 246 1215 l 436 1215 l 499 1140 l 501 1140 l 564 1215 l 758 1215 l 611 1042 l 393 1042 m 68 0 l 68 993 l 315 993 l 610 494 l 678 368 l 681 368 q 678 522 678 488 l 678 993 l 918 993 l 918 0 l 671 0 l 379 492 l 308 625 l 306 625 q 308 463 308 497 l 308 0 l 68 0 z "},"ň":{"ha":792,"x_min":54,"x_max":743,"o":"m 294 793 l 147 985 l 338 985 l 400 893 l 403 893 l 465 985 l 660 985 l 513 793 l 294 793 m 54 0 l 54 711 l 272 711 l 272 614 l 276 614 q 496 732 358 732 q 677 658 611 732 q 743 463 743 583 l 743 0 l 517 0 l 517 417 q 488 509 517 475 q 406 543 460 543 q 315 501 350 543 q 281 393 281 460 l 281 0 l 54 0 z "},"ŉ":{"ha":792,"x_min":-58,"x_max":743,"o":"m 54 0 l 54 711 l 272 711 l 272 614 l 276 614 q 496 732 358 732 q 677 658 611 732 q 743 463 743 583 l 743 0 l 517 0 l 517 417 q 488 509 517 475 q 406 543 460 543 q 315 501 350 543 q 281 393 281 460 l 281 0 l 54 0 m -58 719 l -58 788 q 25 849 25 797 l -57 849 l -57 993 l 122 993 l 122 879 q -58 719 122 729 z "},"Ō":{"ha":1038,"x_min":28,"x_max":1010,"o":"m 319 1058 l 319 1199 l 717 1199 l 717 1058 l 319 1058 m 519 176 q 698 265 636 176 q 760 494 760 353 q 698 725 760 636 q 519 814 636 814 q 341 725 404 814 q 278 494 278 636 q 341 265 278 354 q 519 176 404 176 m 875 122 q 808 49 875 122 q 518 -24 740 -24 q 162 122 296 -24 q 28 494 28 268 q 162 867 28 721 q 518 1013 296 1013 q 875 867 740 1013 q 1010 494 1010 721 q 875 122 1010 268 z "},"ō":{"ha":804,"x_min":22,"x_max":782,"o":"m 204 815 l 204 956 l 601 956 l 601 815 l 204 815 m 290 197 q 310 168 290 197 q 401 139 329 139 q 513 197 474 139 q 553 354 553 256 q 513 512 553 453 q 401 571 474 571 q 290 513 329 571 q 251 354 251 454 q 290 197 251 256 m 677 85 q 625 31 677 85 q 403 -22 572 -22 q 128 85 233 -22 q 22 354 22 192 q 128 624 22 517 q 403 731 233 731 q 677 624 572 731 q 782 354 782 517 q 677 85 782 192 z "},"Ŏ":{"ha":1038,"x_min":28,"x_max":1010,"o":"m 678 1090 q 647 1061 678 1090 q 521 1033 617 1033 q 361 1089 425 1033 q 294 1235 297 1144 l 422 1235 q 451 1188 425 1206 q 519 1169 476 1169 q 586 1188 560 1169 q 615 1235 613 1207 l 743 1235 q 678 1090 739 1146 m 519 176 q 698 265 636 176 q 760 494 760 353 q 698 725 760 636 q 519 814 636 814 q 341 725 404 814 q 278 494 278 636 q 341 265 278 354 q 519 176 404 176 m 875 122 q 808 49 875 122 q 518 -24 740 -24 q 162 122 296 -24 q 28 494 28 268 q 162 867 28 721 q 518 1013 296 1013 q 875 867 740 1013 q 1010 494 1010 721 q 875 122 1010 268 z "},"ŏ":{"ha":804,"x_min":22,"x_max":782,"o":"m 290 197 q 310 168 290 197 q 401 139 329 139 q 513 197 474 139 q 553 354 553 256 q 513 512 553 453 q 401 571 474 571 q 290 513 329 571 q 251 354 251 454 q 290 197 251 256 m 677 85 q 625 31 677 85 q 403 -22 572 -22 q 128 85 233 -22 q 22 354 22 192 q 128 624 22 517 q 403 731 233 731 q 677 624 572 731 q 782 354 782 517 q 677 85 782 192 m 561 842 q 531 814 561 842 q 404 786 500 786 q 244 842 308 786 q 178 988 181 897 l 306 988 q 334 940 308 958 q 403 922 360 922 q 469 941 443 922 q 499 988 496 960 l 626 988 q 561 842 622 899 z "},"Ő":{"ha":1038,"x_min":28,"x_max":1010,"o":"m 519 176 q 698 265 636 176 q 760 494 760 353 q 698 725 760 636 q 519 814 636 814 q 341 725 404 814 q 278 494 278 636 q 341 265 278 354 q 519 176 404 176 m 875 122 q 808 49 875 122 q 518 -24 740 -24 q 162 122 296 -24 q 28 494 28 268 q 162 867 28 721 q 518 1013 296 1013 q 875 867 740 1013 q 1010 494 1010 721 q 875 122 1010 268 m 307 1042 l 369 1236 l 589 1236 l 447 1042 l 307 1042 m 578 1042 l 642 1236 l 861 1236 l 718 1042 l 578 1042 z "},"ő":{"ha":804,"x_min":22,"x_max":782,"o":"m 192 794 l 260 1000 l 479 1000 l 332 794 l 192 794 m 463 794 l 531 1000 l 750 1000 l 603 794 l 463 794 m 290 197 q 310 168 290 197 q 401 139 329 139 q 513 197 474 139 q 553 354 553 256 q 513 512 553 453 q 401 571 474 571 q 290 513 329 571 q 251 354 251 454 q 290 197 251 256 m 677 85 q 625 31 677 85 q 403 -22 572 -22 q 128 85 233 -22 q 22 354 22 192 q 128 624 22 517 q 403 731 233 731 q 677 624 572 731 q 782 354 782 517 q 677 85 782 192 z "},"Œ":{"ha":1496,"x_min":28,"x_max":1453,"o":"m 496 -24 q 159 123 290 -24 q 28 494 28 269 q 157 865 28 718 q 485 1013 286 1013 q 735 924 636 1013 l 735 993 l 1439 993 l 1439 789 l 965 789 l 965 610 l 1365 610 l 1365 419 l 965 419 l 965 215 l 1453 215 l 1453 0 l 735 0 l 735 69 q 496 -24 632 -24 m 511 176 q 643 213 590 176 q 719 299 696 249 l 719 688 q 511 814 654 814 q 339 724 400 814 q 278 494 278 635 q 339 265 278 354 q 511 176 400 176 z "},"œ":{"ha":1303,"x_min":22,"x_max":1282,"o":"m 403 -22 q 128 85 233 -22 q 22 354 22 192 q 128 624 22 517 q 403 731 233 731 q 661 628 565 731 q 911 732 758 732 q 1156 643 1058 732 q 1279 297 1282 528 l 768 297 q 929 142 793 142 q 1047 213 1014 142 l 1267 213 q 1149 44 1244 113 q 925 -21 1056 -21 q 663 82 761 -21 q 403 -22 565 -22 m 290 197 q 310 168 290 197 q 401 139 329 139 q 513 197 474 139 q 553 354 553 256 q 513 512 553 453 q 401 571 474 571 q 290 513 329 571 q 251 354 251 454 q 290 197 251 256 m 769 432 l 1050 432 q 1007 533 1043 496 q 915 571 971 571 q 769 432 794 571 z "},"Ŕ":{"ha":932,"x_min":68,"x_max":904,"o":"m 68 0 l 68 993 l 543 993 q 793 917 696 993 q 890 707 890 842 q 718 467 890 526 l 718 463 q 863 281 843 421 q 874 160 871 232 q 883 53 878 89 q 904 13 889 18 l 904 0 l 665 0 q 648 40 654 7 q 638 135 642 74 q 628 231 633 196 q 463 372 608 372 l 314 372 l 314 0 l 68 0 m 314 554 l 499 554 q 608 586 571 554 q 646 675 646 618 q 610 765 646 731 q 504 799 574 799 l 314 799 l 314 554 m 365 1042 l 425 1222 l 685 1222 l 538 1042 l 365 1042 z "},"ŕ":{"ha":532,"x_min":54,"x_max":553,"o":"m 213 794 l 292 1000 l 553 1000 l 385 794 l 213 794 m 54 0 l 54 711 l 271 711 l 271 600 l 275 600 q 469 722 347 722 q 514 717 501 722 l 514 522 l 508 522 q 342 485 403 538 q 281 319 281 433 l 281 0 l 54 0 z "},"Ŗ":{"ha":932,"x_min":68,"x_max":904,"o":"m 372 -365 l 372 -299 q 464 -215 464 -278 l 376 -215 l 376 -65 l 567 -65 l 567 -186 q 513 -315 567 -271 q 372 -365 458 -358 m 68 0 l 68 993 l 543 993 q 793 917 696 993 q 890 707 890 842 q 718 467 890 526 l 718 463 q 863 281 843 421 q 874 160 871 232 q 883 53 878 89 q 904 13 889 18 l 904 0 l 665 0 q 648 40 654 7 q 638 135 642 74 q 628 231 633 196 q 463 372 608 372 l 314 372 l 314 0 l 68 0 m 314 554 l 499 554 q 608 586 571 554 q 646 675 646 618 q 610 765 646 731 q 504 799 574 799 l 314 799 l 314 554 z "},"ŗ":{"ha":532,"x_min":54,"x_max":514,"o":"m 64 -365 l 64 -299 q 156 -215 156 -278 l 68 -215 l 68 -65 l 258 -65 l 258 -186 q 204 -315 258 -271 q 64 -365 150 -358 m 54 0 l 54 711 l 271 711 l 271 600 l 275 600 q 469 722 347 722 q 514 717 501 722 l 514 522 l 508 522 q 342 485 403 538 q 281 319 281 433 l 281 0 l 54 0 z "},"Ř":{"ha":932,"x_min":68,"x_max":904,"o":"m 349 1042 l 201 1215 l 392 1215 l 454 1140 l 457 1140 l 519 1215 l 714 1215 l 567 1042 l 349 1042 m 68 0 l 68 993 l 543 993 q 793 917 696 993 q 890 707 890 842 q 718 467 890 526 l 718 463 q 863 281 843 421 q 874 160 871 232 q 883 53 878 89 q 904 13 889 18 l 904 0 l 665 0 q 648 40 654 7 q 638 135 642 74 q 628 231 633 196 q 463 372 608 372 l 314 372 l 314 0 l 68 0 m 314 554 l 499 554 q 608 586 571 554 q 646 675 646 618 q 610 765 646 731 q 504 799 574 799 l 314 799 l 314 554 z "},"ř":{"ha":532,"x_min":47,"x_max":560,"o":"m 194 793 l 47 985 l 238 985 l 300 893 l 303 893 l 365 985 l 560 985 l 413 793 l 194 793 m 54 0 l 54 711 l 271 711 l 271 600 l 275 600 q 469 722 347 722 q 514 717 501 722 l 514 522 l 508 522 q 342 485 403 538 q 281 319 281 433 l 281 0 l 54 0 z "},"Ś":{"ha":903,"x_min":21,"x_max":871,"o":"m 464 -24 q 144 63 263 -24 q 21 313 25 150 l 268 313 q 463 171 283 171 q 576 197 529 171 q 622 275 622 222 q 593 335 622 311 q 534 369 564 360 q 421 400 504 379 q 415 402 417 401 q 411 403 414 403 q 406 404 408 404 q 301 431 342 419 q 208 467 260 443 q 125 521 156 492 q 73 598 94 550 q 51 706 51 646 q 160 935 51 858 q 446 1011 269 1011 q 723 933 615 1011 q 838 706 831 856 l 597 706 q 549 794 590 763 q 438 825 507 825 q 334 799 374 825 q 294 732 294 774 q 342 663 294 685 q 519 613 389 642 q 654 574 601 593 q 762 521 707 556 q 844 431 817 486 q 871 300 871 376 q 756 63 871 149 q 464 -24 642 -24 m 356 1042 l 415 1222 l 675 1222 l 528 1042 l 356 1042 z "},"ś":{"ha":700,"x_min":11,"x_max":681,"o":"m 257 794 l 336 1000 l 597 1000 l 429 794 l 257 794 m 357 -22 q 109 45 201 -22 q 11 231 17 113 l 225 231 q 356 125 238 125 q 437 144 407 125 q 467 196 467 163 q 464 215 467 207 q 454 231 461 224 q 441 243 447 238 q 422 253 435 249 q 401 261 410 258 q 374 267 392 264 q 347 273 357 271 q 317 278 338 275 q 286 283 296 282 q 211 298 242 290 q 144 322 181 306 q 84 360 107 339 q 46 419 61 382 q 31 504 31 456 q 118 672 31 613 q 338 732 206 732 q 568 672 486 732 q 658 504 650 611 l 450 504 q 336 588 439 588 q 265 571 292 588 q 238 522 238 554 q 240 507 238 514 q 249 494 243 500 q 262 485 256 489 q 279 476 268 481 q 299 469 290 472 q 324 464 308 467 q 351 459 340 461 q 379 453 361 457 q 408 449 397 450 q 486 433 456 440 q 558 409 517 426 q 622 369 599 392 q 663 306 646 346 q 681 214 681 267 q 591 39 681 100 q 357 -22 501 -22 z "},"Ŝ":{"ha":903,"x_min":21,"x_max":871,"o":"m 464 -24 q 144 63 263 -24 q 21 313 25 150 l 268 313 q 463 171 283 171 q 576 197 529 171 q 622 275 622 222 q 593 335 622 311 q 534 369 564 360 q 421 400 504 379 q 415 402 417 401 q 411 403 414 403 q 406 404 408 404 q 301 431 342 419 q 208 467 260 443 q 125 521 156 492 q 73 598 94 550 q 51 706 51 646 q 160 935 51 858 q 446 1011 269 1011 q 723 933 615 1011 q 838 706 831 856 l 597 706 q 549 794 590 763 q 438 825 507 825 q 334 799 374 825 q 294 732 294 774 q 342 663 294 685 q 519 613 389 642 q 654 574 601 593 q 762 521 707 556 q 844 431 817 486 q 871 300 871 376 q 756 63 871 149 q 464 -24 642 -24 m 190 1042 l 339 1215 l 556 1215 l 704 1042 l 514 1042 l 451 1117 l 449 1117 l 385 1042 l 190 1042 z "},"ŝ":{"ha":700,"x_min":11,"x_max":681,"o":"m 92 797 l 240 988 l 457 988 l 606 797 l 415 797 l 353 889 l 350 889 l 286 797 l 92 797 m 357 -22 q 109 45 201 -22 q 11 231 17 113 l 225 231 q 356 125 238 125 q 437 144 407 125 q 467 196 467 163 q 464 215 467 207 q 454 231 461 224 q 441 243 447 238 q 422 253 435 249 q 401 261 410 258 q 374 267 392 264 q 347 273 357 271 q 317 278 338 275 q 286 283 296 282 q 211 298 242 290 q 144 322 181 306 q 84 360 107 339 q 46 419 61 382 q 31 504 31 456 q 118 672 31 613 q 338 732 206 732 q 568 672 486 732 q 658 504 650 611 l 450 504 q 336 588 439 588 q 265 571 292 588 q 238 522 238 554 q 240 507 238 514 q 249 494 243 500 q 262 485 256 489 q 279 476 268 481 q 299 469 290 472 q 324 464 308 467 q 351 459 340 461 q 379 453 361 457 q 408 449 397 450 q 486 433 456 440 q 558 409 517 426 q 622 369 599 392 q 663 306 646 346 q 681 214 681 267 q 591 39 681 100 q 357 -22 501 -22 z "},"Ş":{"ha":903,"x_min":21,"x_max":871,"o":"m 414 -268 q 258 -228 325 -268 l 286 -179 q 382 -200 331 -200 q 457 -160 457 -200 q 404 -122 457 -122 q 356 -132 382 -122 l 332 -99 l 408 -21 q 127 76 231 -10 q 21 313 24 163 l 268 313 q 463 171 283 171 q 576 197 529 171 q 622 275 622 222 q 593 335 622 311 q 534 369 564 360 q 421 400 504 379 q 415 402 417 401 q 411 403 414 403 q 406 404 408 404 q 301 431 342 419 q 208 467 260 443 q 125 521 156 492 q 73 598 94 550 q 51 706 51 646 q 160 935 51 858 q 446 1011 269 1011 q 723 933 615 1011 q 838 706 831 856 l 597 706 q 549 794 590 763 q 438 825 507 825 q 334 799 374 825 q 294 732 294 774 q 342 663 294 685 q 519 613 389 642 q 654 574 601 593 q 762 521 707 556 q 844 431 817 486 q 871 300 871 376 q 765 69 871 154 q 490 -22 658 -15 l 440 -65 l 440 -68 q 545 -85 503 -61 q 588 -161 588 -110 q 539 -239 588 -210 q 414 -268 490 -268 z "},"ş":{"ha":700,"x_min":11,"x_max":681,"o":"m 315 -268 q 160 -228 226 -268 l 188 -179 q 283 -200 232 -200 q 358 -160 358 -200 q 306 -122 358 -122 q 257 -132 283 -122 l 233 -99 l 311 -21 q 94 56 174 -10 q 11 231 15 122 l 225 231 q 356 125 238 125 q 437 144 407 125 q 467 196 467 163 q 464 215 467 207 q 454 231 461 224 q 441 243 447 238 q 422 253 435 249 q 401 261 410 258 q 374 267 392 264 q 347 273 357 271 q 317 278 338 275 q 286 283 296 282 q 211 298 242 290 q 144 322 181 306 q 84 360 107 339 q 46 419 61 382 q 31 504 31 456 q 118 672 31 613 q 338 732 206 732 q 568 672 486 732 q 658 504 650 611 l 450 504 q 336 588 439 588 q 265 571 292 588 q 238 522 238 554 q 240 507 238 514 q 249 494 243 500 q 262 485 256 489 q 279 476 268 481 q 299 469 290 472 q 324 464 308 467 q 351 459 340 461 q 379 453 361 457 q 408 449 397 450 q 486 433 456 440 q 558 409 517 426 q 622 369 599 392 q 663 306 646 346 q 681 214 681 267 q 603 48 681 108 q 394 -21 525 -12 l 342 -65 l 342 -68 q 447 -85 404 -61 q 489 -161 489 -110 q 440 -239 489 -210 q 315 -268 392 -268 z "},"Š":{"ha":903,"x_min":21,"x_max":871,"o":"m 464 -24 q 144 63 263 -24 q 21 313 25 150 l 268 313 q 463 171 283 171 q 576 197 529 171 q 622 275 622 222 q 593 335 622 311 q 534 369 564 360 q 421 400 504 379 q 415 402 417 401 q 411 403 414 403 q 406 404 408 404 q 301 431 342 419 q 208 467 260 443 q 125 521 156 492 q 73 598 94 550 q 51 706 51 646 q 160 935 51 858 q 446 1011 269 1011 q 723 933 615 1011 q 838 706 831 856 l 597 706 q 549 794 590 763 q 438 825 507 825 q 334 799 374 825 q 294 732 294 774 q 342 663 294 685 q 519 613 389 642 q 654 574 601 593 q 762 521 707 556 q 844 431 817 486 q 871 300 871 376 q 756 63 871 149 q 464 -24 642 -24 m 339 1042 l 192 1215 l 382 1215 l 444 1140 l 447 1140 l 510 1215 l 704 1215 l 557 1042 l 339 1042 z "},"š":{"ha":700,"x_min":11,"x_max":681,"o":"m 239 793 l 92 985 l 282 985 l 344 893 l 347 893 l 410 985 l 604 985 l 457 793 l 239 793 m 357 -22 q 109 45 201 -22 q 11 231 17 113 l 225 231 q 356 125 238 125 q 437 144 407 125 q 467 196 467 163 q 464 215 467 207 q 454 231 461 224 q 441 243 447 238 q 422 253 435 249 q 401 261 410 258 q 374 267 392 264 q 347 273 357 271 q 317 278 338 275 q 286 283 296 282 q 211 298 242 290 q 144 322 181 306 q 84 360 107 339 q 46 419 61 382 q 31 504 31 456 q 118 672 31 613 q 338 732 206 732 q 568 672 486 732 q 658 504 650 611 l 450 504 q 336 588 439 588 q 265 571 292 588 q 238 522 238 554 q 240 507 238 514 q 249 494 243 500 q 262 485 256 489 q 279 476 268 481 q 299 469 290 472 q 324 464 308 467 q 351 459 340 461 q 379 453 361 457 q 408 449 397 450 q 486 433 456 440 q 558 409 517 426 q 622 369 599 392 q 663 306 646 346 q 681 214 681 267 q 591 39 681 100 q 357 -22 501 -22 z "},"Ţ":{"ha":874,"x_min":24,"x_max":850,"o":"m 339 -365 l 339 -299 q 431 -215 431 -278 l 343 -215 l 343 -65 l 533 -65 l 533 -186 q 479 -315 533 -271 q 339 -365 425 -358 m 313 0 l 313 785 l 24 785 l 24 993 l 850 993 l 850 785 l 558 785 l 558 0 l 313 0 z "},"ţ":{"ha":488,"x_min":15,"x_max":460,"o":"m 174 -365 l 174 -299 q 265 -215 265 -278 l 178 -215 l 178 -65 l 368 -65 l 368 -186 q 314 -315 368 -271 q 174 -365 260 -358 m 336 -8 q 169 35 228 -8 q 110 188 110 79 l 110 569 l 15 569 l 15 711 l 110 711 l 110 936 l 331 936 l 331 711 l 460 711 l 460 569 l 331 569 l 331 236 q 351 182 331 197 q 410 167 371 167 q 439 167 421 167 q 460 168 457 168 l 460 3 q 336 -8 421 -8 z "},"Ť":{"ha":874,"x_min":24,"x_max":850,"o":"m 328 1042 l 181 1215 l 371 1215 l 433 1140 l 436 1140 l 499 1215 l 693 1215 l 546 1042 l 328 1042 m 313 0 l 313 785 l 24 785 l 24 993 l 850 993 l 850 785 l 558 785 l 558 0 l 313 0 z "},"ť":{"ha":488,"x_min":15,"x_max":554,"o":"m 15 569 l 15 711 l 110 711 l 110 936 l 331 936 l 331 711 l 460 711 l 460 569 l 331 569 l 331 236 q 410 167 331 167 q 440 167 421 167 q 460 168 458 168 l 460 3 q 336 -8 421 -8 q 169 35 228 -8 q 110 188 110 79 l 110 569 l 15 569 m 379 740 l 379 806 q 460 861 460 815 l 381 861 l 381 993 l 554 993 l 554 886 q 507 780 554 817 q 379 740 460 743 z "},"Ŧ":{"ha":874,"x_min":24,"x_max":850,"o":"m 126 410 l 126 556 l 313 556 l 313 785 l 24 785 l 24 993 l 850 993 l 850 785 l 558 785 l 558 556 l 747 556 l 747 410 l 558 410 l 558 0 l 313 0 l 313 410 l 126 410 z "},"ŧ":{"ha":488,"x_min":14,"x_max":460,"o":"m 15 569 l 15 711 l 110 711 l 110 936 l 331 936 l 331 711 l 460 711 l 460 569 l 331 569 l 331 485 l 460 485 l 460 371 l 331 371 l 331 236 q 410 167 331 167 q 439 167 421 167 q 460 168 457 168 l 460 3 q 336 -8 421 -8 q 169 35 228 -8 q 110 188 110 79 l 110 371 l 14 371 l 14 485 l 110 485 l 110 569 l 15 569 z "},"Ũ":{"ha":953,"x_min":61,"x_max":892,"o":"m 478 -18 q 167 78 272 -18 q 61 350 61 174 l 61 993 l 307 993 l 307 342 q 478 179 307 179 q 603 224 560 179 q 646 346 646 269 l 646 993 l 892 993 l 892 350 q 787 78 892 175 q 478 -18 682 -18 m 389 1042 q 389 1124 378 1094 q 425 1158 400 1154 l 432 1163 q 485 1211 442 1192 q 560 1231 529 1231 q 565 1153 572 1185 q 528 1115 557 1121 q 517 1110 522 1110 q 465 1062 508 1082 q 389 1042 421 1042 m 458 1122 q 458 1125 464 1122 l 456 1126 q 458 1122 456 1125 m 493 1151 q 496 1147 488 1151 q 493 1151 493 1150 z "},"ũ":{"ha":786,"x_min":49,"x_max":732,"o":"m 299 -21 q 113 51 178 -21 q 49 244 49 122 l 49 711 l 274 711 l 274 292 q 381 171 274 171 q 472 210 439 171 q 506 314 506 250 l 506 711 l 732 711 l 732 0 l 515 0 l 515 88 l 511 88 q 299 -21 431 -21 m 161 793 q 201 932 161 883 q 304 981 242 981 q 396 954 349 981 q 464 929 446 929 q 506 978 499 929 l 622 978 q 586 844 622 894 q 483 794 550 794 q 392 817 444 794 q 319 843 335 843 q 278 793 285 843 l 161 793 z "},"Ū":{"ha":953,"x_min":61,"x_max":892,"o":"m 276 1058 l 276 1199 l 674 1199 l 674 1058 l 276 1058 m 478 -18 q 167 78 272 -18 q 61 350 61 174 l 61 993 l 307 993 l 307 342 q 478 179 307 179 q 603 224 560 179 q 646 346 646 269 l 646 993 l 892 993 l 892 350 q 787 78 892 175 q 478 -18 682 -18 z "},"ū":{"ha":786,"x_min":49,"x_max":732,"o":"m 299 -21 q 113 51 178 -21 q 49 244 49 122 l 49 711 l 274 711 l 274 292 q 381 171 274 171 q 472 210 439 171 q 506 314 506 250 l 506 711 l 732 711 l 732 0 l 515 0 l 515 88 l 511 88 q 299 -21 431 -21 m 193 815 l 193 956 l 590 956 l 590 815 l 193 815 z "},"Ŭ":{"ha":953,"x_min":61,"x_max":892,"o":"m 635 1090 q 604 1061 635 1090 q 478 1033 574 1033 q 318 1089 382 1033 q 251 1235 254 1144 l 379 1235 q 408 1188 382 1206 q 476 1169 433 1169 q 543 1188 517 1169 q 572 1235 569 1207 l 700 1235 q 635 1090 696 1146 m 478 -18 q 167 78 272 -18 q 61 350 61 174 l 61 993 l 307 993 l 307 342 q 478 179 307 179 q 603 224 560 179 q 646 346 646 269 l 646 993 l 892 993 l 892 350 q 787 78 892 175 q 478 -18 682 -18 z "},"ŭ":{"ha":786,"x_min":49,"x_max":732,"o":"m 299 -21 q 113 51 178 -21 q 49 244 49 122 l 49 711 l 274 711 l 274 292 q 381 171 274 171 q 472 210 439 171 q 506 314 506 250 l 506 711 l 732 711 l 732 0 l 515 0 l 515 88 l 511 88 q 299 -21 431 -21 m 550 842 q 519 814 550 842 q 393 786 489 786 q 233 842 297 786 q 167 988 169 897 l 294 988 q 323 940 297 958 q 392 922 349 922 q 458 941 432 922 q 488 988 485 960 l 615 988 q 550 842 611 899 z "},"Ů":{"ha":953,"x_min":61,"x_max":892,"o":"m 478 -18 q 167 78 272 -18 q 61 350 61 174 l 61 993 l 307 993 l 307 342 q 478 179 307 179 q 603 224 560 179 q 646 346 646 269 l 646 993 l 892 993 l 892 350 q 787 78 892 175 q 478 -18 682 -18 m 434 1103 q 442 1095 434 1103 q 475 1086 450 1086 q 517 1103 500 1086 q 533 1146 533 1121 q 517 1188 533 1171 q 475 1206 500 1206 q 434 1188 450 1206 q 418 1146 418 1171 q 434 1103 418 1121 m 575 1049 q 554 1029 575 1049 q 475 1010 533 1010 q 375 1049 417 1010 q 333 1146 333 1089 q 375 1242 333 1203 q 475 1282 417 1282 q 575 1242 533 1282 q 617 1146 617 1203 q 575 1049 617 1088 z "},"ů":{"ha":786,"x_min":49,"x_max":732,"o":"m 349 869 q 357 861 349 869 q 390 853 365 853 q 432 869 415 853 q 449 911 449 886 q 432 953 449 936 q 390 971 415 971 q 349 953 365 971 q 333 911 333 936 q 349 869 333 886 m 490 815 q 469 795 490 815 q 390 775 449 775 q 290 815 332 775 q 249 911 249 854 q 290 1008 249 968 q 390 1049 332 1049 q 490 1008 449 1049 q 532 911 532 968 q 490 815 532 854 m 299 -21 q 113 51 178 -21 q 49 244 49 122 l 49 711 l 274 711 l 274 292 q 381 171 274 171 q 472 210 439 171 q 506 314 506 250 l 506 711 l 732 711 l 732 0 l 515 0 l 515 88 l 511 88 q 299 -21 431 -21 z "},"Ű":{"ha":953,"x_min":61,"x_max":892,"o":"m 478 -18 q 167 78 272 -18 q 61 350 61 174 l 61 993 l 307 993 l 307 342 q 478 179 307 179 q 603 224 560 179 q 646 346 646 269 l 646 993 l 892 993 l 892 350 q 787 78 892 175 q 478 -18 682 -18 m 264 1042 l 326 1236 l 546 1236 l 404 1042 l 264 1042 m 535 1042 l 599 1236 l 818 1236 l 675 1042 l 535 1042 z "},"ű":{"ha":786,"x_min":49,"x_max":739,"o":"m 299 -21 q 113 51 178 -21 q 49 244 49 122 l 49 711 l 274 711 l 274 292 q 381 171 274 171 q 472 210 439 171 q 506 314 506 250 l 506 711 l 732 711 l 732 0 l 515 0 l 515 88 l 511 88 q 299 -21 431 -21 m 181 794 l 249 1000 l 468 1000 l 321 794 l 181 794 m 451 794 l 519 1000 l 739 1000 l 592 794 l 451 794 z "},"Ų":{"ha":953,"x_min":61,"x_max":892,"o":"m 554 -246 q 383 -129 383 -246 q 444 -17 383 -67 q 158 85 256 -10 q 61 350 61 181 l 61 993 l 307 993 l 307 342 q 478 179 307 179 q 603 224 560 179 q 646 346 646 269 l 646 993 l 892 993 l 892 350 q 696 25 892 111 q 594 -33 622 -11 q 565 -87 565 -56 q 604 -122 565 -122 q 640 -115 624 -122 l 642 -115 l 642 -233 q 554 -246 610 -246 z "},"ų":{"ha":786,"x_min":49,"x_max":736,"o":"m 647 -246 q 479 -129 479 -246 q 578 0 479 -46 l 515 0 l 515 88 l 511 88 q 299 -21 431 -21 q 113 51 178 -21 q 49 244 49 122 l 49 711 l 274 711 l 274 292 q 381 171 274 171 q 472 210 439 171 q 506 314 506 250 l 506 711 l 732 711 l 732 8 q 660 -87 660 -42 q 699 -122 660 -122 q 735 -115 718 -122 l 736 -115 l 736 -233 q 647 -246 704 -246 z "},"Ŵ":{"ha":1306,"x_min":0,"x_max":1306,"o":"m 272 0 l 0 993 l 249 993 l 349 576 l 394 331 l 397 331 q 446 567 424 467 l 539 993 l 767 993 l 860 569 l 907 331 l 910 331 q 960 579 938 481 l 1058 993 l 1306 993 l 1033 0 l 793 0 l 689 476 l 654 661 l 651 661 q 618 476 635 556 l 514 0 l 272 0 m 396 1042 l 544 1215 l 761 1215 l 910 1042 l 719 1042 l 657 1117 l 654 1117 l 590 1042 l 396 1042 z "},"ŵ":{"ha":1088,"x_min":-3,"x_max":1089,"o":"m 286 797 l 435 988 l 651 988 l 800 797 l 610 797 l 547 889 l 544 889 l 481 797 l 286 797 m 215 0 l -3 711 l 228 711 l 306 417 l 338 279 l 340 279 q 372 421 357 361 l 447 711 l 639 711 l 717 421 l 750 278 l 753 278 q 786 417 771 360 l 865 711 l 1089 711 l 871 0 l 658 0 l 575 322 l 544 450 l 542 450 q 510 322 525 378 l 425 0 l 215 0 z "},"Ŷ":{"ha":921,"x_min":1,"x_max":919,"o":"m 338 0 l 338 367 l 1 993 l 269 993 l 397 736 l 463 585 l 465 585 q 533 736 500 668 l 660 993 l 919 993 l 583 367 l 583 0 l 338 0 m 206 1042 l 354 1215 l 571 1215 l 719 1042 l 529 1042 l 467 1117 l 464 1117 l 400 1042 l 206 1042 z "},"ŷ":{"ha":735,"x_min":-4,"x_max":739,"o":"m 78 -235 l 78 -58 l 156 -58 q 249 17 249 -58 q 206 164 249 53 l -4 711 l 235 711 l 331 408 l 375 244 l 378 244 q 419 408 397 339 l 513 711 l 739 711 l 493 -10 q 391 -185 450 -135 q 225 -235 332 -235 l 78 -235 m 114 797 l 263 988 l 479 988 l 628 797 l 438 797 l 375 889 l 372 889 l 308 797 l 114 797 z "},"Ÿ":{"ha":921,"x_min":1,"x_max":919,"o":"m 338 0 l 338 367 l 1 993 l 269 993 l 397 736 l 463 585 l 465 585 q 533 736 500 668 l 660 993 l 919 993 l 583 367 l 583 0 l 338 0 m 207 1046 l 207 1224 l 419 1224 l 419 1046 l 207 1046 m 506 1046 l 506 1224 l 718 1224 l 718 1046 l 506 1046 z "},"Ź":{"ha":900,"x_min":36,"x_max":863,"o":"m 36 0 l 36 196 l 465 710 l 532 783 l 532 788 q 438 785 460 785 l 71 785 l 71 993 l 844 993 l 844 800 l 428 300 l 347 211 l 347 207 q 457 210 426 210 l 863 210 l 863 0 l 36 0 m 369 1042 l 429 1222 l 689 1222 l 542 1042 l 369 1042 z "},"ź":{"ha":701,"x_min":33,"x_max":671,"o":"m 282 794 l 361 1000 l 622 1000 l 454 794 l 282 794 m 33 0 l 33 168 l 315 472 l 376 535 l 376 539 q 289 538 311 538 l 67 538 l 67 711 l 650 711 l 650 544 l 381 251 l 308 178 l 308 174 q 414 175 382 175 l 671 175 l 671 0 l 33 0 z "},"Ż":{"ha":900,"x_min":36,"x_max":863,"o":"m 349 1046 l 349 1226 l 574 1226 l 574 1046 l 349 1046 m 36 0 l 36 196 l 465 710 l 532 783 l 532 788 q 438 785 460 785 l 71 785 l 71 993 l 844 993 l 844 800 l 428 300 l 347 211 l 347 207 q 457 210 426 210 l 863 210 l 863 0 l 36 0 z "},"ż":{"ha":701,"x_min":33,"x_max":671,"o":"m 33 0 l 33 168 l 315 472 l 376 535 l 376 539 q 289 538 311 538 l 67 538 l 67 711 l 650 711 l 650 544 l 381 251 l 308 178 l 308 174 q 414 175 382 175 l 671 175 l 671 0 l 33 0 m 261 810 l 261 993 l 486 993 l 486 810 l 261 810 z "},"Ž":{"ha":900,"x_min":36,"x_max":863,"o":"m 353 1042 l 206 1215 l 396 1215 l 458 1140 l 461 1140 l 524 1215 l 718 1215 l 571 1042 l 353 1042 m 36 0 l 36 196 l 465 710 l 532 783 l 532 788 q 438 785 460 785 l 71 785 l 71 993 l 844 993 l 844 800 l 428 300 l 347 211 l 347 207 q 457 210 426 210 l 863 210 l 863 0 l 36 0 z "},"ž":{"ha":701,"x_min":33,"x_max":671,"o":"m 265 793 l 118 985 l 308 985 l 371 893 l 374 893 l 436 985 l 631 985 l 483 793 l 265 793 m 33 0 l 33 168 l 315 472 l 376 535 l 376 539 q 289 538 311 538 l 67 538 l 67 711 l 650 711 l 650 544 l 381 251 l 308 178 l 308 174 q 414 175 382 175 l 671 175 l 671 0 l 33 0 z "},"ƒ":{"ha":590,"x_min":-24,"x_max":558,"o":"m -24 -210 l -24 -62 q 54 -53 31 -67 q 85 11 78 -40 l 147 438 l 40 438 l 40 579 l 168 579 l 194 758 q 271 917 208 865 q 558 963 354 988 l 558 804 q 490 805 518 807 q 444 786 461 803 q 422 733 428 769 l 400 579 l 535 579 l 535 438 l 379 438 l 314 -15 q 233 -179 297 -131 q -24 -210 161 -233 z "},"Ǽ":{"ha":1382,"x_min":-1,"x_max":1342,"o":"m 726 1042 l 786 1222 l 1046 1222 l 899 1042 l 726 1042 m -1 0 l 335 993 l 1326 993 l 1326 789 l 847 789 l 847 610 l 1254 610 l 1254 419 l 847 419 l 847 215 l 1342 215 l 1342 0 l 599 0 l 599 175 l 299 175 l 242 0 l -1 0 m 354 346 l 599 346 l 599 789 l 497 789 l 354 346 z "},"ǽ":{"ha":1229,"x_min":25,"x_max":1213,"o":"m 539 794 l 618 1000 l 879 1000 l 711 794 l 539 794 m 296 -19 q 99 38 172 -19 q 25 199 25 94 q 97 356 25 307 q 299 422 168 404 q 446 451 408 436 q 483 501 483 467 q 383 578 483 578 q 265 486 274 578 l 57 486 q 144 661 61 592 q 382 731 228 731 q 619 656 550 731 q 842 732 708 732 q 1074 654 981 732 q 1210 297 1213 539 l 699 297 q 860 142 724 142 q 978 213 944 142 l 1197 213 q 1085 50 1175 117 q 856 -21 993 -21 q 582 93 682 -21 q 462 7 526 33 q 296 -19 397 -19 m 340 126 q 447 162 406 126 q 489 254 489 197 l 489 339 q 368 301 457 322 q 269 266 297 286 q 240 206 240 246 q 340 126 240 126 m 846 571 q 700 432 725 571 l 981 432 q 938 533 974 496 q 846 571 901 571 z "},"Ǿ":{"ha":1038,"x_min":28,"x_max":1010,"o":"m 107 -49 l 31 21 l 142 146 q 28 494 28 286 q 162 867 28 721 q 518 1013 296 1013 q 824 913 697 1013 l 929 1031 l 1007 963 l 897 840 q 1010 494 1010 700 q 875 122 1010 268 q 518 -24 740 -24 q 215 74 343 -24 l 107 -49 m 306 329 l 678 749 q 519 814 615 814 q 341 725 404 814 q 278 494 278 636 q 306 329 278 399 m 519 176 q 698 265 636 176 q 760 494 760 353 q 733 656 760 586 l 363 239 q 519 176 422 176 m 426 1042 l 486 1222 l 746 1222 l 599 1042 l 426 1042 z "},"ǿ":{"ha":804,"x_min":22,"x_max":782,"o":"m 99 -50 l 38 10 l 117 97 q 22 354 22 200 q 128 624 22 517 q 403 731 233 731 q 626 665 528 731 l 707 754 l 768 696 l 690 610 q 782 354 782 506 q 677 85 782 192 q 403 -22 572 -22 q 181 42 278 -22 l 99 -50 m 401 139 q 513 197 474 139 q 553 354 553 256 q 542 443 553 401 l 304 179 q 401 139 340 139 m 264 263 l 503 526 q 401 571 463 571 q 290 513 329 571 q 251 354 251 454 q 264 263 251 301 m 311 794 l 390 1000 l 651 1000 l 483 794 l 311 794 z "},"Ș":{"ha":903,"x_min":21,"x_max":871,"o":"m 350 -365 l 350 -299 q 442 -215 442 -278 l 354 -215 l 354 -65 l 544 -65 l 544 -186 q 490 -315 544 -271 q 350 -365 436 -358 m 464 -24 q 144 63 263 -24 q 21 313 25 150 l 268 313 q 463 171 283 171 q 576 197 529 171 q 622 275 622 222 q 593 335 622 311 q 534 369 564 360 q 421 400 504 379 q 415 402 417 401 q 411 403 414 403 q 406 404 408 404 q 301 431 342 419 q 208 467 260 443 q 125 521 156 492 q 73 598 94 550 q 51 706 51 646 q 160 935 51 858 q 446 1011 269 1011 q 723 933 615 1011 q 838 706 831 856 l 597 706 q 549 794 590 763 q 438 825 507 825 q 334 799 374 825 q 294 732 294 774 q 342 663 294 685 q 519 613 389 642 q 654 574 601 593 q 762 521 707 556 q 844 431 817 486 q 871 300 871 376 q 756 63 871 149 q 464 -24 642 -24 z "},"ș":{"ha":700,"x_min":11,"x_max":681,"o":"m 251 -365 l 251 -299 q 343 -215 343 -278 l 256 -215 l 256 -65 l 446 -65 l 446 -186 q 392 -315 446 -271 q 251 -365 338 -358 m 357 -22 q 109 45 201 -22 q 11 231 17 113 l 225 231 q 356 125 238 125 q 437 144 407 125 q 467 196 467 163 q 464 215 467 207 q 454 231 461 224 q 441 243 447 238 q 422 253 435 249 q 401 261 410 258 q 374 267 392 264 q 347 273 357 271 q 317 278 338 275 q 286 283 296 282 q 211 298 242 290 q 144 322 181 306 q 84 360 107 339 q 46 419 61 382 q 31 504 31 456 q 118 672 31 613 q 338 732 206 732 q 568 672 486 732 q 658 504 650 611 l 450 504 q 336 588 439 588 q 265 571 292 588 q 238 522 238 554 q 240 507 238 514 q 249 494 243 500 q 262 485 256 489 q 279 476 268 481 q 299 469 290 472 q 324 464 308 467 q 351 459 340 461 q 379 453 361 457 q 408 449 397 450 q 486 433 456 440 q 558 409 517 426 q 622 369 599 392 q 663 306 646 346 q 681 214 681 267 q 591 39 681 100 q 357 -22 501 -22 z "},"Ț":{"ha":874,"x_min":24,"x_max":850,"o":"m 339 -365 l 339 -299 q 431 -215 431 -278 l 343 -215 l 343 -65 l 533 -65 l 533 -186 q 479 -315 533 -271 q 339 -365 425 -358 m 313 0 l 313 785 l 24 785 l 24 993 l 850 993 l 850 785 l 558 785 l 558 0 l 313 0 z "},"ț":{"ha":488,"x_min":15,"x_max":460,"o":"m 174 -365 l 174 -299 q 265 -215 265 -278 l 178 -215 l 178 -65 l 368 -65 l 368 -186 q 314 -315 368 -271 q 174 -365 260 -358 m 336 -8 q 169 35 228 -8 q 110 188 110 79 l 110 569 l 15 569 l 15 711 l 110 711 l 110 936 l 331 936 l 331 711 l 460 711 l 460 569 l 331 569 l 331 236 q 351 182 331 197 q 410 167 371 167 q 439 167 421 167 q 460 168 457 168 l 460 3 q 336 -8 421 -8 z "},"ȷ":{"ha":335,"x_min":-65,"x_max":281,"o":"m 63 -239 q -65 -228 -10 -239 l -65 -71 q -12 -69 -28 -71 q 23 -61 4 -68 q 48 -38 42 -54 q 54 6 54 -22 l 54 711 l 281 711 l 281 -6 q 226 -183 281 -126 q 63 -239 171 -239 z "},"ˆ":{"ha":694,"x_min":90,"x_max":604,"o":"m 90 797 l 239 988 l 456 988 l 604 797 l 414 797 l 351 889 l 349 889 l 285 797 l 90 797 z "},"ˇ":{"ha":694,"x_min":92,"x_max":604,"o":"m 239 793 l 92 985 l 282 985 l 344 893 l 347 893 l 410 985 l 604 985 l 457 793 l 239 793 z "},"ˉ":{"ha":694,"x_min":153,"x_max":550,"o":"m 153 822 l 153 963 l 550 963 l 550 822 l 153 822 z "},"˘":{"ha":694,"x_min":150,"x_max":599,"o":"m 533 842 q 503 814 533 842 q 376 786 472 786 q 217 842 281 786 q 150 988 153 897 l 278 988 q 306 940 281 958 q 375 922 332 922 q 442 941 415 922 q 471 988 468 960 l 599 988 q 533 842 594 899 z "},"˙":{"ha":694,"x_min":235,"x_max":460,"o":"m 235 810 l 235 993 l 460 993 l 460 810 l 235 810 z "},"˚":{"ha":694,"x_min":206,"x_max":489,"o":"m 306 869 q 314 861 306 869 q 347 853 322 853 q 389 869 372 853 q 406 911 406 886 q 389 953 406 936 q 347 971 372 971 q 306 953 322 971 q 290 911 290 936 q 306 869 290 886 m 447 815 q 426 795 447 815 q 347 775 406 775 q 247 815 289 775 q 206 911 206 854 q 247 1008 206 968 q 347 1049 289 1049 q 447 1008 406 1049 q 489 911 489 968 q 447 815 489 854 z "},"˛":{"ha":694,"x_min":168,"x_max":425,"o":"m 340 -246 q 168 -129 168 -246 q 265 0 168 -46 l 406 0 q 349 -87 349 -49 q 388 -122 349 -122 q 424 -115 407 -122 l 425 -115 l 425 -233 q 340 -246 393 -246 z "},"˜":{"ha":694,"x_min":117,"x_max":578,"o":"m 117 793 q 157 932 117 883 q 260 981 197 981 q 351 954 304 981 q 419 929 401 929 q 461 978 454 929 l 578 978 q 542 844 578 894 q 439 794 506 794 q 347 817 400 794 q 275 843 290 843 q 233 793 240 843 l 117 793 z "},"˝":{"ha":694,"x_min":133,"x_max":692,"o":"m 133 794 l 201 1000 l 421 1000 l 274 794 l 133 794 m 404 794 l 472 1000 l 692 1000 l 544 794 l 404 794 z "},"π":{"ha":879,"x_min":21,"x_max":846,"o":"m 736 -7 q 524 182 524 -7 l 524 569 l 340 569 l 340 0 l 119 0 l 119 569 l 21 569 l 21 711 l 846 711 l 846 569 l 744 569 l 744 217 q 756 172 744 185 q 796 158 768 158 q 832 161 818 158 l 832 3 q 736 -7 790 -7 z "},"Ẁ":{"ha":1306,"x_min":0,"x_max":1306,"o":"m 581 1042 l 433 1222 l 693 1222 l 753 1042 l 581 1042 m 272 0 l 0 993 l 249 993 l 349 576 l 394 331 l 397 331 q 446 567 424 467 l 539 993 l 767 993 l 860 569 l 907 331 l 910 331 q 960 579 938 481 l 1058 993 l 1306 993 l 1033 0 l 793 0 l 689 476 l 654 661 l 651 661 q 618 476 635 556 l 514 0 l 272 0 z "},"ẁ":{"ha":1088,"x_min":-3,"x_max":1089,"o":"m 215 0 l -3 711 l 228 711 l 306 417 l 338 279 l 340 279 q 372 421 357 361 l 447 711 l 639 711 l 717 421 l 750 278 l 753 278 q 786 417 771 360 l 865 711 l 1089 711 l 871 0 l 658 0 l 575 322 l 544 450 l 542 450 q 510 322 525 378 l 425 0 l 215 0 m 471 794 l 303 1000 l 564 1000 l 643 794 l 471 794 z "},"Ẃ":{"ha":1306,"x_min":0,"x_max":1306,"o":"m 561 1042 l 621 1222 l 881 1222 l 733 1042 l 561 1042 m 272 0 l 0 993 l 249 993 l 349 576 l 394 331 l 397 331 q 446 567 424 467 l 539 993 l 767 993 l 860 569 l 907 331 l 910 331 q 960 579 938 481 l 1058 993 l 1306 993 l 1033 0 l 793 0 l 689 476 l 654 661 l 651 661 q 618 476 635 556 l 514 0 l 272 0 z "},"ẃ":{"ha":1088,"x_min":-3,"x_max":1089,"o":"m 451 794 l 531 1000 l 792 1000 l 624 794 l 451 794 m 215 0 l -3 711 l 228 711 l 306 417 l 338 279 l 340 279 q 372 421 357 361 l 447 711 l 639 711 l 717 421 l 750 278 l 753 278 q 786 417 771 360 l 865 711 l 1089 711 l 871 0 l 658 0 l 575 322 l 544 450 l 542 450 q 510 322 525 378 l 425 0 l 215 0 z "},"Ẅ":{"ha":1306,"x_min":0,"x_max":1306,"o":"m 397 1046 l 397 1224 l 610 1224 l 610 1046 l 397 1046 m 696 1046 l 696 1224 l 908 1224 l 908 1046 l 696 1046 m 272 0 l 0 993 l 249 993 l 349 576 l 394 331 l 397 331 q 446 567 424 467 l 539 993 l 767 993 l 860 569 l 907 331 l 910 331 q 960 579 938 481 l 1058 993 l 1306 993 l 1033 0 l 793 0 l 689 476 l 654 661 l 651 661 q 618 476 635 556 l 514 0 l 272 0 z "},"ẅ":{"ha":1088,"x_min":-3,"x_max":1089,"o":"m 281 801 l 281 979 l 493 979 l 493 801 l 281 801 m 593 801 l 593 979 l 806 979 l 806 801 l 593 801 m 215 0 l -3 711 l 228 711 l 306 417 l 338 279 l 340 279 q 372 421 357 361 l 447 711 l 639 711 l 717 421 l 750 278 l 753 278 q 786 417 771 360 l 865 711 l 1089 711 l 871 0 l 658 0 l 575 322 l 544 450 l 542 450 q 510 322 525 378 l 425 0 l 215 0 z "},"Ỳ":{"ha":921,"x_min":1,"x_max":919,"o":"m 338 0 l 338 367 l 1 993 l 269 993 l 397 736 l 463 585 l 465 585 q 533 736 500 668 l 660 993 l 919 993 l 583 367 l 583 0 l 338 0 m 390 1042 l 243 1222 l 503 1222 l 563 1042 l 390 1042 z "},"ỳ":{"ha":735,"x_min":-4,"x_max":739,"o":"m 78 -235 l 78 -58 l 156 -58 q 249 17 249 -58 q 206 164 249 53 l -4 711 l 235 711 l 331 408 l 375 244 l 378 244 q 419 408 397 339 l 513 711 l 739 711 l 493 -10 q 391 -185 450 -135 q 225 -235 332 -235 l 78 -235 m 299 794 l 131 1000 l 392 1000 l 471 794 l 299 794 z "}," ":{"ha":76,"x_min":0,"x_max":0,"o":""},"–":{"ha":792,"x_min":60,"x_max":732,"o":"m 60 257 l 60 451 l 732 451 l 732 257 l 60 257 z "},"—":{"ha":1296,"x_min":60,"x_max":1236,"o":"m 60 257 l 60 451 l 1236 451 l 1236 257 l 60 257 z "},"‘":{"ha":303,"x_min":47,"x_max":258,"o":"m 47 585 l 47 767 q 107 928 47 868 q 258 997 165 988 l 258 917 q 188 870 215 904 q 160 792 160 836 l 254 792 l 254 585 l 47 585 z "},"’":{"ha":303,"x_min":44,"x_max":256,"o":"m 44 581 l 44 661 q 115 708 88 674 q 143 786 143 742 l 49 786 l 49 993 l 256 993 l 256 811 q 196 650 256 713 q 44 581 138 590 z "},"‚":{"ha":303,"x_min":44,"x_max":256,"o":"m 44 -207 l 44 -125 q 115 -79 86 -112 q 143 0 143 -46 l 49 0 l 49 207 l 256 207 l 256 25 q 196 -137 256 -74 q 44 -207 138 -196 z "},"“":{"ha":594,"x_min":47,"x_max":550,"o":"m 47 585 l 47 767 q 107 928 47 868 q 258 997 165 988 l 258 917 q 188 870 215 904 q 160 792 160 836 l 254 792 l 254 585 l 47 585 m 339 585 l 339 767 q 399 928 339 868 q 550 997 457 988 l 550 917 q 479 870 507 904 q 451 792 451 836 l 546 792 l 546 585 l 339 585 z "},"”":{"ha":594,"x_min":44,"x_max":547,"o":"m 44 581 l 44 661 q 115 708 88 674 q 143 786 143 742 l 49 786 l 49 993 l 256 993 l 256 811 q 196 650 256 713 q 44 581 138 590 m 336 581 l 336 661 q 407 708 379 674 q 435 786 435 742 l 340 786 l 340 993 l 547 993 l 547 811 q 488 650 547 713 q 336 581 429 590 z "},"„":{"ha":594,"x_min":44,"x_max":547,"o":"m 44 -207 l 44 -125 q 115 -79 86 -112 q 143 0 143 -46 l 49 0 l 49 207 l 256 207 l 256 25 q 196 -137 256 -74 q 44 -207 138 -196 m 336 -207 l 336 -125 q 406 -79 378 -112 q 435 0 435 -46 l 340 0 l 340 207 l 547 207 l 547 25 q 488 -137 547 -74 q 336 -207 429 -196 z "},"†":{"ha":818,"x_min":47,"x_max":771,"o":"m 292 -199 l 292 529 l 47 529 l 47 715 l 292 715 l 292 993 l 528 993 l 528 715 l 771 715 l 771 529 l 528 529 l 528 -199 l 292 -199 z "},"‡":{"ha":819,"x_min":47,"x_max":771,"o":"m 292 -199 l 292 81 l 47 81 l 47 267 l 292 267 l 292 529 l 47 529 l 47 715 l 292 715 l 292 993 l 528 993 l 528 715 l 771 715 l 771 529 l 528 529 l 528 267 l 771 267 l 771 81 l 528 81 l 528 -199 l 292 -199 z "},"•":{"ha":519,"x_min":51,"x_max":468,"o":"m 406 297 q 375 267 406 297 q 260 236 344 236 q 113 297 175 236 q 51 444 51 358 q 113 592 51 531 q 260 653 175 653 q 406 592 344 653 q 468 444 468 531 q 406 297 468 358 z "},"…":{"ha":1050,"x_min":44,"x_max":1006,"o":"m 44 0 l 44 233 l 282 233 l 282 0 l 44 0 m 407 0 l 407 233 l 644 233 l 644 0 l 407 0 m 769 0 l 769 233 l 1006 233 l 1006 0 l 769 0 z "},"‰":{"ha":1760,"x_min":28,"x_max":1733,"o":"m 199 693 q 282 536 199 536 q 365 693 365 536 q 282 854 365 854 q 199 693 199 854 m 465 492 q 429 453 465 492 q 282 415 393 415 q 99 492 171 415 q 28 693 28 568 q 99 896 28 819 q 282 972 171 972 q 466 896 396 972 q 536 693 536 819 q 465 492 536 568 m 278 0 l 792 953 l 921 953 l 408 0 l 278 0 m 835 256 q 918 97 835 97 q 1001 256 1001 97 q 918 415 1001 415 q 835 256 835 415 m 1101 53 q 1065 15 1101 53 q 918 -24 1029 -24 q 735 53 807 -24 q 664 256 664 131 q 735 457 664 381 q 918 533 807 533 q 1102 458 1032 533 q 1172 256 1172 382 q 1101 53 1172 129 m 1396 256 q 1479 97 1396 97 q 1563 256 1563 97 q 1542 372 1563 328 q 1479 415 1521 415 q 1396 256 1396 415 m 1478 -24 q 1295 53 1367 -24 q 1224 256 1224 131 q 1295 457 1224 381 q 1478 533 1367 533 q 1663 458 1592 533 q 1733 256 1733 382 q 1662 53 1733 129 q 1478 -24 1590 -24 z "},"′":{"ha":310,"x_min":29,"x_max":281,"o":"m 29 619 l 83 993 l 281 993 l 226 619 l 29 619 z "},"″":{"ha":590,"x_min":29,"x_max":561,"o":"m 29 619 l 83 993 l 281 993 l 226 619 l 29 619 m 310 619 l 364 993 l 561 993 l 507 619 l 310 619 z "},"‹":{"ha":368,"x_min":61,"x_max":297,"o":"m 297 47 l 61 243 l 61 457 l 297 651 l 297 444 l 179 350 l 179 347 l 297 253 l 297 47 z "},"›":{"ha":368,"x_min":71,"x_max":307,"o":"m 71 47 l 71 254 l 189 349 l 189 351 l 71 446 l 71 651 l 307 456 l 307 242 l 71 47 z "},"⁄":{"ha":394,"x_min":-251,"x_max":646,"o":"m -251 0 l 504 993 l 646 993 l -111 0 l -251 0 z "},"€":{"ha":904,"x_min":21,"x_max":890,"o":"m 511 -22 q 240 76 350 -22 q 97 340 131 174 l 21 340 l 21 429 l 86 429 q 85 474 85 443 l 85 508 l 21 508 l 21 599 l 96 599 q 237 870 126 768 q 508 972 347 972 q 774 878 676 972 q 883 631 871 785 l 653 631 q 506 786 632 786 q 335 599 368 786 l 549 599 l 549 508 l 326 508 q 326 429 321 482 l 549 429 l 549 340 l 336 340 q 511 165 372 165 q 618 213 581 165 q 665 338 656 260 l 890 338 q 782 76 881 174 q 511 -22 683 -22 z "},"ℓ":{"ha":557,"x_min":14,"x_max":531,"o":"m 314 -7 q 139 40 197 -7 q 81 208 81 86 l 81 244 q 14 226 58 238 l 14 360 l 81 382 l 81 772 q 318 1004 81 1004 q 531 774 531 1004 q 297 338 531 479 l 297 254 q 315 185 297 203 q 383 167 332 167 q 460 171 418 167 l 460 6 q 314 -7 413 -7 m 297 783 l 297 514 q 303 521 300 517 q 310 530 307 525 q 317 538 314 535 q 375 783 375 621 q 336 861 375 861 q 297 783 297 861 z "},"™":{"ha":971,"x_min":43,"x_max":897,"o":"m 436 611 l 436 993 l 604 993 l 664 778 l 667 778 l 728 993 l 897 993 l 897 611 l 783 611 l 783 840 l 781 840 l 710 611 l 619 611 l 550 840 l 547 840 l 547 611 l 436 611 m 151 611 l 151 893 l 43 893 l 43 993 l 383 993 l 383 893 l 275 893 l 275 611 l 151 611 z "},"Ω":{"ha":1029,"x_min":29,"x_max":1000,"o":"m 40 0 l 40 185 l 181 185 l 181 189 q 29 529 29 286 q 163 877 29 742 q 515 1013 297 1013 q 866 877 732 1013 q 1000 529 1000 742 q 850 189 1000 286 l 850 185 l 989 185 l 989 0 l 564 0 l 564 178 q 750 504 750 217 q 690 733 750 651 q 515 814 631 814 q 340 733 400 814 q 279 504 279 651 q 465 178 279 217 l 465 0 l 40 0 z "},"℮":{"ha":863,"x_min":35,"x_max":829,"o":"m 454 -15 q 147 107 258 -15 q 35 429 35 229 q 150 747 35 624 q 447 871 265 871 q 693 789 599 871 q 826 418 829 675 l 251 418 l 251 110 q 454 51 331 51 q 644 104 574 51 q 750 258 714 157 l 821 258 q 699 60 793 135 q 454 -15 604 -15 m 251 479 l 615 479 l 615 764 q 447 808 543 808 q 251 749 328 808 l 251 479 z "},"⅓":{"ha":1193,"x_min":32,"x_max":1160,"o":"m 158 442 l 158 767 l 32 767 l 32 879 q 193 999 171 886 l 326 999 l 326 442 l 158 442 m 104 0 l 860 993 l 1001 993 l 244 0 l 104 0 m 926 -14 q 741 41 804 -14 q 676 188 678 96 l 833 188 q 919 104 838 104 q 975 122 956 104 q 994 168 994 139 q 907 232 994 232 l 875 232 l 875 338 l 903 338 q 983 394 983 338 q 967 434 983 419 q 919 449 950 449 q 846 379 851 449 l 693 379 q 758 511 696 460 q 926 563 819 563 q 1083 520 1024 563 q 1143 404 1143 478 q 1063 297 1143 333 l 1063 296 q 1160 161 1160 260 q 1094 31 1160 75 q 926 -14 1029 -14 z "},"⅔":{"ha":1304,"x_min":42,"x_max":1271,"o":"m 42 442 q 144 644 43 565 q 235 708 176 672 q 306 753 294 744 q 347 821 347 783 q 283 879 347 879 q 224 854 246 879 q 203 783 203 829 l 50 783 q 115 947 50 889 q 288 1004 179 1004 q 449 953 390 1004 q 507 829 507 903 q 432 679 507 740 q 344 622 404 656 q 267 569 285 588 l 267 568 l 508 568 l 508 442 l 42 442 m 236 0 l 992 993 l 1133 993 l 376 0 l 236 0 m 1038 -14 q 852 41 915 -14 q 788 188 789 96 l 944 188 q 1031 104 949 104 q 1086 122 1067 104 q 1106 168 1106 139 q 1018 232 1106 232 l 986 232 l 986 338 l 1014 338 q 1094 394 1094 338 q 1078 434 1094 419 q 1031 449 1061 449 q 957 379 963 449 l 804 379 q 869 511 807 460 q 1038 563 931 563 q 1194 520 1135 563 q 1254 404 1254 478 q 1174 297 1254 333 l 1174 296 q 1271 161 1271 260 q 1206 31 1271 75 q 1038 -14 1140 -14 z "},"⅛":{"ha":1203,"x_min":32,"x_max":1169,"o":"m 158 442 l 158 767 l 32 767 l 32 879 q 193 999 171 886 l 326 999 l 326 442 l 158 442 m 107 0 l 863 993 l 1004 993 l 247 0 l 107 0 m 922 -14 q 742 32 807 -14 q 676 156 676 78 q 778 292 676 250 q 778 294 776 293 q 700 407 700 329 q 760 519 700 475 q 922 563 821 563 q 1085 522 1025 563 q 1144 410 1144 481 q 1069 299 1144 335 l 1069 296 q 1169 160 1169 258 q 1104 33 1169 79 q 922 -14 1039 -14 m 922 96 q 984 115 961 96 q 1007 167 1007 135 q 984 221 1007 200 q 924 242 961 242 q 862 221 885 242 q 839 167 839 200 q 862 115 839 135 q 922 96 885 96 m 870 355 q 880 346 870 355 q 922 338 889 338 q 974 355 956 338 q 993 400 993 372 q 974 445 993 428 q 922 463 956 463 q 870 445 889 463 q 851 400 851 428 q 870 355 851 372 z "},"⅜":{"ha":1274,"x_min":33,"x_max":1240,"o":"m 283 429 q 98 483 161 429 q 33 629 35 538 l 190 629 q 276 546 194 546 q 332 563 313 546 q 351 610 351 581 q 264 674 351 674 l 232 674 l 232 779 l 260 779 q 340 836 340 779 q 324 876 340 861 q 276 890 307 890 q 203 821 208 890 l 50 821 q 115 953 53 901 q 283 1004 176 1004 q 440 962 381 1004 q 500 846 500 919 q 419 739 500 775 l 419 738 q 517 603 517 701 q 451 473 517 517 q 283 429 386 429 m 197 0 l 953 993 l 1094 993 l 338 0 l 197 0 m 993 -14 q 813 32 878 -14 q 747 156 747 78 q 849 292 747 250 q 849 294 847 293 q 771 407 771 329 q 831 519 771 475 q 993 563 892 563 q 1156 522 1096 563 q 1215 410 1215 481 q 1140 299 1215 335 l 1140 296 q 1240 160 1240 258 q 1175 33 1240 79 q 993 -14 1110 -14 m 993 96 q 1055 115 1032 96 q 1078 167 1078 135 q 1055 221 1078 200 q 994 242 1032 242 q 933 221 956 242 q 910 167 910 200 q 933 115 910 135 q 993 96 956 96 m 941 355 q 950 346 941 355 q 993 338 960 338 q 1045 355 1026 338 q 1064 400 1064 372 q 1045 445 1064 428 q 993 463 1026 463 q 941 445 960 463 q 922 400 922 428 q 941 355 922 372 z "},"⅝":{"ha":1257,"x_min":32,"x_max":1224,"o":"m 274 429 q 107 476 174 429 q 32 606 40 524 l 181 606 q 271 547 192 547 q 328 570 307 547 q 350 631 350 593 q 328 691 350 669 q 271 713 307 713 q 194 679 218 713 l 54 679 l 111 993 l 472 993 l 472 874 l 222 874 l 203 782 l 206 782 q 319 817 246 817 q 456 767 403 817 q 510 635 510 718 q 445 485 510 542 q 274 429 381 429 m 175 0 l 931 993 l 1072 993 l 315 0 l 175 0 m 976 -14 q 796 32 861 -14 q 731 156 731 78 q 832 292 731 250 q 832 294 831 293 q 754 407 754 329 q 815 519 754 475 q 976 563 875 563 q 1139 522 1079 563 q 1199 410 1199 481 q 1124 299 1199 335 l 1124 296 q 1224 160 1224 258 q 1158 33 1224 79 q 976 -14 1093 -14 m 976 96 q 1038 115 1015 96 q 1061 167 1061 135 q 1038 221 1061 200 q 978 242 1015 242 q 916 221 939 242 q 893 167 893 200 q 916 115 893 135 q 976 96 939 96 m 924 355 q 934 346 924 355 q 976 338 943 338 q 1028 355 1010 338 q 1047 400 1047 372 q 1028 445 1047 428 q 976 463 1010 463 q 924 445 943 463 q 906 400 906 428 q 924 355 906 372 z "},"⅞":{"ha":1168,"x_min":35,"x_max":1135,"o":"m 67 0 l 822 993 l 964 993 l 207 0 l 67 0 m 888 -14 q 707 32 772 -14 q 642 156 642 78 q 743 292 642 250 q 743 294 742 293 q 665 407 665 329 q 726 519 665 475 q 888 563 786 563 q 1050 522 990 563 q 1110 410 1110 481 q 1035 299 1110 335 l 1035 296 q 1135 160 1135 258 q 1069 33 1135 79 q 888 -14 1004 -14 m 888 96 q 949 115 926 96 q 972 167 972 135 q 949 221 972 200 q 889 242 926 242 q 827 221 850 242 q 804 167 804 200 q 827 115 804 135 q 888 96 850 96 m 835 355 q 845 346 835 355 q 888 338 854 338 q 940 355 921 338 q 958 400 958 372 q 940 445 958 428 q 888 463 921 463 q 835 445 854 463 q 817 400 817 428 q 835 355 817 372 m 117 442 q 304 860 124 685 l 304 861 l 35 861 l 35 993 l 468 993 l 468 875 q 344 688 392 800 q 294 442 297 576 l 117 442 z "},"∂":{"ha":806,"x_min":28,"x_max":772,"o":"m 375 -21 q 118 67 208 -21 q 28 299 28 154 q 124 555 28 456 q 371 654 219 654 q 532 601 476 654 q 207 811 489 778 l 207 1003 q 628 845 485 989 q 772 436 772 701 q 672 99 772 219 q 375 -21 572 -21 m 378 140 q 493 202 453 140 q 533 351 533 264 q 501 460 533 422 q 411 497 468 497 q 297 444 340 497 q 254 299 254 392 q 287 181 254 221 q 378 140 319 140 z "},"∆":{"ha":944,"x_min":31,"x_max":915,"o":"m 275 185 l 658 185 l 511 607 l 469 754 l 467 754 q 424 607 442 657 l 275 185 m 31 0 l 31 153 l 346 993 l 597 993 l 915 154 l 915 0 l 31 0 z "},"∏":{"ha":999,"x_min":74,"x_max":925,"o":"m 74 -139 l 74 993 l 925 993 l 925 -139 l 683 -139 l 683 792 l 315 792 l 315 -139 l 74 -139 z "},"∑":{"ha":849,"x_min":44,"x_max":808,"o":"m 44 -139 l 44 63 l 394 438 l 394 440 l 44 799 l 44 993 l 794 993 l 794 801 l 321 801 l 321 799 l 631 492 l 631 394 l 311 61 l 311 58 l 808 58 l 808 -139 l 44 -139 z "},"−":{"ha":786,"x_min":56,"x_max":731,"o":"m 56 367 l 56 549 l 731 549 l 731 367 l 56 367 z "},"∕":{"ha":394,"x_min":-251,"x_max":646,"o":"m -251 0 l 504 974 l 646 974 l -111 0 l -251 0 z "},"∙":{"ha":326,"x_min":44,"x_max":282,"o":"m 44 325 l 44 558 l 282 558 l 282 325 l 44 325 z "},"√":{"ha":906,"x_min":19,"x_max":896,"o":"m 304 -139 l 124 278 l 19 278 l 19 469 l 279 469 l 347 297 l 401 142 l 404 142 q 447 299 421 218 l 671 993 l 896 993 l 522 -139 l 304 -139 z "},"∞":{"ha":1007,"x_min":31,"x_max":976,"o":"m 257 165 q 91 239 151 165 q 31 424 31 313 q 92 608 31 535 q 257 682 153 682 q 397 643 339 682 q 507 531 454 604 q 616 644 561 606 q 749 682 671 682 q 913 611 850 682 q 976 424 976 540 q 913 235 976 306 q 749 165 850 165 q 616 203 671 165 q 507 315 561 240 q 397 203 454 242 q 257 165 339 165 m 278 329 q 392 422 336 329 q 278 517 336 517 q 223 491 242 517 q 204 424 204 465 q 223 356 204 382 q 278 329 242 329 m 731 329 q 787 356 768 329 q 806 424 806 382 q 787 490 806 464 q 731 517 768 517 q 621 422 676 517 q 731 329 676 329 z "},"∫":{"ha":507,"x_min":-7,"x_max":517,"o":"m 125 -244 q -7 -229 50 -244 l -7 -62 l -6 -62 q 60 -68 31 -68 q 122 -53 103 -68 q 142 4 142 -37 l 142 797 q 194 969 142 913 q 386 1029 254 1029 q 517 1015 457 1029 l 517 847 l 514 847 q 447 854 482 854 q 387 838 406 853 q 368 782 368 822 l 368 -12 q 315 -183 368 -128 q 125 -244 254 -244 z "},"≈":{"ha":758,"x_min":47,"x_max":722,"o":"m 47 174 q 99 351 49 293 q 239 408 150 408 q 394 385 290 408 q 525 361 499 361 q 560 372 550 361 q 574 407 571 383 l 722 407 q 540 181 722 181 q 378 203 483 181 q 247 225 274 225 q 196 174 201 225 l 47 174 m 47 464 q 99 640 49 583 q 239 697 150 697 q 394 674 290 697 q 525 651 499 651 q 560 662 550 651 q 574 697 571 672 l 722 697 q 540 471 722 471 q 378 493 483 471 q 247 515 274 515 q 196 464 201 515 l 47 464 z "},"≠":{"ha":782,"x_min":71,"x_max":721,"o":"m 71 492 l 71 665 l 439 665 l 493 782 l 636 782 l 582 665 l 721 665 l 721 492 l 500 492 l 443 368 l 721 368 l 721 194 l 361 194 l 308 81 l 165 81 l 218 194 l 71 194 l 71 368 l 300 368 l 357 492 l 71 492 z "},"≤":{"ha":697,"x_min":60,"x_max":632,"o":"m 632 181 l 60 371 l 60 582 l 632 772 l 632 592 l 378 513 l 246 476 l 246 474 q 378 440 326 456 l 632 367 l 632 181 m 60 0 l 60 157 l 632 157 l 632 0 l 60 0 z "},"≥":{"ha":697,"x_min":65,"x_max":638,"o":"m 65 181 l 65 365 l 319 442 l 451 475 l 451 478 q 319 514 369 499 l 65 590 l 65 772 l 638 582 l 638 371 l 65 181 m 65 0 l 65 157 l 638 157 l 638 0 l 65 0 z "},"Ⓟ":{"ha":1135,"x_min":56,"x_max":1079,"o":"m 356 201 l 356 776 l 622 776 q 783 722 725 776 q 843 576 843 669 q 788 439 843 493 q 647 385 733 385 l 515 385 l 515 201 l 356 201 m 515 507 l 608 507 q 663 526 643 507 q 683 576 683 544 q 663 627 683 608 q 608 646 643 646 l 515 646 l 515 507 m 568 49 q 872 176 750 49 q 994 493 994 303 q 872 812 994 685 q 568 939 750 939 q 263 812 385 939 q 140 493 140 685 q 263 176 140 303 q 568 49 385 49 m 568 -24 q 203 124 351 -24 q 56 493 56 272 q 204 863 56 714 q 568 1011 353 1011 q 931 863 783 1011 q 1079 493 1079 715 q 931 124 1079 272 q 568 -24 783 -24 z "},"◊":{"ha":828,"x_min":22,"x_max":806,"o":"m 414 193 l 417 193 l 574 492 l 414 801 l 411 801 l 254 500 l 414 193 m 303 0 l 22 497 l 301 993 l 525 993 l 806 496 l 526 0 l 303 0 z "},"":{"ha":1175,"x_min":90,"x_max":1085,"o":"m 488 164 l 688 164 l 688 399 l 921 399 l 921 599 l 688 599 l 688 825 l 488 825 l 488 599 l 254 599 l 254 399 l 488 399 l 488 164 m 90 0 l 90 994 l 1085 994 l 1085 0 l 90 0 z "},"ﬀ":{"ha":906,"x_min":15,"x_max":888,"o":"m 107 0 l 107 567 l 15 567 l 15 711 l 107 711 l 107 756 q 150 901 107 847 q 454 982 229 1007 l 454 822 q 363 810 392 825 q 333 740 333 794 l 333 711 l 529 711 l 529 763 q 571 906 529 853 q 888 989 649 1014 l 888 829 q 785 817 815 832 q 754 746 754 801 l 754 711 l 888 711 l 888 567 l 754 567 l 754 0 l 529 0 l 529 567 l 333 567 l 333 0 l 107 0 z "},"ﬁ":{"ha":819,"x_min":15,"x_max":765,"o":"m 108 0 l 108 567 l 15 567 l 15 711 l 108 711 l 108 763 q 150 904 108 854 q 467 989 226 1014 l 467 829 q 364 817 394 832 q 333 746 333 801 l 333 711 l 467 711 l 467 567 l 333 567 l 333 0 l 108 0 m 539 0 l 539 711 l 765 711 l 765 0 l 539 0 m 539 810 l 539 993 l 765 993 l 765 810 l 539 810 z "},"ﬂ":{"ha":824,"x_min":15,"x_max":768,"o":"m 107 0 l 107 567 l 15 567 l 15 711 l 107 711 l 107 763 q 149 904 107 853 q 467 989 226 1014 l 467 829 q 364 817 394 832 q 333 746 333 801 l 333 711 l 467 711 l 467 567 l 333 567 l 333 0 l 107 0 m 539 0 l 539 993 l 768 993 l 768 0 l 539 0 z "},"ﬃ":{"ha":1240,"x_min":15,"x_max":1186,"o":"m 107 0 l 107 567 l 15 567 l 15 711 l 107 711 l 107 756 q 150 901 107 847 q 454 982 229 1007 l 454 822 q 363 810 392 825 q 333 740 333 794 l 333 711 l 529 711 l 529 763 q 571 906 529 853 q 888 989 649 1014 l 888 829 q 785 817 815 832 q 754 746 754 801 l 754 711 l 888 711 l 888 567 l 754 567 l 754 0 l 529 0 l 529 567 l 333 567 l 333 0 l 107 0 m 960 0 l 960 711 l 1186 711 l 1186 0 l 960 0 m 960 810 l 960 993 l 1186 993 l 1186 810 l 960 810 z "},"ﬄ":{"ha":1246,"x_min":15,"x_max":1190,"o":"m 107 0 l 107 567 l 15 567 l 15 711 l 107 711 l 107 756 q 150 901 107 847 q 454 982 229 1007 l 454 822 q 363 810 392 825 q 333 740 333 794 l 333 711 l 529 711 l 529 763 q 571 906 529 856 q 888 989 650 1014 l 888 829 q 785 817 815 832 q 754 746 754 801 l 754 711 l 888 711 l 888 567 l 754 567 l 754 0 l 529 0 l 529 567 l 333 567 l 333 0 l 107 0 m 961 0 l 961 993 l 1190 993 l 1190 0 l 961 0 z "}}}
